{"glyphs":{"0":{"ha":928,"x_min":0,"x_max":0,"o":"m 885 486 b 464 -14 885 192 706 -14 b 43 486 222 -14 43 192 b 464 986 43 781 222 986 b 885 486 706 986 885 781 m 656 486 b 464 958 656 794 600 958 b 272 486 328 958 272 794 b 464 14 272 178 328 14 b 656 486 600 14 656 178 "},"1":{"ha":531,"x_min":0,"x_max":0,"o":"m 26 0 l 26 6 b 167 119 136 46 167 49 l 167 850 b 21 967 167 919 136 922 l 21 972 l 376 972 l 376 119 b 514 6 376 49 408 46 l 514 0 "},"2":{"ha":774,"x_min":0,"x_max":0,"o":"m 344 963 b 181 781 238 963 181 883 b 294 643 181 694 228 643 b 351 660 321 643 336 647 l 354 660 b 207 557 331 590 278 557 b 35 738 107 557 35 629 b 344 986 35 882 160 986 b 711 711 547 986 711 901 b 185 164 711 515 538 386 l 439 164 b 729 289 599 164 657 175 l 732 289 l 693 0 l 0 0 l 0 3 b 506 743 414 396 506 543 b 344 963 506 863 464 963 "},"3":{"ha":764,"x_min":0,"x_max":0,"o":"m 346 11 b 522 267 456 11 522 121 b 296 517 522 433 446 517 l 296 529 b 486 760 444 535 486 626 b 351 961 486 876 451 961 b 219 817 265 961 219 894 b 294 708 219 753 247 708 b 325 714 306 708 317 710 l 328 714 b 201 646 308 671 264 646 b 63 782 121 646 63 700 b 351 986 63 904 188 986 b 692 754 554 986 692 896 b 431 529 692 618 579 547 b 733 268 601 521 733 426 b 346 -14 733 82 563 -14 b 11 214 169 -14 11 64 b 168 369 11 311 81 369 b 294 297 238 369 276 342 l 292 297 b 260 303 281 301 271 303 b 186 190 213 304 186 258 b 346 11 186 83 253 11 "},"4":{"ha":861,"x_min":0,"x_max":0,"o":"m 438 840 l 75 307 l 438 307 m 438 268 l 4 268 l 4 272 l 489 981 l 644 981 l 644 307 l 699 307 b 835 403 782 307 799 325 l 838 403 l 838 172 l 835 172 b 699 268 799 250 782 268 l 644 268 l 644 172 b 722 3 644 81 658 39 l 722 0 l 360 0 l 360 3 b 438 172 424 39 438 81 "},"5":{"ha":768,"x_min":0,"x_max":0,"o":"m 340 11 b 524 307 471 11 524 147 b 319 561 524 453 456 561 b 125 463 242 561 168 510 l 124 463 l 181 982 b 469 960 276 968 392 960 b 694 1024 576 960 640 963 l 697 1024 b 464 776 697 885 649 776 b 197 818 375 776 254 800 l 167 528 b 404 621 211 574 293 621 b 731 326 601 621 731 510 b 340 -14 731 111 550 -14 b 11 213 168 -14 11 64 b 165 368 11 314 79 368 b 290 294 233 368 274 339 l 288 294 b 256 301 278 300 268 301 b 182 189 210 301 182 256 b 340 11 182 82 249 11 "},"6":{"ha":829,"x_min":0,"x_max":0,"o":"m 489 986 b 779 792 646 986 779 919 b 646 661 779 713 719 661 b 514 754 586 661 529 690 l 517 754 b 554 743 528 746 540 743 b 624 833 596 743 624 781 b 489 961 624 911 571 961 b 251 526 319 961 251 760 b 254 447 251 501 253 469 b 497 606 290 539 372 606 b 792 313 646 606 792 518 b 435 -14 792 114 640 -14 b 43 465 189 -14 43 207 b 489 986 43 746 208 986 m 588 292 b 432 560 588 454 540 560 b 276 292 332 560 276 450 b 438 13 276 133 324 13 b 588 292 540 13 588 126 "},"7":{"ha":725,"x_min":0,"x_max":0,"o":"m 733 972 l 733 969 l 567 707 b 425 13 432 501 404 264 l 203 -8 b 540 718 232 288 374 499 l 592 785 l 217 785 b 24 653 115 785 72 758 l 21 653 l 50 988 b 156 972 72 976 107 972 "},"8":{"ha":797,"x_min":0,"x_max":0,"o":"m 496 575 b 767 276 682 510 767 411 b 401 -14 767 96 615 -14 b 29 232 193 -14 29 72 b 263 449 29 350 132 425 b 74 707 161 493 74 585 b 394 986 74 889 217 986 b 710 772 568 986 710 906 b 496 575 710 651 593 590 m 231 796 b 369 628 232 713 282 664 l 481 582 b 575 774 533 619 575 681 b 394 961 575 882 511 961 b 231 796 290 961 231 892 m 278 440 b 172 242 208 401 172 329 b 401 13 172 107 261 13 b 601 188 522 13 601 81 b 428 378 601 282 540 332 l 278 440 "},"9":{"ha":829,"x_min":0,"x_max":0,"o":"m 242 681 b 397 413 242 518 289 413 b 553 681 497 413 553 522 b 392 960 553 839 506 960 b 242 681 289 960 242 846 m 340 -14 b 50 181 183 -14 50 53 b 183 311 50 260 110 311 b 315 218 243 311 300 282 l 313 218 b 275 229 301 226 289 229 b 206 139 233 229 206 192 b 340 11 206 61 258 11 b 578 446 510 11 578 213 b 575 525 578 471 576 503 b 332 367 539 433 457 367 b 38 660 183 367 38 454 b 394 986 38 858 189 986 b 786 507 640 986 786 765 b 340 -14 786 226 621 -14 "}," ":{"ha":278,"x_min":0,"x_max":0,"o":""},"!":{"ha":399,"x_min":0,"x_max":0,"o":"m 331 972 l 203 318 l 197 318 l 68 972 m 321 111 b 200 -11 321 43 268 -11 b 78 111 132 -11 78 43 b 200 233 78 179 132 233 b 321 111 268 233 321 179 "},"\"":{"ha":626,"x_min":0,"x_max":0,"o":"m 449 561 b 338 906 449 561 407 786 b 450 986 353 951 400 986 b 564 906 500 986 549 951 b 453 561 493 786 453 561 m 174 561 b 63 906 174 561 133 786 b 176 986 79 951 126 986 b 290 906 226 986 274 951 b 179 561 219 786 179 561 "},"#":{"ha":882,"x_min":0,"x_max":0,"o":"m 568 636 l 356 636 l 314 338 l 526 338 m 521 304 l 308 304 l 265 0 l 232 0 l 275 304 l 57 304 l 63 338 l 281 338 l 322 636 l 85 636 l 90 669 l 328 669 l 371 972 l 404 972 l 361 669 l 574 669 l 617 972 l 650 972 l 607 669 l 825 669 l 819 636 l 601 636 l 560 338 l 799 338 l 792 304 l 554 304 l 511 0 l 478 0 "},"$":{"ha":814,"x_min":0,"x_max":0,"o":"m 408 961 b 364 958 393 961 378 960 l 364 621 l 450 594 l 450 958 b 408 961 436 960 422 961 m 204 788 b 340 628 204 693 256 653 l 340 953 b 204 788 254 932 204 869 m 397 11 b 450 15 415 11 433 13 l 450 386 l 364 410 l 364 13 b 397 11 375 11 386 11 m 472 381 l 472 19 b 636 208 572 40 636 108 b 475 379 636 297 588 349 m 364 -14 l 364 -158 l 340 -158 l 340 -12 b 36 188 157 1 36 79 b 160 306 36 260 89 306 b 253 267 204 306 235 288 b 185 174 213 263 185 231 b 340 17 185 97 243 33 l 340 417 l 326 421 b 64 699 181 463 64 540 b 340 982 64 847 171 958 l 340 1125 l 364 1125 l 364 985 b 408 986 378 986 393 986 b 450 985 422 986 436 986 l 450 1125 l 472 1125 l 472 983 b 738 806 635 969 738 900 b 625 700 738 736 688 700 b 535 735 583 700 549 717 b 603 824 571 739 603 771 b 472 954 603 889 553 938 l 472 588 l 506 578 b 769 296 653 533 769 464 b 472 -8 769 131 639 18 l 472 -158 l 450 -158 l 450 -11 b 397 -14 433 -12 415 -14 "},"%":{"ha":931,"x_min":0,"x_max":0,"o":"m 158 0 l 692 935 b 518 872 658 906 596 872 b 419 889 482 872 451 878 b 457 772 442 856 457 815 b 242 558 457 654 358 558 b 28 772 125 558 28 654 b 242 986 28 890 125 986 b 519 901 356 986 386 901 b 733 999 621 901 671 939 l 749 986 l 217 0 m 242 583 b 321 772 304 583 321 660 b 242 961 321 885 304 961 b 163 772 181 961 163 885 b 242 583 163 660 181 583 m 689 -7 b 474 207 572 -7 474 88 b 689 419 474 325 572 419 b 903 207 806 419 903 325 b 689 -7 903 88 806 -7 m 689 17 b 768 207 750 17 768 94 b 689 396 768 318 750 396 b 610 207 626 396 610 318 b 689 17 610 94 626 17 "},"&":{"ha":1040,"x_min":0,"x_max":0,"o":"m 482 569 b 596 779 550 613 596 683 b 450 961 596 878 547 961 b 319 825 367 961 319 906 b 417 642 319 753 358 704 m 464 40 b 656 101 531 40 597 63 l 314 467 b 229 276 253 421 229 357 b 464 40 229 142 325 40 m 682 74 b 393 -14 604 18 508 -14 b 53 238 214 -14 53 71 b 300 481 53 357 144 440 l 247 538 b 161 736 194 593 161 665 b 450 986 161 899 299 986 b 738 779 625 986 738 901 b 499 551 738 653 629 583 l 786 239 b 836 397 814 288 832 340 b 732 526 842 467 815 494 l 732 531 l 988 531 l 988 526 b 882 397 908 499 896 465 b 810 213 868 331 843 268 l 901 113 b 1051 3 954 56 988 32 l 1051 0 l 750 0 "},"'":{"ha":353,"x_min":0,"x_max":0,"o":"m 174 561 b 63 906 174 561 133 786 b 176 986 79 951 126 986 b 290 906 226 986 274 951 b 179 561 219 786 179 561 "},"(":{"ha":494,"x_min":0,"x_max":0,"o":"m 57 435 b 451 1040 57 735 243 928 l 475 1040 b 244 435 328 915 244 681 b 475 -171 244 189 328 -46 l 451 -171 b 57 435 243 -58 57 135 "},")":{"ha":494,"x_min":0,"x_max":0,"o":"m 43 1040 b 438 435 251 928 438 735 b 43 -171 438 135 251 -58 l 19 -171 b 250 435 167 -46 250 189 b 19 1040 250 681 167 915 l 43 1040 "},"*":{"ha":578,"x_min":0,"x_max":0,"o":"m 374 1040 b 301 840 350 1018 313 919 b 469 969 376 875 457 940 l 522 810 b 310 815 493 825 389 831 b 486 694 365 756 454 699 l 349 596 b 289 799 356 628 329 729 b 229 596 249 729 222 628 l 92 694 b 268 815 124 699 213 756 b 56 810 189 831 85 825 l 108 969 b 276 840 121 940 201 875 b 204 1040 265 919 228 1018 "},"+":{"ha":665,"x_min":0,"x_max":0,"o":"m 351 428 l 351 176 l 313 176 l 313 428 l 61 428 l 61 467 l 313 467 l 313 718 l 351 718 l 351 467 l 604 467 l 604 428 "},",":{"ha":331,"x_min":0,"x_max":0,"o":"m 218 36 b 143 6 204 17 178 6 b 43 110 86 6 43 47 b 160 224 43 176 92 224 b 293 65 240 224 293 160 b 22 -182 293 -86 174 -182 l 22 -160 b 218 36 135 -150 228 -89 "},"-":{"ha":447,"x_min":0,"x_max":0,"o":"m 50 428 l 396 428 l 396 357 l 50 357 "},".":{"ha":331,"x_min":0,"x_max":0,"o":"m 286 111 b 165 -11 286 43 233 -11 b 43 111 96 -11 43 43 b 165 233 43 179 96 233 b 286 111 233 233 286 179 "},"/":{"ha":485,"x_min":0,"x_max":0,"o":"m 411 1040 l 457 1040 l 46 -171 l 0 -171 "},":":{"ha":331,"x_min":0,"x_max":0,"o":"m 286 525 b 165 403 286 457 233 403 b 43 525 96 403 43 457 b 165 647 43 593 96 647 b 286 525 233 647 286 593 m 286 111 b 165 -11 286 43 233 -11 b 43 111 96 -11 43 43 b 165 233 43 179 96 233 b 286 111 233 233 286 179 "},";":{"ha":331,"x_min":0,"x_max":0,"o":"m 286 525 b 165 403 286 457 233 403 b 43 525 96 403 43 457 b 165 647 43 593 96 647 b 286 525 233 647 286 593 m 218 36 b 143 6 204 17 178 6 b 43 110 86 6 43 47 b 160 224 43 176 92 224 b 293 65 240 224 293 160 b 22 -182 293 -86 174 -182 l 22 -160 b 218 36 135 -150 228 -89 "},"<":{"ha":488,"x_min":0,"x_max":0,"o":"m 39 454 l 433 683 l 433 638 l 96 444 l 433 251 l 433 206 l 39 435 "},"=":{"ha":672,"x_min":0,"x_max":0,"o":"m 64 558 l 608 558 l 608 519 l 64 519 m 64 379 l 608 379 l 608 340 l 64 340 "},">":{"ha":488,"x_min":0,"x_max":0,"o":"m 449 435 l 54 206 l 54 251 l 392 444 l 54 638 l 54 683 l 449 454 "},"?":{"ha":736,"x_min":0,"x_max":0,"o":"m 350 960 b 182 807 249 960 182 890 b 275 699 182 744 218 699 b 321 711 286 699 307 703 l 324 710 b 186 615 303 651 256 615 b 36 767 104 615 36 672 b 350 986 36 896 167 986 b 700 714 563 986 700 872 b 358 385 700 539 538 419 l 358 310 l 331 310 l 331 556 b 531 782 456 589 531 660 b 350 960 531 875 468 960 m 346 233 b 467 111 414 233 467 179 b 346 -11 467 43 414 -11 b 224 111 278 -11 224 43 b 346 233 224 179 278 233 "},"@":{"ha":1272,"x_min":0,"x_max":0,"o":"m 889 226 b 953 121 871 157 899 121 b 1156 458 1042 121 1156 240 b 681 894 1156 736 936 894 b 153 314 374 894 153 626 b 663 -192 153 -4 379 -192 b 1101 -50 835 -192 979 -150 l 1104 -57 b 663 -229 997 -172 835 -229 b 56 315 321 -229 56 -42 b 681 924 56 658 326 924 b 1217 458 969 924 1217 754 b 904 57 1217 188 1054 57 b 719 197 797 57 726 108 b 515 57 678 113 613 57 b 328 269 404 57 328 139 b 649 642 328 468 458 642 b 808 529 743 642 794 590 b 990 635 849 582 925 628 m 774 453 b 704 593 797 547 761 593 b 508 251 600 593 508 407 b 588 121 508 181 535 121 b 740 311 660 121 717 201 "},"A":{"ha":1010,"x_min":0,"x_max":0,"o":"m 249 340 l 585 340 l 413 715 m 232 0 l -1 0 l -1 3 b 129 176 51 33 89 89 l 499 986 l 504 986 l 897 156 b 1010 3 939 68 960 33 l 1010 0 l 629 0 l 629 3 b 690 79 669 24 690 46 b 668 160 690 104 682 129 l 603 301 l 231 301 l 181 186 b 160 103 168 160 160 132 b 232 3 160 60 186 24 "},"B":{"ha":951,"x_min":0,"x_max":0,"o":"m 46 0 l 46 3 b 124 172 110 39 124 81 l 124 800 b 46 969 124 892 110 933 l 46 972 l 511 972 b 861 726 715 972 861 906 b 601 503 861 592 740 514 b 917 258 747 496 917 425 b 535 0 917 69 761 0 m 446 514 b 658 725 575 514 658 589 b 446 936 658 861 575 936 l 332 936 l 332 514 m 467 36 b 708 258 621 36 708 111 b 467 478 708 403 621 478 l 332 478 l 332 36 "},"C":{"ha":949,"x_min":0,"x_max":0,"o":"m 890 665 l 888 665 b 571 954 824 835 715 954 b 269 515 378 954 269 761 b 607 93 269 247 424 93 b 908 286 740 93 843 142 l 917 283 b 518 -14 875 101 731 -14 b 42 478 246 -14 42 182 b 554 986 42 775 272 986 b 790 942 675 986 746 942 b 881 986 832 942 856 963 "},"D":{"ha":1056,"x_min":0,"x_max":0,"o":"m 46 3 b 124 172 110 39 124 81 l 124 800 b 46 969 124 892 110 933 l 46 972 l 432 972 b 1014 493 772 972 1014 814 b 451 0 1014 157 767 0 l 46 0 m 432 36 b 789 493 644 36 789 182 b 419 936 789 776 646 936 l 332 936 l 332 36 "},"E":{"ha":908,"x_min":0,"x_max":0,"o":"m 707 972 b 793 983 746 972 775 975 l 840 725 l 838 725 b 519 936 760 861 686 936 l 332 936 l 332 518 l 486 518 b 685 675 599 518 639 546 l 688 675 l 688 335 l 685 335 b 486 479 639 463 599 479 l 332 479 l 332 36 l 543 36 b 875 272 717 36 797 131 l 878 272 l 833 0 l 46 0 l 46 3 b 124 172 110 39 124 81 l 124 800 b 46 969 124 892 110 933 l 46 972 "},"F":{"ha":864,"x_min":0,"x_max":0,"o":"m 332 165 b 442 3 332 76 351 42 l 442 0 l 46 0 l 46 3 b 124 172 110 39 124 81 l 124 800 b 46 969 124 892 110 933 l 46 972 l 697 972 b 783 983 736 972 765 975 l 831 725 l 828 725 b 508 936 750 861 676 936 l 332 936 l 332 501 l 486 501 b 685 658 599 501 639 529 l 688 658 l 688 318 l 685 318 b 486 463 639 446 599 463 l 332 463 "},"G":{"ha":1054,"x_min":0,"x_max":0,"o":"m 575 956 b 272 476 381 956 272 764 b 547 28 272 215 378 28 b 751 233 671 28 751 103 l 751 285 b 674 454 751 376 738 418 l 674 457 l 1032 457 l 1032 454 b 954 285 968 418 954 376 l 954 -14 l 951 -14 l 835 140 b 538 -14 783 58 674 -14 b 42 476 247 -14 42 186 b 560 986 42 781 276 986 b 801 942 683 986 756 942 b 892 986 842 942 867 963 l 901 665 l 899 665 b 575 956 832 833 719 956 "},"H":{"ha":1129,"x_min":0,"x_max":0,"o":"m 124 800 b 46 969 124 892 110 933 l 46 972 l 410 972 l 410 969 b 332 800 346 933 332 892 l 332 519 l 797 519 l 797 800 b 719 969 797 892 783 933 l 719 972 l 1083 972 l 1083 969 b 1006 800 1019 933 1006 892 l 1006 172 b 1083 3 1006 81 1019 39 l 1083 0 l 719 0 l 719 3 b 797 172 783 39 797 81 l 797 479 l 332 479 l 332 172 b 410 3 332 81 346 39 l 410 0 l 46 0 l 46 3 b 124 172 110 39 124 81 "},"I":{"ha":456,"x_min":0,"x_max":0,"o":"m 332 172 b 410 3 332 81 346 39 l 410 0 l 46 0 l 46 3 b 124 172 110 39 124 81 l 124 800 b 46 969 124 892 110 933 l 46 972 l 410 972 l 410 969 b 332 800 346 933 332 892 l 332 172 "},"J":{"ha":803,"x_min":0,"x_max":0,"o":"m 488 800 b 411 969 488 892 475 933 l 411 972 l 775 972 l 775 969 b 697 800 711 933 697 892 l 697 289 b 338 -14 697 76 533 -14 b 14 210 167 -14 14 67 b 174 357 14 303 82 357 b 289 313 221 357 264 340 b 193 185 224 310 193 256 b 338 13 193 89 243 13 b 488 231 446 13 488 97 "},"K":{"ha":1028,"x_min":0,"x_max":0,"o":"m 46 0 l 46 3 b 124 172 110 39 124 81 l 124 800 b 46 969 124 892 110 933 l 46 972 l 410 972 l 410 969 b 332 800 346 933 332 892 l 332 458 l 726 832 b 764 901 750 854 764 879 b 710 969 764 929 744 954 l 710 972 l 990 972 l 990 969 b 771 824 896 932 836 885 l 560 624 l 879 154 b 1039 3 929 85 982 32 l 1039 0 l 646 0 l 646 3 b 682 56 672 17 682 29 b 644 147 682 82 669 107 l 407 483 l 332 413 l 332 172 b 410 3 332 81 346 39 l 410 0 "},"L":{"ha":874,"x_min":0,"x_max":0,"o":"m 410 972 l 410 969 b 332 800 346 933 332 892 l 332 36 l 517 36 b 851 297 690 36 761 129 l 854 297 l 806 0 l 46 0 l 46 3 b 124 172 110 39 124 81 l 124 800 b 46 969 124 892 110 933 l 46 972 "},"M":{"ha":1243,"x_min":0,"x_max":0,"o":"m 165 211 b 276 3 165 101 200 36 l 276 0 l 19 0 l 19 3 b 124 206 89 39 124 101 l 124 800 b 46 969 124 892 110 933 l 46 972 l 346 972 l 639 294 l 918 972 l 1197 972 l 1197 969 b 1119 800 1133 933 1119 892 l 1119 175 b 1206 3 1119 83 1142 39 l 1206 0 l 828 0 l 828 3 b 913 175 892 39 913 83 l 913 863 l 553 -15 l 547 -15 l 165 864 l 165 211 "},"N":{"ha":1011,"x_min":0,"x_max":0,"o":"m 999 969 b 894 767 928 933 894 871 l 894 -7 l 856 -7 l 165 856 l 165 211 b 276 3 165 101 200 36 l 276 0 l 19 0 l 19 3 b 124 206 89 39 124 101 l 124 800 b 46 969 124 892 110 933 l 46 972 l 344 972 l 853 332 l 853 761 b 742 969 853 871 818 936 l 742 972 l 999 972 l 999 969 "},"O":{"ha":1064,"x_min":0,"x_max":0,"o":"m 1022 486 b 532 -14 1022 194 808 -14 b 42 486 256 -14 42 194 b 532 986 42 778 256 986 b 1022 486 808 986 1022 778 m 792 486 b 532 957 792 776 714 957 b 272 486 350 957 272 776 b 532 15 272 196 350 15 b 792 486 714 15 792 196 "},"P":{"ha":913,"x_min":0,"x_max":0,"o":"m 332 403 l 332 165 b 442 3 332 76 351 42 l 442 0 l 46 0 l 46 3 b 124 172 110 39 124 81 l 124 800 b 46 969 124 892 110 933 l 46 972 l 518 972 b 893 688 743 972 893 874 b 519 403 893 501 743 403 m 453 439 b 686 688 613 439 686 540 b 453 936 686 835 613 936 l 332 936 l 332 439 "},"Q":{"ha":1064,"x_min":0,"x_max":0,"o":"m 904 -224 b 667 3 772 -224 715 -108 b 532 -15 624 -10 579 -15 b 42 485 256 -15 42 193 b 532 985 42 776 256 985 b 1022 485 808 985 1022 776 b 786 51 1022 292 929 136 b 975 -90 836 -22 888 -90 b 1076 -24 1021 -90 1057 -69 l 1079 -24 b 904 -224 1078 -144 1017 -224 m 272 485 b 369 86 272 303 303 165 b 544 243 386 171 439 243 b 728 136 628 243 682 194 b 792 485 771 217 792 336 b 532 956 792 775 714 956 b 272 485 350 956 272 775 m 532 14 b 649 46 576 14 615 25 b 503 204 611 132 574 204 b 390 65 443 204 396 142 b 532 14 428 32 475 14 "},"R":{"ha":1017,"x_min":0,"x_max":0,"o":"m 332 490 l 469 490 b 688 710 604 490 688 560 b 469 936 688 853 611 936 l 332 936 m 546 972 b 910 714 751 972 910 901 b 590 465 910 544 751 468 b 847 285 736 456 810 394 l 883 174 b 1033 3 917 74 951 39 l 1033 0 l 740 0 b 667 150 710 32 688 86 l 621 303 b 446 453 593 388 556 453 l 332 453 l 332 172 b 410 3 332 81 346 39 l 410 0 l 46 0 l 46 3 b 124 172 110 39 124 81 l 124 800 b 46 969 124 892 110 933 l 46 972 "},"S":{"ha":808,"x_min":0,"x_max":0,"o":"m 390 957 b 211 789 293 957 211 899 b 429 596 211 671 313 631 b 764 279 585 550 764 503 b 407 -14 764 85 594 -14 b 160 31 294 -14 217 31 b 65 -14 121 31 94 11 l 44 301 l 47 301 b 406 15 133 125 268 15 b 607 197 524 15 607 81 b 338 410 607 333 474 367 b 54 701 197 453 54 508 b 390 986 54 875 197 986 b 621 943 497 986 569 943 b 703 986 660 943 682 967 l 708 706 l 706 706 b 390 957 629 850 536 957 "},"T":{"ha":1036,"x_min":0,"x_max":0,"o":"m 883 972 b 969 983 922 972 951 975 l 1017 672 l 1014 672 b 703 936 907 849 854 936 l 622 936 l 622 165 b 704 3 622 74 640 39 l 704 0 l 332 0 l 332 3 b 413 165 396 39 413 74 l 413 936 l 332 936 b 22 672 181 936 129 849 l 19 672 l 67 983 b 151 972 85 975 114 972 "},"U":{"ha":1014,"x_min":0,"x_max":0,"o":"m 899 375 b 519 -14 899 119 744 -14 b 107 378 269 -14 107 118 l 107 800 b 29 969 107 892 93 933 l 29 972 l 394 972 l 394 969 b 317 800 331 933 317 892 l 317 385 b 574 61 317 181 399 61 b 857 381 736 61 857 174 l 857 761 b 746 969 857 871 822 936 l 746 972 l 1003 972 l 1003 969 b 899 767 932 933 899 871 "},"V":{"ha":999,"x_min":0,"x_max":0,"o":"m 826 786 b 846 869 838 813 846 840 b 774 969 846 913 819 949 l 774 972 l 1007 972 l 1007 969 b 876 796 954 939 917 883 l 507 -14 l 501 -14 l 107 817 b -6 969 65 904 46 939 l -6 972 l 372 972 l 372 969 b 311 893 332 949 311 926 b 333 813 311 868 319 843 l 590 256 l 826 786 "},"W":{"ha":1343,"x_min":0,"x_max":0,"o":"m 678 625 l 432 -14 l 425 -14 l 96 817 b -6 969 61 904 38 939 l -6 972 l 354 972 l 354 969 b 297 892 318 950 297 926 b 315 813 297 868 303 843 l 514 297 l 657 681 l 606 817 b 504 969 571 904 547 939 l 504 972 l 858 972 l 858 969 b 801 892 824 950 801 926 b 819 813 801 868 808 843 l 1000 292 l 1186 793 b 1197 856 1193 814 1197 836 b 1125 969 1197 903 1174 943 l 1125 972 l 1354 972 l 1354 969 b 1236 803 1307 938 1268 886 l 922 -14 l 917 -14 "},"X":{"ha":1014,"x_min":0,"x_max":0,"o":"m 235 0 l 0 0 l 0 3 b 168 158 67 36 114 86 l 414 478 l 179 817 b 38 969 125 896 86 933 l 38 972 l 404 972 l 404 969 b 372 910 383 951 372 935 b 407 828 372 882 389 856 l 567 597 l 733 817 b 764 894 751 842 764 868 b 717 969 764 922 750 949 l 717 972 l 950 972 l 950 969 b 781 814 882 936 836 886 l 589 565 l 872 156 b 1013 3 926 76 965 39 l 1013 0 l 646 0 l 646 3 b 678 63 668 21 678 38 b 643 144 678 90 663 117 l 436 444 l 222 165 b 189 79 201 136 189 107 b 235 3 190 50 204 24 "},"Y":{"ha":951,"x_min":0,"x_max":0,"o":"m 772 810 b 793 878 786 833 793 856 b 731 969 793 914 774 947 l 731 972 l 957 972 l 957 969 b 824 817 900 931 864 883 l 574 407 l 574 165 b 654 3 574 74 590 39 l 654 0 l 292 0 l 292 3 b 374 165 356 39 374 74 l 374 407 l 118 825 b -6 969 78 892 49 929 l -6 972 l 374 972 l 374 969 b 322 890 339 946 322 925 b 343 826 322 872 328 851 l 560 460 "},"Z":{"ha":943,"x_min":0,"x_max":0,"o":"m 38 0 l 38 3 l 633 936 l 382 936 b 72 692 221 936 158 838 l 69 692 l 117 983 b 201 972 135 975 164 972 l 886 972 l 886 969 l 299 36 l 564 36 b 897 306 732 36 789 111 l 900 306 l 857 0 "},"[":{"ha":471,"x_min":0,"x_max":0,"o":"m 108 1040 l 447 1040 l 447 1036 l 276 988 l 276 -117 l 447 -167 l 447 -171 l 108 -171 "},"\\":{"ha":485,"x_min":0,"x_max":0,"o":"m 485 -171 l 439 -171 l 28 1040 l 74 1040 "},"]":{"ha":471,"x_min":0,"x_max":0,"o":"m 363 -171 l 24 -171 l 24 -167 l 194 -117 l 194 988 l 24 1036 l 24 1040 l 363 1040 "},"^":{"ha":625,"x_min":0,"x_max":0,"o":"m 315 986 l 569 572 l 506 572 l 313 889 l 119 572 l 56 572 l 310 986 "},"_":{"ha":447,"x_min":0,"x_max":0,"o":"m 50 -86 l 396 -86 l 396 -157 l 50 -157 "},"`":{"ha":694,"x_min":0,"x_max":0,"o":"m 407 1040 b 485 765 413 946 435 853 l 478 765 b 204 1040 347 844 260 935 l 407 1040 "},"a":{"ha":760,"x_min":0,"x_max":0,"o":"m 782 50 b 631 -12 751 14 693 -12 b 471 111 532 -12 482 36 b 468 158 471 117 468 149 b 242 -10 449 64 358 -10 b 39 164 132 -10 39 46 b 361 379 39 317 194 349 l 467 399 l 467 513 b 339 671 467 596 432 671 b 224 563 260 671 224 622 b 289 482 224 511 249 482 b 313 486 297 482 304 483 b 192 411 293 436 249 411 b 71 522 124 411 71 454 b 343 697 71 622 182 697 b 667 457 553 697 667 628 b 664 176 667 357 664 269 b 747 44 664 90 682 44 b 782 53 758 44 772 47 m 394 358 b 239 192 286 336 239 285 b 333 72 239 113 275 72 b 464 239 407 72 463 140 l 467 374 "},"b":{"ha":865,"x_min":0,"x_max":0,"o":"m 500 -14 b 249 146 375 -14 283 49 b 78 -12 219 75 163 7 b 93 294 93 71 93 172 l 93 888 b 10 1038 93 975 75 1007 l 10 1040 l 293 1040 l 293 504 b 533 697 321 610 407 697 b 832 349 699 697 832 564 b 500 -14 832 124 683 -14 m 619 340 b 454 613 619 513 558 613 b 293 401 372 613 293 531 l 293 236 b 451 35 293 114 371 35 b 619 340 561 35 619 144 "},"c":{"ha":699,"x_min":0,"x_max":0,"o":"m 415 671 b 244 374 306 671 244 543 b 465 81 244 185 335 81 b 675 222 556 81 633 125 l 683 218 b 378 -14 650 71 531 -14 b 33 328 199 -14 33 111 b 414 697 33 560 204 697 b 669 521 564 697 669 625 b 549 403 669 444 613 403 b 442 478 486 403 444 439 b 468 472 450 474 461 472 b 536 561 514 472 536 510 b 415 671 536 625 499 671 "},"d":{"ha":874,"x_min":0,"x_max":0,"o":"m 411 69 b 572 276 493 69 572 150 l 572 413 b 410 632 572 547 492 632 b 247 335 304 632 247 524 b 411 69 247 167 307 69 m 572 888 b 489 1038 572 975 554 1007 l 489 1040 l 772 1040 l 772 151 b 847 3 772 67 785 38 l 847 0 l 572 0 l 572 178 b 333 -14 544 72 458 -14 b 33 335 168 -14 33 119 b 343 697 33 554 172 697 b 572 524 464 697 544 621 "},"e":{"ha":728,"x_min":0,"x_max":0,"o":"m 382 697 b 694 371 596 697 694 557 l 236 371 b 469 81 236 194 328 81 b 683 222 561 81 642 125 l 692 218 b 383 -14 657 71 539 -14 b 33 340 192 -14 33 115 b 382 697 33 556 193 697 m 497 400 b 381 671 497 550 481 671 b 238 400 299 671 243 564 "},"f":{"ha":456,"x_min":0,"x_max":0,"o":"m 106 647 l 19 647 l 19 660 l 106 690 l 106 747 b 408 1049 106 956 233 1049 b 621 914 529 1049 621 1006 b 511 813 621 854 574 813 b 428 844 475 813 444 824 b 488 936 463 854 488 879 b 408 1026 488 990 460 1026 b 306 858 329 1026 306 951 l 306 683 l 483 683 l 476 647 l 306 647 l 306 151 b 418 3 306 60 342 32 l 418 0 l 36 0 l 36 3 b 106 151 99 38 106 60 "},"g":{"ha":792,"x_min":0,"x_max":0,"o":"m 361 674 b 260 469 290 674 260 594 b 361 265 260 344 290 265 b 464 469 433 265 464 344 b 361 674 464 594 433 674 m 765 -57 b 346 -321 765 -232 568 -321 b 6 -162 188 -321 6 -281 b 190 -37 6 -94 75 -46 b 42 115 110 -24 42 28 b 190 276 42 197 113 254 b 63 469 107 317 63 388 b 361 697 63 599 169 697 b 583 625 456 697 533 671 b 719 735 611 671 650 735 b 826 640 788 735 826 697 b 704 538 826 563 760 538 l 704 540 b 724 589 718 553 724 568 b 663 649 724 622 704 649 b 594 614 633 649 611 632 b 661 469 638 576 661 526 b 361 242 661 340 554 242 b 211 267 301 242 253 250 b 146 199 176 254 146 232 b 229 142 146 161 175 142 l 499 142 b 765 -57 664 142 765 72 m 346 -296 b 618 -149 503 -296 618 -242 b 475 -42 618 -74 568 -42 l 275 -42 b 129 -157 186 -42 129 -79 b 346 -296 129 -247 225 -296 "},"h":{"ha":857,"x_min":0,"x_max":0,"o":"m 301 1040 l 301 497 b 543 697 336 624 425 697 b 763 456 685 697 763 600 l 763 151 b 833 3 763 60 769 38 l 833 0 l 492 0 l 492 3 b 563 151 556 38 563 60 l 563 456 b 449 597 563 533 531 597 b 301 383 363 597 301 521 l 301 151 b 372 3 301 60 308 38 l 372 0 l 31 0 l 31 3 b 101 151 94 38 101 60 l 101 888 b 18 1038 101 975 83 1007 l 18 1040 "},"i":{"ha":403,"x_min":0,"x_max":0,"o":"m 82 907 b 201 1022 82 972 133 1022 b 321 907 269 1022 321 972 b 201 792 321 842 269 792 b 82 907 133 792 82 842 m 306 151 b 376 3 306 60 314 38 l 376 0 l 36 0 l 36 3 b 106 151 99 38 106 60 l 106 529 b 28 681 106 618 93 646 l 28 683 l 306 683 "},"j":{"ha":375,"x_min":0,"x_max":0,"o":"m 69 907 b 188 1022 69 972 119 1022 b 308 907 257 1022 308 972 b 188 792 308 842 257 792 b 69 907 119 792 69 842 m -4 -321 b -221 -185 -125 -321 -221 -275 b -106 -87 -221 -126 -171 -87 b -19 -114 -71 -87 -37 -99 b -83 -204 -57 -124 -83 -153 b 0 -299 -83 -262 -56 -299 b 93 -132 68 -299 93 -240 l 93 529 b 15 681 93 618 81 646 l 15 683 l 293 683 l 293 -50 b -4 -321 293 -242 160 -321 "},"k":{"ha":822,"x_min":0,"x_max":0,"o":"m 333 389 b 438 432 374 389 399 394 l 557 553 b 594 624 583 578 594 601 b 549 681 594 649 578 669 l 549 683 l 814 683 l 814 681 b 617 565 725 656 675 621 l 513 458 l 697 156 b 853 3 740 86 788 32 l 853 0 l 544 0 b 508 99 544 28 531 63 l 372 326 b 322 360 358 351 346 360 l 301 360 l 301 151 b 372 3 301 60 308 38 l 372 0 l 31 0 l 31 3 b 101 151 94 38 101 60 l 101 888 b 18 1038 101 975 83 1007 l 18 1040 l 301 1040 l 301 389 "},"l":{"ha":399,"x_min":0,"x_max":0,"o":"m 301 151 b 372 3 301 60 308 38 l 372 0 l 31 0 l 31 3 b 101 151 94 38 101 60 l 101 888 b 18 1038 101 975 83 1007 l 18 1040 l 301 1040 "},"m":{"ha":1279,"x_min":0,"x_max":0,"o":"m 743 497 b 974 697 775 624 856 697 b 1183 456 1115 697 1183 600 l 1183 151 b 1254 3 1183 60 1192 38 l 1254 0 l 914 0 l 914 3 b 983 151 976 38 983 60 l 983 456 b 881 597 983 533 963 597 b 744 383 799 597 744 521 l 744 151 b 815 3 744 60 753 38 l 815 0 l 475 0 l 475 3 b 544 151 538 38 544 60 l 544 456 b 442 597 544 533 524 597 b 306 383 360 597 306 521 l 306 151 b 376 3 306 60 314 38 l 376 0 l 36 0 l 36 3 b 106 151 99 38 106 60 l 106 529 b 28 681 106 618 93 646 l 28 683 l 306 683 l 306 497 b 535 697 338 624 417 697 b 743 497 661 697 732 619 "},"n":{"ha":863,"x_min":0,"x_max":0,"o":"m 306 683 l 306 497 b 549 697 342 624 431 697 b 767 456 690 697 767 600 l 767 151 b 838 3 767 60 775 38 l 838 0 l 497 0 l 497 3 b 567 151 560 38 567 60 l 567 456 b 453 597 567 533 535 597 b 306 383 367 597 306 521 l 306 151 b 376 3 306 60 314 38 l 376 0 l 36 0 l 36 3 b 106 151 99 38 106 60 l 106 529 b 28 681 106 618 93 646 l 28 683 "},"o":{"ha":799,"x_min":0,"x_max":0,"o":"m 399 -14 b 33 342 194 -14 33 131 b 399 697 33 553 194 697 b 765 342 604 697 765 553 b 399 -14 765 131 604 -14 m 399 11 b 550 342 501 11 550 138 b 399 671 550 546 501 671 b 249 342 297 671 249 546 b 399 11 249 138 297 11 "},"p":{"ha":872,"x_min":0,"x_max":0,"o":"m 461 613 b 300 407 379 613 300 532 l 300 271 b 463 51 300 135 381 51 b 625 349 568 51 625 160 b 461 613 625 515 565 613 m 300 -156 b 369 -304 300 -247 307 -269 l 369 -307 l 29 -307 l 29 -304 b 100 -156 92 -269 100 -247 l 100 529 b 21 681 100 618 86 646 l 21 683 l 300 683 l 300 504 b 539 697 328 610 414 697 b 839 349 704 697 839 564 b 529 -14 839 129 700 -14 b 300 160 408 -14 328 61 "},"q":{"ha":856,"x_min":0,"x_max":0,"o":"m 772 -156 b 843 -304 772 -247 781 -269 l 843 -307 l 503 -307 l 503 -304 b 572 -156 565 -269 572 -247 l 572 178 b 333 -14 544 72 458 -14 b 33 335 168 -14 33 114 b 365 697 33 558 188 697 b 621 538 488 697 585 632 b 786 694 649 614 717 675 l 789 694 b 772 388 772 611 772 510 m 572 440 b 414 650 572 571 492 650 b 247 343 304 650 247 539 b 411 69 247 169 307 69 b 572 282 493 69 572 153 "},"r":{"ha":678,"x_min":0,"x_max":0,"o":"m 494 442 b 538 507 521 451 538 476 b 456 581 538 553 508 581 b 306 344 376 581 306 483 l 306 151 b 418 3 306 60 342 32 l 418 0 l 36 0 l 36 3 b 106 151 99 38 106 60 l 106 529 b 28 681 106 618 93 646 l 28 683 l 306 683 l 306 456 b 528 697 339 583 404 697 b 669 565 613 697 669 642 b 543 426 669 474 606 426 b 494 442 521 426 503 433 "},"s":{"ha":650,"x_min":0,"x_max":0,"o":"m 296 671 b 182 572 224 671 182 629 b 351 446 182 507 218 483 b 604 207 533 394 604 332 b 335 -14 604 67 486 -14 b 129 18 239 -14 176 18 b 63 -14 97 18 81 3 l 47 243 l 50 243 b 335 11 121 96 210 11 b 465 126 408 11 465 51 b 288 254 465 201 399 224 b 54 492 122 301 54 369 b 296 697 54 618 163 697 b 481 663 382 697 432 663 b 556 697 510 663 531 676 l 556 471 l 553 471 b 296 671 496 588 399 671 "},"t":{"ha":539,"x_min":0,"x_max":0,"o":"m 521 238 b 296 -14 506 104 447 -14 b 92 208 175 -14 90 58 l 93 647 l 10 647 l 10 660 b 278 924 142 688 240 785 l 292 924 l 292 683 l 503 683 l 496 647 l 292 647 l 292 207 b 379 86 292 128 321 86 b 507 242 444 86 489 142 "},"u":{"ha":844,"x_min":0,"x_max":0,"o":"m 549 529 b 469 681 549 618 535 646 l 469 683 l 749 683 l 749 143 b 831 3 749 54 769 33 l 831 0 l 549 0 l 549 190 b 304 -14 515 60 424 -14 b 88 228 165 -14 88 83 l 88 529 b 10 681 88 618 75 646 l 10 683 l 288 683 l 288 229 b 400 88 288 156 321 88 b 549 300 483 88 549 163 "},"v":{"ha":738,"x_min":0,"x_max":0,"o":"m 593 524 b 611 596 606 549 611 574 b 549 681 611 633 593 664 l 549 683 l 747 683 l 747 681 b 639 529 700 644 682 618 l 372 -14 l 369 -14 l 94 533 b -10 681 50 622 36 643 l -10 683 l 321 683 l 321 681 b 281 618 289 663 281 646 b 303 539 281 596 290 565 l 451 225 "},"w":{"ha":1072,"x_min":0,"x_max":0,"o":"m 550 443 l 342 -14 l 339 -14 l 92 533 b -10 681 53 621 36 643 l -10 683 l 307 683 l 307 681 b 272 618 279 663 272 647 b 293 538 272 594 282 565 l 424 242 l 533 485 l 513 533 b 411 681 472 622 457 643 l 411 683 l 728 683 l 728 681 b 686 617 696 663 686 644 b 707 536 686 596 697 567 l 817 247 l 932 529 b 944 590 940 550 944 571 b 879 681 944 631 924 664 l 879 683 l 1082 683 l 1082 681 b 975 531 1035 643 1015 622 l 743 -14 l 740 -14 "},"x":{"ha":761,"x_min":0,"x_max":0,"o":"m 193 0 l -11 0 l -11 3 b 164 165 61 40 106 89 l 290 333 l 172 518 b 15 681 119 600 85 635 l 15 683 l 349 683 l 349 681 b 329 639 335 669 329 657 b 379 531 328 608 353 572 l 447 425 l 518 531 b 560 625 542 563 560 597 b 522 681 560 650 546 669 l 522 683 l 724 683 l 724 681 b 551 517 651 643 607 593 l 465 397 l 613 165 b 772 3 668 82 701 47 l 772 0 l 438 0 l 438 3 b 458 43 451 14 458 26 b 408 151 457 74 435 111 l 310 304 l 199 151 b 156 61 176 122 156 90 b 193 3 156 36 168 15 "},"y":{"ha":736,"x_min":0,"x_max":0,"o":"m 371 -24 l 94 533 b -10 681 50 622 36 642 l -10 683 l 321 683 l 321 681 b 281 618 289 663 281 646 b 303 536 281 596 289 565 l 461 203 l 596 524 b 610 590 606 547 610 569 b 546 681 610 632 588 664 l 546 683 l 746 683 l 746 681 b 638 524 697 644 676 615 l 354 -143 b 156 -321 303 -262 246 -321 b 18 -200 76 -321 18 -276 b 128 -89 18 -129 68 -89 b 172 -97 144 -89 157 -92 b 132 -162 144 -110 132 -131 b 207 -236 132 -206 163 -236 b 329 -118 260 -236 293 -199 "},"z":{"ha":717,"x_min":0,"x_max":0,"o":"m 307 653 b 54 453 194 653 147 592 l 51 453 l 71 694 b 156 683 90 688 119 683 l 671 683 l 671 681 l 260 29 l 379 31 b 681 251 522 31 571 89 l 683 251 l 643 0 l 25 0 l 25 3 l 439 653 "},"{":{"ha":518,"x_min":0,"x_max":0,"o":"m 15 439 b 178 640 104 442 178 492 b 157 832 178 700 157 760 b 431 1040 157 958 261 1040 b 501 1035 457 1040 479 1039 l 501 1029 b 326 842 390 1029 326 957 b 350 632 326 771 350 694 b 115 435 350 486 189 442 b 350 238 189 428 350 383 b 326 28 350 175 326 99 b 501 -160 326 -87 390 -160 l 501 -165 b 431 -171 479 -169 457 -171 b 157 38 261 -171 157 -89 b 178 229 157 110 178 169 b 15 431 178 378 104 428 "},"|":{"ha":274,"x_min":0,"x_max":0,"o":"m 117 1040 l 157 1040 l 157 -171 l 117 -171 "},"}":{"ha":518,"x_min":0,"x_max":0,"o":"m 503 431 b 340 229 414 428 340 378 b 361 38 340 169 361 110 b 88 -171 361 -89 257 -171 b 17 -165 61 -171 39 -169 l 17 -160 b 192 28 128 -160 192 -87 b 168 238 192 99 168 175 b 403 435 168 383 329 428 b 168 632 329 442 168 486 b 192 842 168 694 192 771 b 17 1029 192 957 128 1029 l 17 1035 b 88 1040 39 1039 61 1040 b 361 832 257 1040 361 958 b 340 640 361 760 340 700 b 503 439 340 492 414 442 "},"~":{"ha":697,"x_min":0,"x_max":0,"o":"m 64 338 b 244 549 83 468 151 549 b 493 481 343 549 403 481 b 631 558 551 481 601 506 l 633 558 b 453 347 614 428 544 347 b 204 414 354 347 294 414 b 67 338 146 414 94 390 "}," ":{"ha":278,"x_min":0,"x_max":0,"o":""},"¡":{"ha":399,"x_min":0,"x_max":0,"o":"m 200 776 b 321 654 268 776 321 722 b 200 532 321 586 268 532 b 78 654 132 532 78 586 b 200 776 78 722 132 776 m 68 -207 l 197 447 l 203 447 l 331 -207 "},"¢":{"ha":722,"x_min":0,"x_max":0,"o":"m 243 374 b 374 101 243 235 293 142 l 419 671 b 243 374 304 661 243 536 m 353 -158 l 364 -14 b 42 328 189 -4 42 118 b 421 697 42 560 207 697 l 432 828 l 457 828 l 446 697 b 676 524 581 690 676 622 b 568 413 676 451 625 413 b 465 483 517 413 481 440 b 497 476 476 478 488 476 b 560 561 538 476 560 513 b 444 671 560 618 524 667 l 397 92 b 469 81 419 85 444 81 b 683 222 561 81 642 125 l 692 218 b 389 -14 657 71 539 -14 l 378 -158 "},"£":{"ha":906,"x_min":0,"x_max":0,"o":"m 675 -35 b 357 114 533 -35 450 49 b 140 -14 299 29 221 -14 b 13 97 65 -14 13 31 b 150 218 13 169 68 218 b 288 190 192 218 238 207 b 293 271 290 215 293 242 b 265 472 293 340 279 406 l 113 472 l 113 500 l 260 500 b 238 674 247 557 238 614 b 593 986 238 871 385 986 b 847 806 747 986 847 917 b 725 685 847 729 790 685 b 607 739 674 685 626 707 b 710 844 665 738 710 774 b 593 964 710 915 672 964 b 464 771 504 964 464 875 l 464 535 l 464 500 l 660 500 l 660 472 l 463 472 b 385 158 456 342 426 236 b 607 113 457 135 532 113 b 778 231 731 113 778 157 b 758 292 778 249 774 271 b 874 138 829 267 874 210 b 675 -35 874 26 782 -35 m 136 15 b 281 160 207 15 258 69 b 150 190 242 178 200 190 b 47 97 86 190 47 153 b 136 15 47 47 85 15 "},"¥":{"ha":901,"x_min":0,"x_max":0,"o":"m 631 0 l 271 0 l 271 3 b 351 165 333 39 351 74 l 351 342 l 108 342 l 108 371 l 351 371 l 351 407 l 315 472 l 108 472 l 108 501 l 300 501 l 124 825 b 0 969 88 893 54 929 l 0 972 l 379 972 l 379 969 b 328 892 344 946 328 925 b 347 825 328 872 335 850 l 538 458 l 729 817 b 747 885 742 839 747 863 b 688 969 746 919 728 950 l 688 972 l 901 972 l 901 969 b 775 821 847 931 814 890 l 603 501 l 793 501 l 793 472 l 586 472 l 551 407 l 551 371 l 793 371 l 793 342 l 551 342 l 551 165 b 631 3 551 74 568 39 "},"§":{"ha":775,"x_min":0,"x_max":0,"o":"m 481 185 b 599 63 524 149 569 107 b 618 144 611 83 618 114 b 532 293 618 203 596 240 l 296 489 b 178 611 251 525 207 567 b 157 529 164 590 157 560 b 243 381 157 471 179 433 m 374 -312 b 129 -158 235 -312 129 -249 b 226 -57 129 -94 172 -57 b 308 -85 261 -57 294 -71 b 258 -171 279 -94 258 -119 b 374 -290 258 -244 303 -290 b 507 -153 461 -290 507 -231 b 381 43 507 -64 468 -29 l 206 186 b 63 418 114 263 63 329 b 169 624 63 504 115 581 b 139 749 150 657 139 696 b 403 986 139 882 253 986 b 646 832 540 986 646 922 b 549 731 646 768 604 731 b 467 758 515 731 482 744 b 517 844 497 768 517 793 b 403 964 517 918 472 964 b 269 826 315 964 269 904 b 394 631 269 738 308 703 l 569 488 b 713 256 663 411 713 344 b 607 50 713 169 661 93 b 636 -75 625 17 636 -22 b 374 -312 636 -208 524 -312 "},"¨":{"ha":694,"x_min":0,"x_max":0,"o":"m 208 783 b 103 890 149 783 103 832 b 208 999 103 949 149 999 b 315 890 268 999 315 949 b 208 783 315 832 268 783 m 485 783 b 378 890 426 783 378 832 b 485 999 378 949 426 999 b 592 890 544 999 592 949 b 485 783 592 832 544 783 "},"©":{"ha":1125,"x_min":0,"x_max":0,"o":"m 1063 486 b 563 -14 1063 196 839 -14 b 63 486 286 -14 63 196 b 563 986 63 776 286 986 b 1063 486 839 986 1063 776 m 1035 486 b 563 958 1035 760 824 958 b 90 486 301 958 90 760 b 563 14 90 213 301 14 b 1035 486 824 14 1035 213 m 599 761 b 439 508 499 761 439 650 b 639 263 439 347 531 263 b 818 371 714 263 776 288 l 822 369 b 578 179 793 258 706 179 b 281 483 406 179 281 301 b 586 790 281 665 414 790 b 743 760 664 790 704 760 b 797 790 765 760 782 774 l 799 594 l 796 594 b 599 761 753 685 689 761 "},"ª":{"ha":586,"x_min":0,"x_max":0,"o":"m 571 539 b 463 496 549 514 507 496 b 347 582 392 496 356 531 b 346 614 347 586 346 608 b 192 497 332 549 272 497 b 50 618 115 497 50 536 b 274 768 50 724 158 746 l 344 781 l 344 854 b 258 963 344 911 322 963 b 181 893 207 963 181 935 b 226 836 181 858 197 836 b 243 839 232 836 238 838 b 158 786 231 804 199 786 b 71 865 110 786 71 817 b 261 986 71 938 149 986 b 490 821 406 986 490 938 b 488 628 490 751 488 692 b 546 539 488 568 500 539 b 571 546 553 539 563 542 m 299 750 b 194 639 226 735 194 699 b 258 563 194 589 219 563 b 343 671 304 563 342 606 l 344 758 m 89 403 l 500 403 l 500 374 l 89 374 "},"«":{"ha":671,"x_min":0,"x_max":0,"o":"m 22 340 b 375 610 139 401 276 499 l 381 610 b 226 339 336 497 276 404 b 381 68 276 274 336 181 l 375 68 b 22 338 276 179 139 276 m 286 340 b 638 610 401 401 539 499 l 643 610 b 489 339 599 497 540 404 b 643 68 540 274 599 181 l 638 68 b 286 338 539 179 401 276 "},"®":{"ha":668,"x_min":0,"x_max":0,"o":"m 606 714 b 335 443 606 557 485 443 b 63 714 183 443 63 557 b 335 986 63 872 183 986 b 606 714 485 986 606 872 m 581 714 b 335 963 581 860 472 963 b 88 714 197 963 88 860 b 335 467 88 569 197 467 b 581 714 472 467 581 569 m 290 721 l 319 721 b 388 786 361 721 388 738 b 319 856 388 832 363 856 l 290 856 m 350 871 b 469 788 415 871 469 847 b 364 711 469 733 415 711 b 449 653 411 708 438 688 l 461 617 b 503 567 472 585 481 578 l 503 561 l 404 561 b 381 610 394 572 386 589 l 365 658 b 314 707 357 686 344 707 l 290 707 l 290 617 b 314 567 290 588 293 578 l 314 561 l 186 561 l 186 567 b 211 617 207 578 211 588 l 211 815 b 186 865 211 844 207 854 l 186 871 "},"¯":{"ha":694,"x_min":0,"x_max":0,"o":"m 147 831 l 147 882 l 558 882 l 558 831 "},"°":{"ha":378,"x_min":0,"x_max":0,"o":"m 342 832 b 189 678 342 747 274 678 b 36 832 104 678 36 747 b 189 985 36 917 104 985 b 342 832 274 985 342 917 m 307 832 b 189 950 307 897 254 950 b 72 832 124 950 72 897 b 189 713 72 767 124 713 b 307 832 254 713 307 767 "},"±":{"ha":665,"x_min":0,"x_max":0,"o":"m 351 501 l 351 310 l 313 310 l 313 501 l 61 501 l 61 540 l 313 540 l 313 731 l 351 731 l 351 540 l 604 540 l 604 501 m 61 221 l 604 221 l 604 183 l 61 183 "},"²":{"ha":383,"x_min":0,"x_max":0,"o":"m 171 957 b 110 896 132 957 110 929 b 154 836 110 857 131 836 b 179 846 167 836 172 839 l 183 846 b 111 794 171 810 143 794 b 35 872 68 794 35 825 b 171 978 35 939 93 978 b 338 860 260 978 338 946 b 125 656 338 774 260 721 l 228 656 b 339 704 292 657 311 663 l 344 704 l 329 569 l 22 569 l 22 572 b 228 885 189 739 228 794 b 171 957 228 922 213 957 "},"³":{"ha":383,"x_min":0,"x_max":0,"o":"m 178 585 b 236 679 215 585 236 628 b 158 779 236 746 211 779 l 158 790 b 225 885 210 793 225 829 b 179 958 225 926 211 958 b 131 903 149 958 131 933 b 161 853 131 874 142 853 b 174 856 167 853 169 854 l 176 854 b 117 826 168 839 149 826 b 50 889 76 826 50 851 b 179 978 50 947 108 978 b 335 879 267 978 335 943 b 224 789 335 822 286 794 b 350 681 294 783 350 749 b 178 564 350 603 274 564 b 28 663 99 564 28 596 b 104 733 28 708 61 733 b 167 703 139 733 158 719 l 163 701 b 151 706 160 704 156 706 b 119 651 131 706 119 683 b 178 585 119 613 143 585 "},"´":{"ha":694,"x_min":0,"x_max":0,"o":"m 485 1040 b 210 765 429 935 340 844 l 204 765 b 281 1040 253 853 275 946 "},"¶":{"ha":718,"x_min":0,"x_max":0,"o":"m 588 -71 b 364 -326 588 -210 506 -326 b 151 -162 257 -326 151 -274 b 254 -58 151 -97 203 -58 b 343 -118 299 -58 332 -79 l 342 -118 b 304 -107 332 -111 319 -107 b 251 -174 274 -107 251 -133 b 378 -290 251 -243 299 -290 b 553 -71 483 -290 553 -196 l 553 940 l 499 940 l 499 167 l 463 167 l 463 383 b 53 678 243 383 53 488 b 463 972 53 868 243 972 l 671 972 l 671 969 b 588 825 606 933 588 917 "},"·":{"ha":344,"x_min":0,"x_max":0,"o":"m 293 385 b 172 263 293 317 240 263 b 50 385 103 263 50 317 b 172 507 50 453 103 507 b 293 385 240 507 293 453 "},"¸":{"ha":694,"x_min":0,"x_max":0,"o":"m 199 -203 b 301 -262 224 -243 260 -262 b 375 -186 346 -262 375 -233 b 263 -106 375 -126 332 -108 l 329 11 l 354 11 l 306 -78 b 513 -192 424 -74 513 -111 b 353 -310 513 -268 438 -310 b 188 -214 268 -310 207 -264 "},"¹":{"ha":283,"x_min":0,"x_max":0,"o":"m 85 917 b 17 964 85 946 71 953 l 17 972 l 200 972 l 200 625 b 267 578 200 596 213 589 l 267 569 l 18 569 l 18 578 b 85 625 72 589 85 596 l 85 917 "},"º":{"ha":589,"x_min":0,"x_max":0,"o":"m 294 494 b 38 740 153 494 38 594 b 294 986 38 886 153 986 b 551 740 436 986 551 886 b 294 494 551 594 436 494 m 294 519 b 396 740 368 519 396 600 b 294 961 396 881 368 961 b 193 740 221 961 193 881 b 294 519 193 600 221 519 m 90 403 l 500 403 l 500 374 l 90 374 "},"»":{"ha":671,"x_min":0,"x_max":0,"o":"m 396 338 b 44 68 279 276 142 179 l 39 68 b 192 339 83 181 142 274 b 39 610 142 404 83 497 l 44 610 b 396 340 142 499 279 401 m 658 338 b 307 68 543 276 404 179 l 301 68 b 454 339 346 181 404 274 b 301 610 404 404 346 497 l 307 610 b 658 340 404 499 543 401 "},"¼":{"ha":582,"x_min":0,"x_max":0,"o":"m 231 917 b 163 964 231 946 217 953 l 163 972 l 346 972 l 346 625 b 413 578 346 596 358 589 l 413 569 l 164 569 l 164 578 b 231 625 218 589 231 596 l 231 917 m 535 497 l 535 475 l 28 475 l 28 497 m 268 338 l 128 131 l 268 131 m 268 108 l 88 108 l 88 111 l 288 404 l 382 404 l 382 131 l 410 131 b 465 167 446 131 449 138 l 471 167 l 471 72 l 465 72 b 410 108 449 101 446 108 l 382 108 l 382 71 b 414 6 382 33 389 24 l 414 0 l 236 0 l 236 6 b 268 71 261 24 268 33 "},"½":{"ha":563,"x_min":0,"x_max":0,"o":"m 231 917 b 163 964 231 946 217 953 l 163 972 l 346 972 l 346 625 b 413 578 346 596 358 589 l 413 569 l 164 569 l 164 578 b 231 625 218 589 231 596 l 231 917 m 535 497 l 535 475 l 28 475 l 28 497 m 272 388 b 211 326 233 388 211 360 b 256 267 211 288 232 267 b 281 276 268 267 274 269 l 285 276 b 213 225 272 240 244 225 b 136 303 169 225 136 256 b 272 408 136 369 194 408 b 439 290 361 408 439 376 b 226 86 439 204 361 151 l 329 86 b 440 135 393 88 413 93 l 446 135 l 431 0 l 124 0 l 124 3 b 329 315 290 169 329 225 b 272 388 329 353 314 388 "},"¾":{"ha":582,"x_min":0,"x_max":0,"o":"m 279 585 b 338 679 317 585 338 628 b 260 779 338 746 313 779 l 260 790 b 326 885 311 793 326 829 b 281 958 326 926 313 958 b 232 903 250 958 232 933 b 263 853 232 874 243 853 b 275 856 268 853 271 854 l 278 854 b 218 826 269 839 250 826 b 151 889 178 826 151 851 b 281 978 151 947 210 978 b 436 879 368 978 436 943 b 325 789 436 822 388 794 b 451 681 396 783 451 749 b 279 564 451 603 375 564 b 129 663 200 564 129 596 b 206 733 129 708 163 733 b 268 703 240 733 260 719 l 264 701 b 253 706 261 704 257 706 b 221 651 232 706 221 683 b 279 585 221 613 244 585 m 535 497 l 535 475 l 28 475 l 28 497 m 268 338 l 128 131 l 268 131 m 268 108 l 88 108 l 88 111 l 288 404 l 382 404 l 382 131 l 410 131 b 465 167 446 131 449 138 l 471 167 l 471 72 l 465 72 b 410 108 449 101 446 108 l 382 108 l 382 71 b 414 6 382 33 389 24 l 414 0 l 236 0 l 236 6 b 268 71 261 24 268 33 "},"¿":{"ha":736,"x_min":0,"x_max":0,"o":"m 390 532 b 269 654 322 532 269 586 b 390 776 269 722 322 776 b 513 654 458 776 513 722 b 390 532 513 586 458 532 m 386 -194 b 554 -42 488 -194 554 -125 b 461 67 554 21 518 67 b 415 54 450 67 429 63 l 413 56 b 550 150 433 114 481 150 b 700 -1 632 150 700 93 b 386 -221 700 -131 569 -221 b 36 51 174 -221 36 -107 b 378 381 36 226 199 346 l 378 456 l 406 456 l 406 210 b 206 -17 281 176 206 106 b 386 -194 206 -110 268 -194 "},"À":{"ha":1010,"x_min":0,"x_max":0,"o":"m 506 1285 b 578 1029 513 1196 528 1110 l 571 1029 b 296 1285 440 1101 351 1185 l 506 1285 m 249 340 l 585 340 l 413 715 m 232 0 l -1 0 l -1 3 b 129 176 51 33 89 89 l 499 986 l 504 986 l 897 156 b 1010 3 939 68 960 33 l 1010 0 l 629 0 l 629 3 b 690 79 669 24 690 46 b 668 160 690 104 682 129 l 603 301 l 231 301 l 181 186 b 160 103 168 160 160 132 b 232 3 160 60 186 24 "},"Á":{"ha":1010,"x_min":0,"x_max":0,"o":"m 683 1285 b 407 1029 626 1185 539 1101 l 401 1029 b 474 1285 450 1110 467 1196 m 249 340 l 585 340 l 413 715 m 232 0 l -1 0 l -1 3 b 129 176 51 33 89 89 l 499 986 l 504 986 l 897 156 b 1010 3 939 68 960 33 l 1010 0 l 629 0 l 629 3 b 690 79 669 24 690 46 b 668 160 690 104 682 129 l 603 301 l 231 301 l 181 186 b 160 103 168 160 160 132 b 232 3 160 60 186 24 "},"Â":{"ha":1010,"x_min":0,"x_max":0,"o":"m 721 1018 b 499 1133 636 1049 554 1092 b 276 1018 443 1092 361 1049 l 263 1018 b 496 1318 351 1103 453 1226 l 501 1318 b 735 1018 544 1226 646 1103 l 721 1018 m 249 340 l 585 340 l 413 715 m 232 0 l -1 0 l -1 3 b 129 176 51 33 89 89 l 499 986 l 504 986 l 897 156 b 1010 3 939 68 960 33 l 1010 0 l 629 0 l 629 3 b 690 79 669 24 690 46 b 668 160 690 104 682 129 l 603 301 l 231 301 l 181 186 b 160 103 168 160 160 132 b 232 3 160 60 186 24 "},"Ã":{"ha":1010,"x_min":0,"x_max":0,"o":"m 765 1279 b 604 1060 744 1143 686 1060 b 383 1138 518 1060 456 1138 b 264 1050 329 1138 289 1107 l 254 1050 b 415 1269 275 1186 333 1269 b 636 1192 501 1269 564 1192 b 756 1279 690 1192 731 1222 l 765 1279 m 249 340 l 585 340 l 413 715 m 232 0 l -1 0 l -1 3 b 129 176 51 33 89 89 l 499 986 l 504 986 l 897 156 b 1010 3 939 68 960 33 l 1010 0 l 629 0 l 629 3 b 690 79 669 24 690 46 b 668 160 690 104 682 129 l 603 301 l 231 301 l 181 186 b 160 103 168 160 160 132 b 232 3 160 60 186 24 "},"Ä":{"ha":1010,"x_min":0,"x_max":0,"o":"m 360 1049 b 254 1156 300 1049 254 1097 b 360 1264 254 1214 300 1264 b 467 1156 419 1264 467 1214 b 360 1049 467 1097 419 1049 m 636 1049 b 529 1156 578 1049 529 1097 b 636 1264 529 1214 578 1264 b 743 1156 696 1264 743 1214 b 636 1049 743 1097 696 1049 m 249 340 l 585 340 l 413 715 m 232 0 l -1 0 l -1 3 b 129 176 51 33 89 89 l 499 986 l 504 986 l 897 156 b 1010 3 939 68 960 33 l 1010 0 l 629 0 l 629 3 b 690 79 669 24 690 46 b 668 160 690 104 682 129 l 603 301 l 231 301 l 181 186 b 160 103 168 160 160 132 b 232 3 160 60 186 24 "},"Å":{"ha":1010,"x_min":0,"x_max":0,"o":"m 499 1318 b 643 1176 576 1318 643 1253 b 499 1033 643 1097 576 1033 b 354 1176 421 1033 354 1097 b 499 1318 354 1253 421 1318 m 499 1072 b 604 1176 556 1072 604 1118 b 499 1279 604 1232 556 1279 b 394 1176 442 1279 394 1232 b 499 1072 394 1118 442 1072 m 249 340 l 585 340 l 413 715 m 232 0 l -1 0 l -1 3 b 129 176 51 33 89 89 l 499 986 l 504 986 l 897 156 b 1010 3 939 68 960 33 l 1010 0 l 629 0 l 629 3 b 690 79 669 24 690 46 b 668 160 690 104 682 129 l 603 301 l 231 301 l 181 186 b 160 103 168 160 160 132 b 232 3 160 60 186 24 "},"Æ":{"ha":1482,"x_min":0,"x_max":0,"o":"m 351 407 l 697 407 l 697 931 m 233 0 l 0 0 l 0 3 b 133 154 51 33 81 75 l 593 847 b 607 892 603 864 607 878 b 533 969 607 921 583 940 l 533 972 l 1282 972 b 1367 983 1319 972 1349 975 l 1414 725 l 1411 725 b 1093 936 1335 861 1260 936 l 907 936 l 907 518 l 1060 518 b 1258 675 1172 518 1214 546 l 1261 675 l 1261 335 l 1258 335 b 1060 479 1214 463 1172 479 l 907 479 l 907 36 l 1118 36 b 1449 272 1290 36 1371 131 l 1451 272 l 1407 0 l 621 0 l 621 3 b 697 172 685 39 697 81 l 697 368 l 325 368 l 199 176 b 168 89 178 144 168 117 b 233 3 168 50 189 21 "},"Ç":{"ha":949,"x_min":0,"x_max":0,"o":"m 507 -310 b 342 -214 422 -310 361 -264 l 353 -203 b 456 -262 378 -243 414 -262 b 529 -186 500 -262 529 -233 b 417 -106 529 -126 486 -108 l 471 -12 b 42 478 222 10 42 200 b 554 986 42 775 272 986 b 790 942 675 986 746 942 b 881 986 832 942 856 963 l 890 665 l 888 665 b 571 954 824 835 715 954 b 269 515 378 954 269 761 b 607 93 269 247 424 93 b 908 286 740 93 843 142 l 917 283 b 518 -14 875 101 731 -14 l 494 -14 l 460 -78 b 667 -192 578 -74 667 -111 b 507 -310 667 -268 592 -310 "},"È":{"ha":908,"x_min":0,"x_max":0,"o":"m 478 1285 b 550 1029 485 1196 500 1110 l 543 1029 b 268 1285 413 1101 324 1185 l 478 1285 m 707 972 b 793 983 746 972 775 975 l 840 725 l 838 725 b 519 936 760 861 686 936 l 332 936 l 332 518 l 486 518 b 685 675 599 518 639 546 l 688 675 l 688 335 l 685 335 b 486 479 639 463 599 479 l 332 479 l 332 36 l 543 36 b 875 272 717 36 797 131 l 878 272 l 833 0 l 46 0 l 46 3 b 124 172 110 39 124 81 l 124 800 b 46 969 124 892 110 933 l 46 972 "},"É":{"ha":908,"x_min":0,"x_max":0,"o":"m 656 1285 b 379 1029 599 1185 511 1101 l 374 1029 b 446 1285 422 1110 439 1196 m 707 972 b 793 983 746 972 775 975 l 840 725 l 838 725 b 519 936 760 861 686 936 l 332 936 l 332 518 l 486 518 b 685 675 599 518 639 546 l 688 675 l 688 335 l 685 335 b 486 479 639 463 599 479 l 332 479 l 332 36 l 543 36 b 875 272 717 36 797 131 l 878 272 l 833 0 l 46 0 l 46 3 b 124 172 110 39 124 81 l 124 800 b 46 969 124 892 110 933 l 46 972 "},"Ê":{"ha":908,"x_min":0,"x_max":0,"o":"m 686 1018 b 464 1133 601 1049 519 1092 b 242 1018 408 1092 326 1049 l 228 1018 b 461 1318 317 1103 418 1226 l 467 1318 b 700 1018 510 1226 611 1103 l 686 1018 m 707 972 b 793 983 746 972 775 975 l 840 725 l 838 725 b 519 936 760 861 686 936 l 332 936 l 332 518 l 486 518 b 685 675 599 518 639 546 l 688 675 l 688 335 l 685 335 b 486 479 639 463 599 479 l 332 479 l 332 36 l 543 36 b 875 272 717 36 797 131 l 878 272 l 833 0 l 46 0 l 46 3 b 124 172 110 39 124 81 l 124 800 b 46 969 124 892 110 933 l 46 972 "},"Ë":{"ha":908,"x_min":0,"x_max":0,"o":"m 326 1049 b 221 1156 267 1049 221 1097 b 326 1264 221 1214 267 1264 b 433 1156 386 1264 433 1214 b 326 1049 433 1097 386 1049 m 603 1049 b 496 1156 544 1049 496 1097 b 603 1264 496 1214 544 1264 b 710 1156 663 1264 710 1214 b 603 1049 710 1097 663 1049 m 707 972 b 793 983 746 972 775 975 l 840 725 l 838 725 b 519 936 760 861 686 936 l 332 936 l 332 518 l 486 518 b 685 675 599 518 639 546 l 688 675 l 688 335 l 685 335 b 486 479 639 463 599 479 l 332 479 l 332 36 l 543 36 b 875 272 717 36 797 131 l 878 272 l 833 0 l 46 0 l 46 3 b 124 172 110 39 124 81 l 124 800 b 46 969 124 892 110 933 l 46 972 "},"Ì":{"ha":456,"x_min":0,"x_max":0,"o":"m 235 1285 b 307 1029 242 1196 257 1110 l 300 1029 b 25 1285 169 1101 81 1185 l 235 1285 m 332 172 b 410 3 332 81 346 39 l 410 0 l 46 0 l 46 3 b 124 172 110 39 124 81 l 124 800 b 46 969 124 892 110 933 l 46 972 l 410 972 l 410 969 b 332 800 346 933 332 892 l 332 172 "},"Í":{"ha":456,"x_min":0,"x_max":0,"o":"m 414 1285 b 138 1029 357 1185 269 1101 l 132 1029 b 204 1285 181 1110 197 1196 m 332 172 b 410 3 332 81 346 39 l 410 0 l 46 0 l 46 3 b 124 172 110 39 124 81 l 124 800 b 46 969 124 892 110 933 l 46 972 l 410 972 l 410 969 b 332 800 346 933 332 892 l 332 172 "},"Î":{"ha":456,"x_min":0,"x_max":0,"o":"m 450 1018 b 228 1133 365 1049 283 1092 b 6 1018 172 1092 90 1049 l -8 1018 b 225 1318 81 1103 182 1226 l 231 1318 b 464 1018 274 1226 375 1103 l 450 1018 m 332 172 b 410 3 332 81 346 39 l 410 0 l 46 0 l 46 3 b 124 172 110 39 124 81 l 124 800 b 46 969 124 892 110 933 l 46 972 l 410 972 l 410 969 b 332 800 346 933 332 892 l 332 172 "},"Ï":{"ha":456,"x_min":0,"x_max":0,"o":"m 89 1049 b -17 1156 29 1049 -17 1097 b 89 1264 -17 1214 29 1264 b 196 1156 149 1264 196 1214 b 89 1049 196 1097 149 1049 m 365 1049 b 258 1156 307 1049 258 1097 b 365 1264 258 1214 307 1264 b 472 1156 425 1264 472 1214 b 365 1049 472 1097 425 1049 m 332 172 b 410 3 332 81 346 39 l 410 0 l 46 0 l 46 3 b 124 172 110 39 124 81 l 124 800 b 46 969 124 892 110 933 l 46 972 l 410 972 l 410 969 b 332 800 346 933 332 892 l 332 172 "},"Ð":{"ha":1056,"x_min":0,"x_max":0,"o":"m 46 0 l 46 3 b 124 172 110 39 124 81 l 124 479 l 46 479 l 46 519 l 124 519 l 124 800 b 46 969 124 892 110 933 l 46 972 l 432 972 b 1014 493 772 972 1014 814 b 451 0 1014 157 767 0 m 432 36 b 789 493 644 36 789 182 b 419 936 789 776 646 936 l 332 936 l 332 519 l 508 519 l 508 479 l 332 479 l 332 36 "},"Ñ":{"ha":1011,"x_min":0,"x_max":0,"o":"m 779 1279 b 618 1060 758 1143 700 1060 b 397 1138 532 1060 469 1138 b 278 1050 343 1138 303 1107 l 268 1050 b 429 1269 289 1186 347 1269 b 650 1192 515 1269 578 1192 b 769 1279 704 1192 744 1222 l 779 1279 m 999 969 b 894 767 928 933 894 871 l 894 -7 l 856 -7 l 165 856 l 165 211 b 276 3 165 101 200 36 l 276 0 l 19 0 l 19 3 b 124 206 89 39 124 101 l 124 800 b 46 969 124 892 110 933 l 46 972 l 344 972 l 853 332 l 853 761 b 742 969 853 871 818 936 l 742 972 l 999 972 l 999 969 "},"Ò":{"ha":1064,"x_min":0,"x_max":0,"o":"m 539 1285 b 611 1029 546 1196 561 1110 l 604 1029 b 329 1285 474 1101 385 1185 l 539 1285 m 1022 486 b 532 -14 1022 194 808 -14 b 42 486 256 -14 42 194 b 532 986 42 778 256 986 b 1022 486 808 986 1022 778 m 792 486 b 532 957 792 776 714 957 b 272 486 350 957 272 776 b 532 15 272 196 350 15 b 792 486 714 15 792 196 "},"Ó":{"ha":1064,"x_min":0,"x_max":0,"o":"m 718 1285 b 442 1029 661 1185 574 1101 l 436 1029 b 508 1285 485 1110 501 1196 m 1022 486 b 532 -14 1022 194 808 -14 b 42 486 256 -14 42 194 b 532 986 42 778 256 986 b 1022 486 808 986 1022 778 m 792 486 b 532 957 792 776 714 957 b 272 486 350 957 272 776 b 532 15 272 196 350 15 b 792 486 714 15 792 196 "},"Ô":{"ha":1064,"x_min":0,"x_max":0,"o":"m 754 1018 b 532 1133 669 1049 588 1092 b 310 1018 476 1092 394 1049 l 296 1018 b 529 1318 385 1103 486 1226 l 535 1318 b 768 1018 578 1226 679 1103 l 754 1018 m 1022 486 b 532 -14 1022 194 808 -14 b 42 486 256 -14 42 194 b 532 986 42 778 256 986 b 1022 486 808 986 1022 778 m 792 486 b 532 957 792 776 714 957 b 272 486 350 957 272 776 b 532 15 272 196 350 15 b 792 486 714 15 792 196 "},"Õ":{"ha":1064,"x_min":0,"x_max":0,"o":"m 793 1279 b 632 1060 772 1143 714 1060 b 411 1138 546 1060 483 1138 b 292 1050 357 1138 317 1107 l 282 1050 b 443 1269 303 1186 361 1269 b 664 1192 529 1269 592 1192 b 783 1279 718 1192 758 1222 l 793 1279 m 1022 486 b 532 -14 1022 194 808 -14 b 42 486 256 -14 42 194 b 532 986 42 778 256 986 b 1022 486 808 986 1022 778 m 792 486 b 532 957 792 776 714 957 b 272 486 350 957 272 776 b 532 15 272 196 350 15 b 792 486 714 15 792 196 "},"Ö":{"ha":1064,"x_min":0,"x_max":0,"o":"m 393 1049 b 288 1156 333 1049 288 1097 b 393 1264 288 1214 333 1264 b 500 1156 453 1264 500 1214 b 393 1049 500 1097 453 1049 m 669 1049 b 563 1156 611 1049 563 1097 b 669 1264 563 1214 611 1264 b 776 1156 729 1264 776 1214 b 669 1049 776 1097 729 1049 m 1022 486 b 532 -14 1022 194 808 -14 b 42 486 256 -14 42 194 b 532 986 42 778 256 986 b 1022 486 808 986 1022 778 m 792 486 b 532 957 792 776 714 957 b 272 486 350 957 272 776 b 532 15 272 196 350 15 b 792 486 714 15 792 196 "},"×":{"ha":553,"x_min":0,"x_max":0,"o":"m 65 633 l 93 661 l 276 475 l 460 661 l 488 633 l 303 447 l 488 261 l 460 235 l 276 421 l 93 235 l 65 261 l 250 447 "},"Ø":{"ha":1064,"x_min":0,"x_max":0,"o":"m 272 486 b 294 253 272 397 279 319 l 761 753 b 532 957 722 882 649 957 b 272 486 350 957 272 776 m 532 15 b 792 486 714 15 792 196 b 771 714 792 572 785 649 l 306 214 b 532 15 343 88 417 15 m 532 -14 b 204 107 404 -14 290 31 l 90 -17 l 64 6 l 181 131 b 42 486 94 218 42 342 b 532 986 42 778 256 986 b 863 863 661 986 776 940 l 971 978 l 997 957 l 888 839 b 1022 486 971 751 1022 628 b 532 -14 1022 194 808 -14 "},"Ù":{"ha":1014,"x_min":0,"x_max":0,"o":"m 557 1285 b 629 1029 564 1196 579 1110 l 622 1029 b 347 1285 492 1101 403 1185 l 557 1285 m 899 375 b 519 -14 899 119 744 -14 b 107 378 269 -14 107 118 l 107 800 b 29 969 107 892 93 933 l 29 972 l 394 972 l 394 969 b 317 800 331 933 317 892 l 317 385 b 574 61 317 181 399 61 b 857 381 736 61 857 174 l 857 761 b 746 969 857 871 822 936 l 746 972 l 1003 972 l 1003 969 b 899 767 932 933 899 871 "},"Ú":{"ha":1014,"x_min":0,"x_max":0,"o":"m 735 1285 b 458 1029 678 1185 590 1101 l 453 1029 b 525 1285 501 1110 518 1196 m 899 375 b 519 -14 899 119 744 -14 b 107 378 269 -14 107 118 l 107 800 b 29 969 107 892 93 933 l 29 972 l 394 972 l 394 969 b 317 800 331 933 317 892 l 317 385 b 574 61 317 181 399 61 b 857 381 736 61 857 174 l 857 761 b 746 969 857 871 822 936 l 746 972 l 1003 972 l 1003 969 b 899 767 932 933 899 871 "},"Û":{"ha":1014,"x_min":0,"x_max":0,"o":"m 771 1018 b 549 1133 686 1049 604 1092 b 326 1018 493 1092 411 1049 l 313 1018 b 546 1318 401 1103 503 1226 l 551 1318 b 785 1018 594 1226 696 1103 l 771 1018 m 899 375 b 519 -14 899 119 744 -14 b 107 378 269 -14 107 118 l 107 800 b 29 969 107 892 93 933 l 29 972 l 394 972 l 394 969 b 317 800 331 933 317 892 l 317 385 b 574 61 317 181 399 61 b 857 381 736 61 857 174 l 857 761 b 746 969 857 871 822 936 l 746 972 l 1003 972 l 1003 969 b 899 767 932 933 899 871 "},"Ü":{"ha":1014,"x_min":0,"x_max":0,"o":"m 410 1049 b 304 1156 350 1049 304 1097 b 410 1264 304 1214 350 1264 b 517 1156 469 1264 517 1214 b 410 1049 517 1097 469 1049 m 686 1049 b 579 1156 628 1049 579 1097 b 686 1264 579 1214 628 1264 b 793 1156 746 1264 793 1214 b 686 1049 793 1097 746 1049 m 899 375 b 519 -14 899 119 744 -14 b 107 378 269 -14 107 118 l 107 800 b 29 969 107 892 93 933 l 29 972 l 394 972 l 394 969 b 317 800 331 933 317 892 l 317 385 b 574 61 317 181 399 61 b 857 381 736 61 857 174 l 857 761 b 746 969 857 871 822 936 l 746 972 l 1003 972 l 1003 969 b 899 767 932 933 899 871 "},"Ý":{"ha":951,"x_min":0,"x_max":0,"o":"m 693 1285 b 417 1029 636 1185 549 1101 l 411 1029 b 483 1285 460 1110 476 1196 m 772 810 b 793 878 786 833 793 856 b 731 969 793 914 774 947 l 731 972 l 957 972 l 957 969 b 824 817 900 931 864 883 l 574 407 l 574 165 b 654 3 574 74 590 39 l 654 0 l 292 0 l 292 3 b 374 165 356 39 374 74 l 374 407 l 118 825 b -6 969 78 892 49 929 l -6 972 l 374 972 l 374 969 b 322 890 339 946 322 925 b 343 826 322 872 328 851 l 560 460 "},"Þ":{"ha":913,"x_min":0,"x_max":0,"o":"m 332 779 l 518 779 b 893 494 743 779 893 681 b 519 210 893 308 743 210 l 332 210 l 332 165 b 442 3 332 76 351 42 l 442 0 l 46 0 l 46 3 b 124 172 110 39 124 81 l 124 800 b 46 969 124 892 110 933 l 46 972 l 410 972 l 410 969 b 332 800 346 933 332 892 m 453 247 b 686 494 613 247 686 347 b 453 743 686 642 613 743 l 332 743 l 332 247 "},"ß":{"ha":933,"x_min":0,"x_max":0,"o":"m 306 0 l 36 0 l 36 3 b 106 151 99 38 106 60 l 106 647 l 19 647 l 19 660 l 106 690 l 106 724 b 483 1049 106 956 275 1049 b 760 875 649 1049 760 985 b 592 689 760 779 678 733 b 508 593 535 654 508 632 b 703 451 508 543 554 517 b 907 207 843 389 907 321 b 647 -14 907 75 799 -14 b 475 18 551 -14 522 18 b 408 -14 443 18 426 3 l 393 240 l 396 240 b 647 11 475 79 549 11 b 767 124 719 11 767 58 b 610 276 767 196 715 231 b 413 490 458 338 413 394 b 544 692 413 575 467 628 b 646 874 607 746 646 793 b 483 1026 646 963 590 1026 b 306 781 371 1026 306 938 "},"à":{"ha":760,"x_min":0,"x_max":0,"o":"m 374 1040 b 451 765 379 946 401 853 l 444 765 b 171 1040 314 844 226 935 l 374 1040 m 782 50 b 631 -12 751 14 693 -12 b 471 111 532 -12 482 36 b 468 158 471 117 468 149 b 242 -10 449 64 358 -10 b 39 164 132 -10 39 46 b 361 379 39 317 194 349 l 467 399 l 467 513 b 339 671 467 596 432 671 b 224 563 260 671 224 622 b 289 482 224 511 249 482 b 313 486 297 482 304 483 b 192 411 293 436 249 411 b 71 522 124 411 71 454 b 343 697 71 622 182 697 b 667 457 553 697 667 628 b 664 176 667 357 664 269 b 747 44 664 90 682 44 b 782 53 758 44 772 47 m 394 358 b 239 192 286 336 239 285 b 333 72 239 113 275 72 b 464 239 407 72 463 140 l 467 374 "},"á":{"ha":760,"x_min":0,"x_max":0,"o":"m 557 1040 b 282 765 501 935 413 844 l 276 765 b 353 1040 325 853 347 946 m 782 50 b 631 -12 751 14 693 -12 b 471 111 532 -12 482 36 b 468 158 471 117 468 149 b 242 -10 449 64 358 -10 b 39 164 132 -10 39 46 b 361 379 39 317 194 349 l 467 399 l 467 513 b 339 671 467 596 432 671 b 224 563 260 671 224 622 b 289 482 224 511 249 482 b 313 486 297 482 304 483 b 192 411 293 436 249 411 b 71 522 124 411 71 454 b 343 697 71 622 182 697 b 667 457 553 697 667 628 b 664 176 667 357 664 269 b 747 44 664 90 682 44 b 782 53 758 44 772 47 m 394 358 b 239 192 286 336 239 285 b 333 72 239 113 275 72 b 464 239 407 72 463 140 l 467 374 "},"â":{"ha":760,"x_min":0,"x_max":0,"o":"m 597 751 b 375 876 513 783 431 832 b 153 751 319 832 238 783 l 139 751 b 372 1064 228 839 329 968 l 378 1064 b 611 751 421 968 522 839 l 597 751 m 782 50 b 631 -12 751 14 693 -12 b 471 111 532 -12 482 36 b 468 158 471 117 468 149 b 242 -10 449 64 358 -10 b 39 164 132 -10 39 46 b 361 379 39 317 194 349 l 467 399 l 467 513 b 339 671 467 596 432 671 b 224 563 260 671 224 622 b 289 482 224 511 249 482 b 313 486 297 482 304 483 b 192 411 293 436 249 411 b 71 522 124 411 71 454 b 343 697 71 622 182 697 b 667 457 553 697 667 628 b 664 176 667 357 664 269 b 747 44 664 90 682 44 b 782 53 758 44 772 47 m 394 358 b 239 192 286 336 239 285 b 333 72 239 113 275 72 b 464 239 407 72 463 140 l 467 374 "},"ã":{"ha":760,"x_min":0,"x_max":0,"o":"m 635 1015 b 474 796 614 879 556 796 b 253 874 388 796 325 874 b 133 786 199 874 158 843 l 124 786 b 285 1006 144 922 203 1006 b 506 928 371 1006 433 928 b 625 1015 560 928 600 958 l 635 1015 m 782 50 b 631 -12 751 14 693 -12 b 471 111 532 -12 482 36 b 468 158 471 117 468 149 b 242 -10 449 64 358 -10 b 39 164 132 -10 39 46 b 361 379 39 317 194 349 l 467 399 l 467 513 b 339 671 467 596 432 671 b 224 563 260 671 224 622 b 289 482 224 511 249 482 b 313 486 297 482 304 483 b 192 411 293 436 249 411 b 71 522 124 411 71 454 b 343 697 71 622 182 697 b 667 457 553 697 667 628 b 664 176 667 357 664 269 b 747 44 664 90 682 44 b 782 53 758 44 772 47 m 394 358 b 239 192 286 336 239 285 b 333 72 239 113 275 72 b 464 239 407 72 463 140 l 467 374 "},"ä":{"ha":760,"x_min":0,"x_max":0,"o":"m 236 783 b 131 890 176 783 131 832 b 236 999 131 949 176 999 b 343 890 296 999 343 949 b 236 783 343 832 296 783 m 513 783 b 406 890 454 783 406 832 b 513 999 406 949 454 999 b 619 890 572 999 619 949 b 513 783 619 832 572 783 m 782 50 b 631 -12 751 14 693 -12 b 471 111 532 -12 482 36 b 468 158 471 117 468 149 b 242 -10 449 64 358 -10 b 39 164 132 -10 39 46 b 361 379 39 317 194 349 l 467 399 l 467 513 b 339 671 467 596 432 671 b 224 563 260 671 224 622 b 289 482 224 511 249 482 b 313 486 297 482 304 483 b 192 411 293 436 249 411 b 71 522 124 411 71 454 b 343 697 71 622 182 697 b 667 457 553 697 667 628 b 664 176 667 357 664 269 b 747 44 664 90 682 44 b 782 53 758 44 772 47 m 394 358 b 239 192 286 336 239 285 b 333 72 239 113 275 72 b 464 239 407 72 463 140 l 467 374 "},"å":{"ha":760,"x_min":0,"x_max":0,"o":"m 375 1054 b 519 913 453 1054 519 989 b 375 769 519 833 453 769 b 231 913 297 769 231 833 b 375 1054 231 989 297 1054 m 375 808 b 481 913 432 808 481 854 b 375 1015 481 968 432 1015 b 271 913 318 1015 271 968 b 375 808 271 854 318 808 m 782 50 b 631 -12 751 14 693 -12 b 471 111 532 -12 482 36 b 468 158 471 117 468 149 b 242 -10 449 64 358 -10 b 39 164 132 -10 39 46 b 361 379 39 317 194 349 l 467 399 l 467 513 b 339 671 467 596 432 671 b 224 563 260 671 224 622 b 289 482 224 511 249 482 b 313 486 297 482 304 483 b 192 411 293 436 249 411 b 71 522 124 411 71 454 b 343 697 71 622 182 697 b 667 457 553 697 667 628 b 664 176 667 357 664 269 b 747 44 664 90 682 44 b 782 53 758 44 772 47 m 394 358 b 239 192 286 336 239 285 b 333 72 239 113 275 72 b 464 239 407 72 463 140 l 467 374 "},"æ":{"ha":1154,"x_min":0,"x_max":0,"o":"m 1119 218 b 810 -14 1085 71 965 -14 b 496 178 672 -14 551 54 b 242 -10 467 86 382 -10 b 39 164 132 -10 39 46 b 361 375 39 317 194 344 l 467 394 l 467 513 b 339 671 467 596 432 671 b 224 563 260 671 224 622 b 289 482 224 511 249 482 b 313 486 297 482 304 483 b 192 411 293 436 249 411 b 71 522 124 411 71 454 b 343 697 71 622 182 697 b 569 593 458 697 532 658 b 810 697 631 657 717 697 b 1122 371 1024 697 1122 557 l 664 371 b 897 81 664 194 754 81 b 1110 222 989 81 1068 125 l 1119 218 m 925 400 b 808 671 925 550 907 671 b 665 400 726 671 669 564 m 394 354 b 239 192 286 332 239 285 b 333 72 239 113 275 72 b 467 247 413 72 467 140 l 467 369 "},"ç":{"ha":699,"x_min":0,"x_max":0,"o":"m 375 -310 b 210 -214 290 -310 229 -264 l 221 -203 b 324 -262 246 -243 282 -262 b 397 -186 368 -262 397 -233 b 285 -106 397 -126 354 -108 l 339 -12 b 33 328 175 6 33 128 b 414 697 33 560 204 697 b 669 521 564 697 669 625 b 549 403 669 444 613 403 b 442 478 486 403 444 439 b 468 472 450 474 461 472 b 536 561 514 472 536 510 b 415 671 536 625 499 671 b 244 374 306 671 244 543 b 465 81 244 185 335 81 b 675 222 556 81 633 125 l 683 218 b 378 -14 650 71 531 -14 l 363 -14 l 328 -78 b 535 -192 446 -74 535 -111 b 375 -310 535 -268 460 -310 "},"è":{"ha":728,"x_min":0,"x_max":0,"o":"m 388 1040 b 465 765 393 946 415 853 l 458 765 b 185 1040 328 844 240 935 l 388 1040 m 382 697 b 694 371 596 697 694 557 l 236 371 b 469 81 236 194 328 81 b 683 222 561 81 642 125 l 692 218 b 383 -14 657 71 539 -14 b 33 340 192 -14 33 115 b 382 697 33 556 193 697 m 497 400 b 381 671 497 550 481 671 b 238 400 299 671 243 564 "},"é":{"ha":728,"x_min":0,"x_max":0,"o":"m 571 1040 b 296 765 515 935 426 844 l 290 765 b 367 1040 339 853 361 946 m 382 697 b 694 371 596 697 694 557 l 236 371 b 469 81 236 194 328 81 b 683 222 561 81 642 125 l 692 218 b 383 -14 657 71 539 -14 b 33 340 192 -14 33 115 b 382 697 33 556 193 697 m 497 400 b 381 671 497 550 481 671 b 238 400 299 671 243 564 "},"ê":{"ha":728,"x_min":0,"x_max":0,"o":"m 611 751 b 389 876 526 783 444 832 b 167 751 333 832 251 783 l 153 751 b 386 1064 242 839 343 968 l 392 1064 b 625 751 435 968 536 839 l 611 751 m 382 697 b 694 371 596 697 694 557 l 236 371 b 469 81 236 194 328 81 b 683 222 561 81 642 125 l 692 218 b 383 -14 657 71 539 -14 b 33 340 192 -14 33 115 b 382 697 33 556 193 697 m 497 400 b 381 671 497 550 481 671 b 238 400 299 671 243 564 "},"ë":{"ha":728,"x_min":0,"x_max":0,"o":"m 250 783 b 144 890 190 783 144 832 b 250 999 144 949 190 999 b 357 890 310 999 357 949 b 250 783 357 832 310 783 m 526 783 b 419 890 468 783 419 832 b 526 999 419 949 468 999 b 633 890 586 999 633 949 b 526 783 633 832 586 783 m 382 697 b 694 371 596 697 694 557 l 236 371 b 469 81 236 194 328 81 b 683 222 561 81 642 125 l 692 218 b 383 -14 657 71 539 -14 b 33 340 192 -14 33 115 b 382 697 33 556 193 697 m 497 400 b 381 671 497 550 481 671 b 238 400 299 671 243 564 "},"ì":{"ha":403,"x_min":0,"x_max":0,"o":"m 199 1040 b 276 765 204 946 226 853 l 269 765 b -4 1040 139 844 51 935 l 199 1040 m 306 151 b 376 3 306 60 314 38 l 376 0 l 36 0 l 36 3 b 106 151 99 38 106 60 l 106 529 b 28 681 106 618 93 646 l 28 683 l 306 683 "},"í":{"ha":403,"x_min":0,"x_max":0,"o":"m 382 1040 b 107 765 326 935 238 844 l 101 765 b 178 1040 150 853 172 946 m 306 151 b 376 3 306 60 314 38 l 376 0 l 36 0 l 36 3 b 106 151 99 38 106 60 l 106 529 b 28 681 106 618 93 646 l 28 683 l 306 683 "},"î":{"ha":403,"x_min":0,"x_max":0,"o":"m 424 751 b 201 876 339 783 257 832 b -21 751 146 832 64 783 l -35 751 b 199 1064 54 839 156 968 l 204 1064 b 438 751 247 968 349 839 l 424 751 m 306 151 b 376 3 306 60 314 38 l 376 0 l 36 0 l 36 3 b 106 151 99 38 106 60 l 106 529 b 28 681 106 618 93 646 l 28 683 l 306 683 "},"ï":{"ha":403,"x_min":0,"x_max":0,"o":"m 63 783 b -43 890 3 783 -43 832 b 63 999 -43 949 3 999 b 169 890 122 999 169 949 b 63 783 169 832 122 783 m 339 783 b 232 890 281 783 232 832 b 339 999 232 949 281 999 b 446 890 399 999 446 949 b 339 783 446 832 399 783 m 306 151 b 376 3 306 60 314 38 l 376 0 l 36 0 l 36 3 b 106 151 99 38 106 60 l 106 529 b 28 681 106 618 93 646 l 28 683 l 306 683 "},"ð":{"ha":797,"x_min":0,"x_max":0,"o":"m 399 -14 b 33 342 196 -14 33 129 b 397 697 33 554 196 697 b 533 642 443 697 504 678 b 424 876 524 717 486 803 l 221 792 l 207 825 l 397 904 b 160 1040 338 965 258 1015 l 161 1054 b 479 939 281 1039 389 1000 l 629 1001 l 643 968 l 514 914 b 764 390 668 799 764 618 b 399 -14 764 132 601 -14 m 399 11 b 549 342 500 11 549 138 b 399 671 549 546 500 671 b 247 342 296 671 247 546 b 399 11 247 138 296 11 "},"ñ":{"ha":863,"x_min":0,"x_max":0,"o":"m 703 1015 b 542 796 682 879 624 796 b 321 874 456 796 393 874 b 201 786 267 874 226 843 l 192 786 b 353 1006 213 922 271 1006 b 574 928 439 1006 501 928 b 693 1015 628 928 668 958 l 703 1015 m 306 683 l 306 497 b 549 697 342 624 431 697 b 767 456 690 697 767 600 l 767 151 b 838 3 767 60 775 38 l 838 0 l 497 0 l 497 3 b 567 151 560 38 567 60 l 567 456 b 453 597 567 533 535 597 b 306 383 367 597 306 521 l 306 151 b 376 3 306 60 314 38 l 376 0 l 36 0 l 36 3 b 106 151 99 38 106 60 l 106 529 b 28 681 106 618 93 646 l 28 683 "},"ò":{"ha":799,"x_min":0,"x_max":0,"o":"m 397 1040 b 475 765 403 946 425 853 l 468 765 b 194 1040 338 844 250 935 l 397 1040 m 399 -14 b 33 342 194 -14 33 131 b 399 697 33 553 194 697 b 765 342 604 697 765 553 b 399 -14 765 131 604 -14 m 399 11 b 550 342 501 11 550 138 b 399 671 550 546 501 671 b 249 342 297 671 249 546 b 399 11 249 138 297 11 "},"ó":{"ha":799,"x_min":0,"x_max":0,"o":"m 581 1040 b 306 765 525 935 436 844 l 300 765 b 376 1040 349 853 371 946 m 399 -14 b 33 342 194 -14 33 131 b 399 697 33 553 194 697 b 765 342 604 697 765 553 b 399 -14 765 131 604 -14 m 399 11 b 550 342 501 11 550 138 b 399 671 550 546 501 671 b 249 342 297 671 249 546 b 399 11 249 138 297 11 "},"ô":{"ha":799,"x_min":0,"x_max":0,"o":"m 621 751 b 399 876 536 783 454 832 b 176 751 343 832 261 783 l 163 751 b 396 1064 251 839 353 968 l 401 1064 b 635 751 444 968 546 839 l 621 751 m 399 -14 b 33 342 194 -14 33 131 b 399 697 33 553 194 697 b 765 342 604 697 765 553 b 399 -14 765 131 604 -14 m 399 11 b 550 342 501 11 550 138 b 399 671 550 546 501 671 b 249 342 297 671 249 546 b 399 11 249 138 297 11 "},"õ":{"ha":799,"x_min":0,"x_max":0,"o":"m 660 1015 b 499 796 639 879 581 796 b 278 874 413 796 350 874 b 158 786 224 874 183 843 l 149 786 b 310 1006 169 922 228 1006 b 531 928 396 1006 458 928 b 650 1015 585 928 625 958 l 660 1015 m 399 -14 b 33 342 194 -14 33 131 b 399 697 33 553 194 697 b 765 342 604 697 765 553 b 399 -14 765 131 604 -14 m 399 11 b 550 342 501 11 550 138 b 399 671 550 546 501 671 b 249 342 297 671 249 546 b 399 11 249 138 297 11 "},"ö":{"ha":799,"x_min":0,"x_max":0,"o":"m 260 783 b 154 890 200 783 154 832 b 260 999 154 949 200 999 b 367 890 319 999 367 949 b 260 783 367 832 319 783 m 536 783 b 429 890 478 783 429 832 b 536 999 429 949 478 999 b 643 890 596 999 643 949 b 536 783 643 832 596 783 m 399 -14 b 33 342 194 -14 33 131 b 399 697 33 553 194 697 b 765 342 604 697 765 553 b 399 -14 765 131 604 -14 m 399 11 b 550 342 501 11 550 138 b 399 671 550 546 501 671 b 249 342 297 671 249 546 b 399 11 249 138 297 11 "},"÷":{"ha":665,"x_min":0,"x_max":0,"o":"m 288 676 b 332 721 288 701 307 721 b 378 676 357 721 378 701 b 332 631 378 651 357 631 b 288 676 307 631 288 651 m 61 467 l 604 467 l 604 428 l 61 428 m 288 218 b 332 264 288 244 307 264 b 378 218 357 264 378 244 b 332 174 378 194 357 174 b 288 218 307 174 288 194 "},"ø":{"ha":799,"x_min":0,"x_max":0,"o":"m 249 342 b 257 207 249 292 251 247 l 536 504 b 399 671 515 610 471 671 b 249 342 297 671 249 546 m 399 11 b 550 342 501 11 550 138 b 543 461 550 386 547 425 l 265 165 b 399 11 286 68 331 11 m 399 -14 b 167 61 310 -14 229 14 l 92 -18 l 65 4 l 140 83 b 33 342 74 146 33 236 b 399 697 33 553 194 697 b 642 614 493 697 576 667 l 717 694 l 742 672 l 665 592 b 765 342 728 529 765 443 b 399 -14 765 131 604 -14 "},"ù":{"ha":844,"x_min":0,"x_max":0,"o":"m 419 1040 b 497 765 425 946 447 853 l 490 765 b 217 1040 360 844 272 935 l 419 1040 m 549 529 b 469 681 549 618 535 646 l 469 683 l 749 683 l 749 143 b 831 3 749 54 769 33 l 831 0 l 549 0 l 549 190 b 304 -14 515 60 424 -14 b 88 228 165 -14 88 83 l 88 529 b 10 681 88 618 75 646 l 10 683 l 288 683 l 288 229 b 400 88 288 156 321 88 b 549 300 483 88 549 163 "},"ú":{"ha":844,"x_min":0,"x_max":0,"o":"m 603 1040 b 328 765 547 935 458 844 l 322 765 b 399 1040 371 853 393 946 m 549 529 b 469 681 549 618 535 646 l 469 683 l 749 683 l 749 143 b 831 3 749 54 769 33 l 831 0 l 549 0 l 549 190 b 304 -14 515 60 424 -14 b 88 228 165 -14 88 83 l 88 529 b 10 681 88 618 75 646 l 10 683 l 288 683 l 288 229 b 400 88 288 156 321 88 b 549 300 483 88 549 163 "},"û":{"ha":844,"x_min":0,"x_max":0,"o":"m 644 751 b 422 876 560 783 478 832 b 200 751 367 832 285 783 l 186 751 b 419 1064 275 839 376 968 l 425 1064 b 658 751 468 968 569 839 l 644 751 m 549 529 b 469 681 549 618 535 646 l 469 683 l 749 683 l 749 143 b 831 3 749 54 769 33 l 831 0 l 549 0 l 549 190 b 304 -14 515 60 424 -14 b 88 228 165 -14 88 83 l 88 529 b 10 681 88 618 75 646 l 10 683 l 288 683 l 288 229 b 400 88 288 156 321 88 b 549 300 483 88 549 163 "},"ü":{"ha":844,"x_min":0,"x_max":0,"o":"m 283 783 b 178 890 224 783 178 832 b 283 999 178 949 224 999 b 390 890 343 999 390 949 b 283 783 390 832 343 783 m 560 783 b 453 890 501 783 453 832 b 560 999 453 949 501 999 b 667 890 619 999 667 949 b 560 783 667 832 619 783 m 549 529 b 469 681 549 618 535 646 l 469 683 l 749 683 l 749 143 b 831 3 749 54 769 33 l 831 0 l 549 0 l 549 190 b 304 -14 515 60 424 -14 b 88 228 165 -14 88 83 l 88 529 b 10 681 88 618 75 646 l 10 683 l 288 683 l 288 229 b 400 88 288 156 321 88 b 549 300 483 88 549 163 "},"ý":{"ha":736,"x_min":0,"x_max":0,"o":"m 581 1040 b 306 765 525 935 436 844 l 300 765 b 376 1040 349 853 371 946 m 371 -24 l 94 533 b -10 681 50 622 36 642 l -10 683 l 321 683 l 321 681 b 281 618 289 663 281 646 b 303 536 281 596 289 565 l 461 203 l 596 524 b 610 590 606 547 610 569 b 546 681 610 632 588 664 l 546 683 l 746 683 l 746 681 b 638 524 697 644 676 615 l 354 -143 b 156 -321 303 -262 246 -321 b 18 -200 76 -321 18 -276 b 128 -89 18 -129 68 -89 b 172 -97 144 -89 157 -92 b 132 -162 144 -110 132 -131 b 207 -236 132 -206 163 -236 b 329 -118 260 -236 293 -199 "},"þ":{"ha":869,"x_min":0,"x_max":0,"o":"m 458 613 b 297 407 376 613 297 532 l 297 271 b 461 51 297 135 378 51 b 624 349 565 51 624 160 b 458 613 624 515 563 613 m 297 1040 l 297 504 b 538 697 325 610 411 697 b 836 349 703 697 836 564 b 526 -14 836 129 697 -14 b 297 160 406 -14 325 61 l 297 -156 b 368 -304 297 -247 304 -269 l 368 -307 l 26 -307 l 26 -304 b 97 -156 90 -269 97 -247 l 97 888 b 14 1038 97 975 81 1006 l 14 1040 "},"ÿ":{"ha":736,"x_min":0,"x_max":0,"o":"m 260 783 b 154 890 200 783 154 832 b 260 999 154 949 200 999 b 367 890 319 999 367 949 b 260 783 367 832 319 783 m 536 783 b 429 890 478 783 429 832 b 536 999 429 949 478 999 b 643 890 596 999 643 949 b 536 783 643 832 596 783 m 371 -24 l 94 533 b -10 681 50 622 36 642 l -10 683 l 321 683 l 321 681 b 281 618 289 663 281 646 b 303 536 281 596 289 565 l 461 203 l 596 524 b 610 590 606 547 610 569 b 546 681 610 632 588 664 l 546 683 l 746 683 l 746 681 b 638 524 697 644 676 615 l 354 -143 b 156 -321 303 -262 246 -321 b 18 -200 76 -321 18 -276 b 128 -89 18 -129 68 -89 b 172 -97 144 -89 157 -92 b 132 -162 144 -110 132 -131 b 207 -236 132 -206 163 -236 b 329 -118 260 -236 293 -199 "},"Ā":{"ha":1010,"x_min":0,"x_max":0,"o":"m 293 1086 l 293 1138 l 704 1138 l 704 1086 m 249 340 l 585 340 l 413 715 m 232 0 l -1 0 l -1 3 b 129 176 51 33 89 89 l 499 986 l 504 986 l 897 156 b 1010 3 939 68 960 33 l 1010 0 l 629 0 l 629 3 b 690 79 669 24 690 46 b 668 160 690 104 682 129 l 603 301 l 231 301 l 181 186 b 160 103 168 160 160 132 b 232 3 160 60 186 24 "},"ā":{"ha":760,"x_min":0,"x_max":0,"o":"m 169 831 l 169 882 l 581 882 l 581 831 m 782 50 b 631 -12 751 14 693 -12 b 471 111 532 -12 482 36 b 468 158 471 117 468 149 b 242 -10 449 64 358 -10 b 39 164 132 -10 39 46 b 361 379 39 317 194 349 l 467 399 l 467 513 b 339 671 467 596 432 671 b 224 563 260 671 224 622 b 289 482 224 511 249 482 b 313 486 297 482 304 483 b 192 411 293 436 249 411 b 71 522 124 411 71 454 b 343 697 71 622 182 697 b 667 457 553 697 667 628 b 664 176 667 357 664 269 b 747 44 664 90 682 44 b 782 53 758 44 772 47 m 394 358 b 239 192 286 336 239 285 b 333 72 239 113 275 72 b 464 239 407 72 463 140 l 467 374 "},"Ă":{"ha":1010,"x_min":0,"x_max":0,"o":"m 710 1289 b 500 1035 708 1135 625 1035 b 289 1289 374 1035 289 1135 l 297 1289 b 500 1168 310 1204 414 1168 b 701 1289 583 1168 688 1204 l 710 1289 m 249 340 l 585 340 l 413 715 m 232 0 l -1 0 l -1 3 b 129 176 51 33 89 89 l 499 986 l 504 986 l 897 156 b 1010 3 939 68 960 33 l 1010 0 l 629 0 l 629 3 b 690 79 669 24 690 46 b 668 160 690 104 682 129 l 603 301 l 231 301 l 181 186 b 160 103 168 160 160 132 b 232 3 160 60 186 24 "},"ă":{"ha":760,"x_min":0,"x_max":0,"o":"m 585 1044 b 375 778 585 883 500 778 b 165 1044 250 778 165 883 l 174 1044 b 375 913 186 950 290 913 b 576 1044 460 913 564 950 l 585 1044 m 782 50 b 631 -12 751 14 693 -12 b 471 111 532 -12 482 36 b 468 158 471 117 468 149 b 242 -10 449 64 358 -10 b 39 164 132 -10 39 46 b 361 379 39 317 194 349 l 467 399 l 467 513 b 339 671 467 596 432 671 b 224 563 260 671 224 622 b 289 482 224 511 249 482 b 313 486 297 482 304 483 b 192 411 293 436 249 411 b 71 522 124 411 71 454 b 343 697 71 622 182 697 b 667 457 553 697 667 628 b 664 176 667 357 664 269 b 747 44 664 90 682 44 b 782 53 758 44 772 47 m 394 358 b 239 192 286 336 239 285 b 333 72 239 113 275 72 b 464 239 407 72 463 140 l 467 374 "},"Ą":{"ha":1010,"x_min":0,"x_max":0,"o":"m 771 -185 b 571 -332 739 -267 682 -332 b 429 -207 494 -332 429 -285 b 647 14 429 -101 546 -43 b 690 79 681 32 690 56 b 668 160 690 104 682 129 l 604 301 l 231 301 l 181 186 b 160 103 168 160 160 132 b 232 3 160 60 186 24 l 232 0 l -1 0 l -1 3 b 129 176 51 33 89 89 l 499 986 l 504 986 l 897 156 b 1010 3 939 68 960 33 l 1010 0 l 656 0 b 554 -164 582 -58 554 -112 b 639 -253 554 -222 588 -253 b 767 -182 690 -253 731 -233 l 771 -185 m 247 340 l 585 340 l 413 715 "},"ą":{"ha":760,"x_min":0,"x_max":0,"o":"m 583 -332 b 442 -207 507 -332 442 -285 b 658 -10 442 -114 549 -56 b 631 -12 647 -11 639 -12 b 471 111 532 -12 482 36 b 468 158 471 117 468 149 b 242 -10 449 64 358 -10 b 39 164 132 -10 39 46 b 361 379 39 317 194 349 l 467 399 l 467 513 b 339 671 467 596 432 671 b 224 563 260 671 224 622 b 289 482 224 511 249 482 b 313 486 297 482 304 483 b 192 411 293 436 249 411 b 71 522 124 411 71 454 b 343 697 71 622 182 697 b 667 457 553 697 667 628 b 664 176 667 357 664 269 b 747 44 664 90 682 44 b 782 53 758 44 772 47 l 782 50 b 567 -164 725 -8 567 -43 b 651 -253 567 -222 600 -253 b 779 -182 703 -253 743 -233 l 783 -185 b 583 -332 751 -267 694 -332 m 394 358 b 239 192 286 336 239 285 b 333 72 239 113 275 72 b 464 239 407 72 463 140 l 467 374 "},"Ć":{"ha":949,"x_min":0,"x_max":0,"o":"m 731 1285 b 454 1029 674 1185 586 1101 l 449 1029 b 521 1285 497 1110 514 1196 m 890 665 l 888 665 b 571 954 824 835 715 954 b 269 515 378 954 269 761 b 607 93 269 247 424 93 b 908 286 740 93 843 142 l 917 283 b 518 -14 875 101 731 -14 b 42 478 246 -14 42 182 b 554 986 42 775 272 986 b 790 942 675 986 746 942 b 881 986 832 942 856 963 "},"ć":{"ha":699,"x_min":0,"x_max":0,"o":"m 594 1040 b 319 765 539 935 450 844 l 314 765 b 390 1040 363 853 385 946 m 415 671 b 244 374 306 671 244 543 b 465 81 244 185 335 81 b 675 222 556 81 633 125 l 683 218 b 378 -14 650 71 531 -14 b 33 328 199 -14 33 111 b 414 697 33 560 204 697 b 669 521 564 697 669 625 b 549 403 669 444 613 403 b 442 478 486 403 444 439 b 468 472 450 474 461 472 b 536 561 514 472 536 510 b 415 671 536 625 499 671 "},"Ĉ":{"ha":949,"x_min":0,"x_max":0,"o":"m 768 1018 b 546 1133 683 1049 601 1092 b 324 1018 490 1092 408 1049 l 310 1018 b 543 1318 399 1103 500 1226 l 549 1318 b 782 1018 592 1226 693 1103 l 768 1018 m 890 665 l 888 665 b 571 954 824 835 715 954 b 269 515 378 954 269 761 b 607 93 269 247 424 93 b 908 286 740 93 843 142 l 917 283 b 518 -14 875 101 731 -14 b 42 478 246 -14 42 182 b 554 986 42 775 272 986 b 790 942 675 986 746 942 b 881 986 832 942 856 963 "},"ĉ":{"ha":699,"x_min":0,"x_max":0,"o":"m 635 751 b 413 876 550 783 468 832 b 190 751 357 832 275 783 l 176 751 b 410 1064 265 839 367 968 l 415 1064 b 649 751 458 968 560 839 l 635 751 m 415 671 b 244 374 306 671 244 543 b 465 81 244 185 335 81 b 675 222 556 81 633 125 l 683 218 b 378 -14 650 71 531 -14 b 33 328 199 -14 33 111 b 414 697 33 560 204 697 b 669 521 564 697 669 625 b 549 403 669 444 613 403 b 442 478 486 403 444 439 b 468 472 450 474 461 472 b 536 561 514 472 536 510 b 415 671 536 625 499 671 "},"Ċ":{"ha":949,"x_min":0,"x_max":0,"o":"m 426 1164 b 546 1281 426 1229 478 1281 b 665 1164 613 1281 665 1229 b 546 1049 665 1100 613 1049 b 426 1164 478 1049 426 1100 m 890 665 l 888 665 b 571 954 824 835 715 954 b 269 515 378 954 269 761 b 607 93 269 247 424 93 b 908 286 740 93 843 142 l 917 283 b 518 -14 875 101 731 -14 b 42 478 246 -14 42 182 b 554 986 42 775 272 986 b 790 942 675 986 746 942 b 881 986 832 942 856 963 "},"ċ":{"ha":699,"x_min":0,"x_max":0,"o":"m 293 906 b 413 1022 293 971 344 1022 b 532 906 479 1022 532 971 b 413 792 532 842 479 792 b 293 906 344 792 293 842 m 415 671 b 244 374 306 671 244 543 b 465 81 244 185 335 81 b 675 222 556 81 633 125 l 683 218 b 378 -14 650 71 531 -14 b 33 328 199 -14 33 111 b 414 697 33 560 204 697 b 669 521 564 697 669 625 b 549 403 669 444 613 403 b 442 478 486 403 444 439 b 468 472 450 474 461 472 b 536 561 514 472 536 510 b 415 671 536 625 499 671 "},"Č":{"ha":949,"x_min":0,"x_max":0,"o":"m 324 1321 b 546 1206 408 1290 490 1247 b 768 1321 601 1247 683 1290 l 782 1321 b 549 1021 693 1236 592 1113 l 543 1021 b 310 1321 500 1113 399 1236 l 324 1321 m 890 665 l 888 665 b 571 954 824 835 715 954 b 269 515 378 954 269 761 b 607 93 269 247 424 93 b 908 286 740 93 843 142 l 917 283 b 518 -14 875 101 731 -14 b 42 478 246 -14 42 182 b 554 986 42 775 272 986 b 790 942 675 986 746 942 b 881 986 832 942 856 963 "},"č":{"ha":699,"x_min":0,"x_max":0,"o":"m 190 1064 b 413 940 275 1033 357 983 b 635 1064 468 983 550 1033 l 649 1064 b 415 751 560 976 458 849 l 410 751 b 176 1064 367 849 265 976 l 190 1064 m 415 671 b 244 374 306 671 244 543 b 465 81 244 185 335 81 b 675 222 556 81 633 125 l 683 218 b 378 -14 650 71 531 -14 b 33 328 199 -14 33 111 b 414 697 33 560 204 697 b 669 521 564 697 669 625 b 549 403 669 444 613 403 b 442 478 486 403 444 439 b 468 472 450 474 461 472 b 536 561 514 472 536 510 b 415 671 536 625 499 671 "},"Ď":{"ha":1056,"x_min":0,"x_max":0,"o":"m 263 1321 b 485 1206 347 1290 429 1247 b 707 1321 540 1247 622 1290 l 721 1321 b 488 1021 632 1236 531 1113 l 482 1021 b 249 1321 439 1113 338 1236 l 263 1321 m 46 3 b 124 172 110 39 124 81 l 124 800 b 46 969 124 892 110 933 l 46 972 l 432 972 b 1014 493 772 972 1014 814 b 451 0 1014 157 767 0 l 46 0 m 432 36 b 789 493 644 36 789 182 b 419 936 789 776 646 936 l 332 936 l 332 36 "},"ď":{"ha":874,"x_min":0,"x_max":0,"o":"m 1047 1040 b 860 739 1022 936 950 811 l 854 739 b 876 1040 874 824 883 935 l 1047 1040 m 411 69 b 572 276 493 69 572 150 l 572 413 b 410 632 572 547 492 632 b 247 335 304 632 247 524 b 411 69 247 167 307 69 m 572 888 b 489 1038 572 975 554 1007 l 489 1040 l 772 1040 l 772 151 b 847 3 772 67 785 38 l 847 0 l 572 0 l 572 178 b 333 -14 544 72 458 -14 b 33 335 168 -14 33 119 b 343 697 33 554 172 697 b 572 524 464 697 544 621 "},"Đ":{"ha":1056,"x_min":0,"x_max":0,"o":"m 46 0 l 46 3 b 124 172 110 39 124 81 l 124 479 l 46 479 l 46 519 l 124 519 l 124 800 b 46 969 124 892 110 933 l 46 972 l 432 972 b 1014 493 772 972 1014 814 b 451 0 1014 157 767 0 m 432 36 b 789 493 644 36 789 182 b 419 936 789 776 646 936 l 332 936 l 332 519 l 508 519 l 508 479 l 332 479 l 332 36 "},"đ":{"ha":876,"x_min":0,"x_max":0,"o":"m 411 69 b 572 276 493 69 572 150 l 572 413 b 410 632 572 547 492 632 b 247 335 304 632 247 524 b 411 69 247 167 307 69 m 572 178 b 333 -14 544 72 458 -14 b 33 335 168 -14 33 119 b 343 697 33 554 172 697 b 572 524 464 697 544 621 l 572 804 l 411 804 l 411 839 l 572 839 l 572 888 b 489 1038 572 975 554 1007 l 489 1040 l 772 1040 l 772 839 l 853 839 l 853 804 l 772 804 l 772 151 b 847 3 772 67 785 38 l 847 0 l 572 0 l 572 178 "},"Ē":{"ha":908,"x_min":0,"x_max":0,"o":"m 258 1086 l 258 1138 l 669 1138 l 669 1086 m 707 972 b 793 983 746 972 775 975 l 840 725 l 838 725 b 519 936 760 861 686 936 l 332 936 l 332 518 l 486 518 b 685 675 599 518 639 546 l 688 675 l 688 335 l 685 335 b 486 479 639 463 599 479 l 332 479 l 332 36 l 543 36 b 875 272 717 36 797 131 l 878 272 l 833 0 l 46 0 l 46 3 b 124 172 110 39 124 81 l 124 800 b 46 969 124 892 110 933 l 46 972 "},"ē":{"ha":728,"x_min":0,"x_max":0,"o":"m 183 831 l 183 882 l 594 882 l 594 831 m 382 697 b 694 371 596 697 694 557 l 236 371 b 469 81 236 194 328 81 b 683 222 561 81 642 125 l 692 218 b 383 -14 657 71 539 -14 b 33 340 192 -14 33 115 b 382 697 33 556 193 697 m 497 400 b 381 671 497 550 481 671 b 238 400 299 671 243 564 "},"Ĕ":{"ha":908,"x_min":0,"x_max":0,"o":"m 675 1289 b 465 1035 674 1135 590 1035 b 254 1289 339 1035 254 1135 l 263 1289 b 465 1168 275 1204 379 1168 b 667 1289 549 1168 653 1204 l 675 1289 m 707 972 b 793 983 746 972 775 975 l 840 725 l 838 725 b 519 936 760 861 686 936 l 332 936 l 332 518 l 486 518 b 685 675 599 518 639 546 l 688 675 l 688 335 l 685 335 b 486 479 639 463 599 479 l 332 479 l 332 36 l 543 36 b 875 272 717 36 797 131 l 878 272 l 833 0 l 46 0 l 46 3 b 124 172 110 39 124 81 l 124 800 b 46 969 124 892 110 933 l 46 972 "},"ĕ":{"ha":728,"x_min":0,"x_max":0,"o":"m 599 1044 b 389 778 599 883 514 778 b 179 1044 264 778 179 883 l 188 1044 b 389 913 200 950 304 913 b 590 1044 474 913 578 950 l 599 1044 m 382 697 b 694 371 596 697 694 557 l 236 371 b 469 81 236 194 328 81 b 683 222 561 81 642 125 l 692 218 b 383 -14 657 71 539 -14 b 33 340 192 -14 33 115 b 382 697 33 556 193 697 m 497 400 b 381 671 497 550 481 671 b 238 400 299 671 243 564 "},"Ė":{"ha":908,"x_min":0,"x_max":0,"o":"m 347 1160 b 467 1276 347 1225 399 1276 b 586 1160 533 1276 586 1225 b 467 1044 586 1096 533 1044 b 347 1160 399 1044 347 1096 m 707 972 b 793 983 746 972 775 975 l 840 725 l 838 725 b 519 936 760 861 686 936 l 332 936 l 332 518 l 486 518 b 685 675 599 518 639 546 l 688 675 l 688 335 l 685 335 b 486 479 639 463 599 479 l 332 479 l 332 36 l 543 36 b 875 272 717 36 797 131 l 878 272 l 833 0 l 46 0 l 46 3 b 124 172 110 39 124 81 l 124 800 b 46 969 124 892 110 933 l 46 972 "},"ė":{"ha":728,"x_min":0,"x_max":0,"o":"m 269 906 b 389 1022 269 971 321 1022 b 508 906 456 1022 508 971 b 389 792 508 842 456 792 b 269 906 321 792 269 842 m 382 697 b 694 371 596 697 694 557 l 236 371 b 469 81 236 194 328 81 b 683 222 561 81 642 125 l 692 218 b 383 -14 657 71 539 -14 b 33 340 192 -14 33 115 b 382 697 33 556 193 697 m 497 400 b 381 671 497 550 481 671 b 238 400 299 671 243 564 "},"Ę":{"ha":908,"x_min":0,"x_max":0,"o":"m 803 -185 b 603 -332 771 -267 714 -332 b 461 -207 526 -332 461 -285 b 654 0 461 -114 553 -56 l 46 0 l 46 3 b 124 172 110 39 124 81 l 124 800 b 46 969 124 892 110 933 l 46 972 l 707 972 b 793 983 746 972 775 975 l 840 725 l 838 725 b 519 936 760 861 686 936 l 332 936 l 332 518 l 486 518 b 685 675 599 518 639 546 l 688 675 l 688 335 l 685 335 b 486 479 639 463 599 479 l 332 479 l 332 36 l 543 36 b 875 272 717 36 797 131 l 878 272 l 833 0 l 686 0 b 586 -164 615 -58 586 -112 b 671 -253 586 -222 619 -253 b 799 -182 722 -253 763 -233 l 803 -185 "},"ę":{"ha":728,"x_min":0,"x_max":0,"o":"m 424 -332 b 282 -207 347 -332 282 -285 b 472 -4 282 -117 375 -58 b 383 -14 447 -11 411 -14 b 33 340 192 -14 33 115 b 382 697 33 556 193 697 b 694 371 596 697 694 557 l 236 371 b 469 81 236 194 328 81 b 683 222 561 81 642 125 l 692 218 b 528 10 669 121 608 63 b 406 -164 443 -47 406 -101 b 492 -253 406 -222 440 -253 b 619 -182 543 -253 582 -233 l 624 -185 b 424 -332 592 -267 535 -332 m 497 400 b 381 671 497 550 481 671 b 238 400 299 671 243 564 "},"Ě":{"ha":908,"x_min":0,"x_max":0,"o":"m 242 1321 b 464 1206 326 1290 408 1247 b 686 1321 519 1247 601 1290 l 700 1321 b 467 1021 611 1236 510 1113 l 461 1021 b 228 1321 418 1113 317 1236 l 242 1321 m 707 972 b 793 983 746 972 775 975 l 840 725 l 838 725 b 519 936 760 861 686 936 l 332 936 l 332 518 l 486 518 b 685 675 599 518 639 546 l 688 675 l 688 335 l 685 335 b 486 479 639 463 599 479 l 332 479 l 332 36 l 543 36 b 875 272 717 36 797 131 l 878 272 l 833 0 l 46 0 l 46 3 b 124 172 110 39 124 81 l 124 800 b 46 969 124 892 110 933 l 46 972 "},"ě":{"ha":728,"x_min":0,"x_max":0,"o":"m 167 1064 b 389 940 251 1033 333 983 b 611 1064 444 983 526 1033 l 625 1064 b 392 751 536 976 435 849 l 386 751 b 153 1064 343 849 242 976 l 167 1064 m 382 697 b 694 371 596 697 694 557 l 236 371 b 469 81 236 194 328 81 b 683 222 561 81 642 125 l 692 218 b 383 -14 657 71 539 -14 b 33 340 192 -14 33 115 b 382 697 33 556 193 697 m 497 400 b 381 671 497 550 481 671 b 238 400 299 671 243 564 "},"Ĝ":{"ha":1054,"x_min":0,"x_max":0,"o":"m 776 1018 b 554 1133 692 1049 610 1092 b 332 1018 499 1092 417 1049 l 318 1018 b 551 1318 407 1103 508 1226 l 557 1318 b 790 1018 600 1226 701 1103 l 776 1018 m 575 956 b 272 476 381 956 272 764 b 547 28 272 215 378 28 b 751 233 671 28 751 103 l 751 285 b 674 454 751 376 738 418 l 674 457 l 1032 457 l 1032 454 b 954 285 968 418 954 376 l 954 -14 l 951 -14 l 835 140 b 538 -14 783 58 674 -14 b 42 476 247 -14 42 186 b 560 986 42 781 276 986 b 801 942 683 986 756 942 b 892 986 842 942 867 963 l 901 665 l 899 665 b 575 956 832 833 719 956 "},"ĝ":{"ha":792,"x_min":0,"x_max":0,"o":"m 576 751 b 354 876 492 783 410 832 b 132 751 299 832 217 783 l 118 751 b 351 1064 207 839 308 968 l 357 1064 b 590 751 400 968 501 839 l 576 751 m 361 674 b 260 469 290 674 260 594 b 361 265 260 344 290 265 b 464 469 433 265 464 344 b 361 674 464 594 433 674 m 765 -57 b 346 -321 765 -232 568 -321 b 6 -162 188 -321 6 -281 b 190 -37 6 -94 75 -46 b 42 115 110 -24 42 28 b 190 276 42 197 113 254 b 63 469 107 317 63 388 b 361 697 63 599 169 697 b 583 625 456 697 533 671 b 719 735 611 671 650 735 b 826 640 788 735 826 697 b 704 538 826 563 760 538 l 704 540 b 724 589 718 553 724 568 b 663 649 724 622 704 649 b 594 614 633 649 611 632 b 661 469 638 576 661 526 b 361 242 661 340 554 242 b 211 267 301 242 253 250 b 146 199 176 254 146 232 b 229 142 146 161 175 142 l 499 142 b 765 -57 664 142 765 72 m 346 -296 b 618 -149 503 -296 618 -242 b 475 -42 618 -74 568 -42 l 275 -42 b 129 -157 186 -42 129 -79 b 346 -296 129 -247 225 -296 "},"Ğ":{"ha":1054,"x_min":0,"x_max":0,"o":"m 765 1292 b 556 1038 764 1138 681 1038 b 344 1292 429 1038 344 1138 l 353 1292 b 556 1171 365 1207 469 1171 b 757 1292 639 1171 743 1207 l 765 1292 m 575 956 b 272 476 381 956 272 764 b 547 28 272 215 378 28 b 751 233 671 28 751 103 l 751 285 b 674 454 751 376 738 418 l 674 457 l 1032 457 l 1032 454 b 954 285 968 418 954 376 l 954 -14 l 951 -14 l 835 140 b 538 -14 783 58 674 -14 b 42 476 247 -14 42 186 b 560 986 42 781 276 986 b 801 942 683 986 756 942 b 892 986 842 942 867 963 l 901 665 l 899 665 b 575 956 832 833 719 956 "},"ğ":{"ha":792,"x_min":0,"x_max":0,"o":"m 574 1044 b 364 778 574 883 489 778 b 154 1044 239 778 154 883 l 163 1044 b 364 913 175 950 279 913 b 565 1044 449 913 553 950 l 574 1044 m 361 674 b 260 469 290 674 260 594 b 361 265 260 344 290 265 b 464 469 433 265 464 344 b 361 674 464 594 433 674 m 765 -57 b 346 -321 765 -232 568 -321 b 6 -162 188 -321 6 -281 b 190 -37 6 -94 75 -46 b 42 115 110 -24 42 28 b 190 276 42 197 113 254 b 63 469 107 317 63 388 b 361 697 63 599 169 697 b 583 625 456 697 533 671 b 719 735 611 671 650 735 b 826 640 788 735 826 697 b 704 538 826 563 760 538 l 704 540 b 724 589 718 553 724 568 b 663 649 724 622 704 649 b 594 614 633 649 611 632 b 661 469 638 576 661 526 b 361 242 661 340 554 242 b 211 267 301 242 253 250 b 146 199 176 254 146 232 b 229 142 146 161 175 142 l 499 142 b 765 -57 664 142 765 72 m 346 -296 b 618 -149 503 -296 618 -242 b 475 -42 618 -74 568 -42 l 275 -42 b 129 -157 186 -42 129 -79 b 346 -296 129 -247 225 -296 "},"Ġ":{"ha":1054,"x_min":0,"x_max":0,"o":"m 435 1164 b 554 1281 435 1229 486 1281 b 674 1164 621 1281 674 1229 b 554 1049 674 1100 621 1049 b 435 1164 486 1049 435 1100 m 575 956 b 272 476 381 956 272 764 b 547 28 272 215 378 28 b 751 233 671 28 751 103 l 751 285 b 674 454 751 376 738 418 l 674 457 l 1032 457 l 1032 454 b 954 285 968 418 954 376 l 954 -14 l 951 -14 l 835 140 b 538 -14 783 58 674 -14 b 42 476 247 -14 42 186 b 560 986 42 781 276 986 b 801 942 683 986 756 942 b 892 986 842 942 867 963 l 901 665 l 899 665 b 575 956 832 833 719 956 "},"ġ":{"ha":792,"x_min":0,"x_max":0,"o":"m 244 906 b 364 1022 244 971 296 1022 b 483 906 431 1022 483 971 b 364 792 483 842 431 792 b 244 906 296 792 244 842 m 361 674 b 260 469 290 674 260 594 b 361 265 260 344 290 265 b 464 469 433 265 464 344 b 361 674 464 594 433 674 m 765 -57 b 346 -321 765 -232 568 -321 b 6 -162 188 -321 6 -281 b 190 -37 6 -94 75 -46 b 42 115 110 -24 42 28 b 190 276 42 197 113 254 b 63 469 107 317 63 388 b 361 697 63 599 169 697 b 583 625 456 697 533 671 b 719 735 611 671 650 735 b 826 640 788 735 826 697 b 704 538 826 563 760 538 l 704 540 b 724 589 718 553 724 568 b 663 649 724 622 704 649 b 594 614 633 649 611 632 b 661 469 638 576 661 526 b 361 242 661 340 554 242 b 211 267 301 242 253 250 b 146 199 176 254 146 232 b 229 142 146 161 175 142 l 499 142 b 765 -57 664 142 765 72 m 346 -296 b 618 -149 503 -296 618 -242 b 475 -42 618 -74 568 -42 l 275 -42 b 129 -157 186 -42 129 -79 b 346 -296 129 -247 225 -296 "},"Ģ":{"ha":1054,"x_min":0,"x_max":0,"o":"m 575 956 b 272 476 381 956 272 764 b 547 28 272 215 378 28 b 751 233 671 28 751 103 l 751 285 b 674 454 751 376 738 418 l 674 457 l 1032 457 l 1032 454 b 954 285 968 418 954 376 l 954 -14 l 951 -14 l 835 140 b 538 -14 783 58 674 -14 b 42 476 247 -14 42 186 b 560 986 42 781 276 986 b 801 942 683 986 756 942 b 892 986 842 942 867 963 l 901 665 l 899 665 b 575 956 832 833 719 956 m 674 -192 b 444 -371 674 -300 585 -368 l 444 -350 b 603 -235 549 -340 599 -301 b 535 -256 589 -247 563 -256 b 443 -161 482 -256 443 -212 b 549 -61 443 -104 489 -61 b 674 -192 622 -61 674 -114 "},"ģ":{"ha":792,"x_min":0,"x_max":0,"o":"m 244 899 b 474 1076 244 1006 333 1075 l 474 1056 b 315 942 369 1046 319 1007 b 383 963 329 953 356 963 b 475 868 436 963 475 918 b 369 768 475 810 429 768 b 244 899 296 768 244 819 m 361 674 b 260 469 290 674 260 594 b 361 265 260 344 290 265 b 464 469 433 265 464 344 b 361 674 464 594 433 674 m 765 -57 b 346 -321 765 -232 568 -321 b 6 -162 188 -321 6 -281 b 190 -37 6 -94 75 -46 b 42 115 110 -24 42 28 b 190 276 42 197 113 254 b 63 469 107 317 63 388 b 361 697 63 599 169 697 b 583 625 456 697 533 671 b 719 735 611 671 650 735 b 826 640 788 735 826 697 b 704 538 826 563 760 538 l 704 540 b 724 589 718 553 724 568 b 663 649 724 622 704 649 b 594 614 633 649 611 632 b 661 469 638 576 661 526 b 361 242 661 340 554 242 b 211 267 301 242 253 250 b 146 199 176 254 146 232 b 229 142 146 161 175 142 l 499 142 b 765 -57 664 142 765 72 m 346 -296 b 618 -149 503 -296 618 -242 b 475 -42 618 -74 568 -42 l 275 -42 b 129 -157 186 -42 129 -79 b 346 -296 129 -247 225 -296 "},"Ĥ":{"ha":1129,"x_min":0,"x_max":0,"o":"m 786 1018 b 564 1133 701 1049 619 1092 b 342 1018 508 1092 426 1049 l 328 1018 b 561 1318 417 1103 518 1226 l 567 1318 b 800 1018 610 1226 711 1103 l 786 1018 m 124 800 b 46 969 124 892 110 933 l 46 972 l 410 972 l 410 969 b 332 800 346 933 332 892 l 332 519 l 797 519 l 797 800 b 719 969 797 892 783 933 l 719 972 l 1083 972 l 1083 969 b 1006 800 1019 933 1006 892 l 1006 172 b 1083 3 1006 81 1019 39 l 1083 0 l 719 0 l 719 3 b 797 172 783 39 797 81 l 797 479 l 332 479 l 332 172 b 410 3 332 81 346 39 l 410 0 l 46 0 l 46 3 b 124 172 110 39 124 81 "},"ĥ":{"ha":857,"x_min":0,"x_max":0,"o":"m 653 1079 b 431 1194 568 1110 486 1153 b 208 1079 375 1153 293 1110 l 194 1079 b 428 1379 283 1164 385 1288 l 433 1379 b 667 1079 476 1288 578 1164 l 653 1079 m 301 1040 l 301 497 b 543 697 336 624 425 697 b 763 456 685 697 763 600 l 763 151 b 833 3 763 60 769 38 l 833 0 l 492 0 l 492 3 b 563 151 556 38 563 60 l 563 456 b 449 597 563 533 531 597 b 301 383 363 597 301 521 l 301 151 b 372 3 301 60 308 38 l 372 0 l 31 0 l 31 3 b 101 151 94 38 101 60 l 101 888 b 18 1038 101 975 83 1007 l 18 1040 "},"Ħ":{"ha":1129,"x_min":0,"x_max":0,"o":"m 797 649 l 332 649 l 332 481 l 797 481 m 46 0 l 46 3 b 124 172 110 39 124 81 l 124 649 l 46 649 l 46 689 l 124 689 l 124 800 b 46 969 124 892 110 933 l 46 972 l 410 972 l 410 969 b 332 800 346 933 332 892 l 332 689 l 797 689 l 797 800 b 719 969 797 892 783 933 l 719 972 l 1083 972 l 1083 969 b 1006 800 1019 933 1006 892 l 1006 689 l 1083 689 l 1083 649 l 1006 649 l 1006 172 b 1083 3 1006 81 1019 39 l 1083 0 l 719 0 l 719 3 b 797 172 783 39 797 81 l 797 440 l 332 440 l 332 172 b 410 3 332 81 346 39 l 410 0 "},"ħ":{"ha":860,"x_min":0,"x_max":0,"o":"m 375 0 l 33 0 l 33 3 b 104 151 97 38 104 60 l 104 804 l 24 804 l 24 839 l 104 839 l 104 888 b 21 1038 104 975 86 1007 l 21 1040 l 304 1040 l 304 839 l 464 839 l 464 804 l 304 804 l 304 497 b 546 697 339 624 428 697 b 765 456 688 697 765 600 l 765 151 b 836 3 765 60 772 38 l 836 0 l 494 0 l 494 3 b 565 151 558 38 565 60 l 565 456 b 451 597 565 533 533 597 b 304 383 365 597 304 521 l 304 151 b 375 3 304 60 311 38 "},"Ĩ":{"ha":456,"x_min":0,"x_max":0,"o":"m 483 1279 b 322 1060 463 1143 404 1060 b 101 1138 236 1060 174 1138 b -18 1050 47 1138 7 1107 l -28 1050 b 133 1269 -7 1186 51 1269 b 354 1192 219 1269 282 1192 b 474 1279 408 1192 449 1222 l 483 1279 m 332 172 b 410 3 332 81 346 39 l 410 0 l 46 0 l 46 3 b 124 172 110 39 124 81 l 124 800 b 46 969 124 892 110 933 l 46 972 l 410 972 l 410 969 b 332 800 346 933 332 892 l 332 172 "},"ĩ":{"ha":403,"x_min":0,"x_max":0,"o":"m 429 1015 b 285 796 415 879 360 796 b 88 871 207 796 153 871 b -17 786 40 871 3 843 l -26 786 b 118 1006 -12 922 44 1006 b 315 931 196 1006 250 931 b 419 1015 363 931 400 958 l 429 1015 m 306 151 b 376 3 306 60 314 38 l 376 0 l 36 0 l 36 3 b 106 151 99 38 106 60 l 106 529 b 28 681 106 618 93 646 l 28 683 l 306 683 "},"Ī":{"ha":456,"x_min":0,"x_max":0,"o":"m 22 1086 l 22 1138 l 433 1138 l 433 1086 m 332 172 b 410 3 332 81 346 39 l 410 0 l 46 0 l 46 3 b 124 172 110 39 124 81 l 124 800 b 46 969 124 892 110 933 l 46 972 l 410 972 l 410 969 b 332 800 346 933 332 892 l 332 172 "},"ī":{"ha":403,"x_min":0,"x_max":0,"o":"m 18 831 l 18 882 l 368 882 l 368 831 m 306 151 b 376 3 306 60 314 38 l 376 0 l 36 0 l 36 3 b 106 151 99 38 106 60 l 106 529 b 28 681 106 618 93 646 l 28 683 l 306 683 "},"Ĭ":{"ha":456,"x_min":0,"x_max":0,"o":"m 439 1289 b 229 1035 438 1135 354 1035 b 18 1289 103 1035 18 1135 l 26 1289 b 229 1168 39 1204 143 1168 b 431 1289 313 1168 417 1204 l 439 1289 m 332 172 b 410 3 332 81 346 39 l 410 0 l 46 0 l 46 3 b 124 172 110 39 124 81 l 124 800 b 46 969 124 892 110 933 l 46 972 l 410 972 l 410 969 b 332 800 346 933 332 892 l 332 172 "},"ĭ":{"ha":403,"x_min":0,"x_max":0,"o":"m 386 1044 b 199 778 386 871 311 778 b 13 1044 88 778 14 871 l 19 1044 b 199 913 32 950 124 913 b 378 1044 275 913 368 950 l 386 1044 m 306 151 b 376 3 306 60 314 38 l 376 0 l 36 0 l 36 3 b 106 151 99 38 106 60 l 106 529 b 28 681 106 618 93 646 l 28 683 l 306 683 "},"Į":{"ha":456,"x_min":0,"x_max":0,"o":"m 397 -185 b 197 -332 365 -267 308 -332 b 56 -207 121 -332 56 -285 b 249 0 56 -114 147 -56 l 46 0 l 46 3 b 124 172 110 39 124 81 l 124 800 b 46 969 124 892 110 933 l 46 972 l 410 972 l 410 969 b 332 800 346 933 332 892 l 332 172 b 410 3 332 81 346 39 l 410 0 l 281 0 b 181 -164 210 -58 181 -112 b 265 -253 181 -222 214 -253 b 393 -182 317 -253 357 -233 l 397 -185 "},"į":{"ha":403,"x_min":0,"x_max":0,"o":"m 82 907 b 201 1022 82 972 133 1022 b 321 907 269 1022 321 972 b 201 792 321 842 269 792 b 82 907 133 792 82 842 m 371 -185 b 171 -332 339 -267 282 -332 b 29 -207 94 -332 29 -285 b 222 0 29 -114 121 -56 l 36 0 l 36 3 b 106 151 99 38 106 60 l 106 529 b 28 681 106 618 93 646 l 28 683 l 306 683 l 306 151 b 376 3 306 60 314 38 l 376 0 l 254 0 b 154 -164 183 -58 154 -112 b 239 -253 154 -222 188 -253 b 367 -182 290 -253 331 -233 l 371 -185 "},"İ":{"ha":456,"x_min":0,"x_max":0,"o":"m 108 1160 b 228 1276 108 1225 160 1276 b 347 1160 294 1276 347 1225 b 228 1044 347 1096 294 1044 b 108 1160 160 1044 108 1096 m 332 172 b 410 3 332 81 346 39 l 410 0 l 46 0 l 46 3 b 124 172 110 39 124 81 l 124 800 b 46 969 124 892 110 933 l 46 972 l 410 972 l 410 969 b 332 800 346 933 332 892 l 332 172 "},"ı":{"ha":403,"x_min":0,"x_max":0,"o":"m 306 151 b 376 3 306 60 314 38 l 376 0 l 36 0 l 36 3 b 106 151 99 38 106 60 l 106 529 b 28 681 106 618 93 646 l 28 683 l 306 683 "},"Ĵ":{"ha":803,"x_min":0,"x_max":0,"o":"m 811 1018 b 589 1133 726 1049 644 1092 b 367 1018 533 1092 451 1049 l 353 1018 b 586 1318 442 1103 543 1226 l 592 1318 b 825 1018 635 1226 736 1103 l 811 1018 m 488 800 b 411 969 488 892 475 933 l 411 972 l 775 972 l 775 969 b 697 800 711 933 697 892 l 697 289 b 338 -14 697 76 533 -14 b 14 210 167 -14 14 67 b 174 357 14 303 82 357 b 289 313 221 357 264 340 b 193 185 224 310 193 256 b 338 13 193 89 243 13 b 488 231 446 13 488 97 "},"ĵ":{"ha":375,"x_min":0,"x_max":0,"o":"m 407 751 b 185 876 322 783 240 832 b -37 751 129 832 47 783 l -51 751 b 182 1064 38 839 139 968 l 188 1064 b 421 751 231 968 332 839 l 407 751 m 293 -50 b -4 -321 293 -242 160 -321 b -221 -185 -125 -321 -221 -275 b -106 -87 -221 -126 -171 -87 b -19 -114 -71 -87 -37 -99 b -83 -204 -57 -124 -83 -153 b 0 -299 -83 -262 -56 -299 b 93 -132 68 -299 93 -240 l 93 529 b 15 681 93 618 81 646 l 15 683 l 293 683 l 293 -50 "},"Ķ":{"ha":1028,"x_min":0,"x_max":0,"o":"m 46 0 l 46 3 b 124 172 110 39 124 81 l 124 800 b 46 969 124 892 110 933 l 46 972 l 410 972 l 410 969 b 332 800 346 933 332 892 l 332 458 l 726 832 b 764 901 750 854 764 879 b 710 969 764 929 744 954 l 710 972 l 990 972 l 990 969 b 771 824 896 932 836 885 l 560 624 l 879 154 b 1039 3 929 85 982 32 l 1039 0 l 646 0 l 646 3 b 682 56 672 17 682 29 b 644 147 682 82 669 107 l 407 483 l 332 413 l 332 172 b 410 3 332 81 346 39 l 410 0 m 614 -192 b 385 -371 614 -300 525 -368 l 385 -350 b 543 -235 489 -340 539 -301 b 475 -256 529 -247 503 -256 b 383 -161 422 -256 383 -212 b 489 -61 383 -104 429 -61 b 614 -192 563 -61 614 -114 "},"ķ":{"ha":822,"x_min":0,"x_max":0,"o":"m 333 389 b 438 432 374 389 399 394 l 557 553 b 594 624 583 578 594 601 b 549 681 594 649 578 669 l 549 683 l 814 683 l 814 681 b 617 565 725 656 675 621 l 513 458 l 697 156 b 853 3 740 86 788 32 l 853 0 l 544 0 b 508 99 544 28 531 63 l 372 326 b 322 360 358 351 346 360 l 301 360 l 301 151 b 372 3 301 60 308 38 l 372 0 l 31 0 l 31 3 b 101 151 94 38 101 60 l 101 888 b 18 1038 101 975 83 1007 l 18 1040 l 301 1040 l 301 389 m 540 -192 b 311 -371 540 -300 451 -368 l 311 -350 b 469 -235 415 -340 465 -301 b 401 -256 456 -247 429 -256 b 310 -161 349 -256 310 -212 b 415 -61 310 -104 356 -61 b 540 -192 489 -61 540 -114 "},"ĸ":{"ha":833,"x_min":0,"x_max":0,"o":"m 344 389 b 447 432 383 389 410 394 l 568 553 b 604 624 593 578 606 601 b 558 681 604 649 588 669 l 558 683 l 824 683 l 824 681 b 626 565 736 656 686 621 l 524 458 l 708 156 b 863 3 750 86 797 32 l 863 0 l 556 0 b 519 99 554 28 542 63 l 382 326 b 332 360 368 351 357 360 l 311 360 l 311 151 b 382 3 311 60 319 38 l 382 0 l 42 0 l 42 3 b 111 151 104 38 111 60 l 111 529 b 28 681 111 618 93 650 l 28 683 l 311 683 l 311 389 "},"Ĺ":{"ha":874,"x_min":0,"x_max":0,"o":"m 475 1285 b 199 1029 418 1185 331 1101 l 193 1029 b 265 1285 242 1110 258 1196 m 410 972 l 410 969 b 332 800 346 933 332 892 l 332 36 l 517 36 b 851 297 690 36 761 129 l 854 297 l 806 0 l 46 0 l 46 3 b 124 172 110 39 124 81 l 124 800 b 46 969 124 892 110 933 l 46 972 "},"ĺ":{"ha":399,"x_min":0,"x_max":0,"o":"m 379 1336 b 103 1081 322 1236 235 1153 l 97 1081 b 169 1336 146 1161 163 1247 m 301 151 b 372 3 301 60 308 38 l 372 0 l 31 0 l 31 3 b 101 151 94 38 101 60 l 101 888 b 18 1038 101 975 83 1007 l 18 1040 l 301 1040 "},"Ļ":{"ha":874,"x_min":0,"x_max":0,"o":"m 410 972 l 410 969 b 332 800 346 933 332 892 l 332 36 l 517 36 b 851 297 690 36 761 129 l 854 297 l 806 0 l 46 0 l 46 3 b 124 172 110 39 124 81 l 124 800 b 46 969 124 892 110 933 l 46 972 m 565 -192 b 336 -371 565 -300 476 -368 l 336 -350 b 494 -235 440 -340 490 -301 b 426 -256 481 -247 454 -256 b 335 -161 374 -256 335 -212 b 440 -61 335 -104 381 -61 b 565 -192 514 -61 565 -114 "},"ļ":{"ha":399,"x_min":0,"x_max":0,"o":"m 301 151 b 372 3 301 60 308 38 l 372 0 l 31 0 l 31 3 b 101 151 94 38 101 60 l 101 888 b 18 1038 101 975 83 1007 l 18 1040 l 301 1040 m 314 -192 b 85 -371 314 -300 225 -368 l 85 -350 b 243 -235 189 -340 239 -301 b 175 -256 229 -247 203 -256 b 83 -161 122 -256 83 -212 b 189 -61 83 -104 129 -61 b 314 -192 263 -61 314 -114 "},"Ľ":{"ha":874,"x_min":0,"x_max":0,"o":"m 410 972 l 410 969 b 332 800 346 933 332 892 l 332 36 l 517 36 b 851 297 690 36 761 129 l 854 297 l 806 0 l 46 0 l 46 3 b 124 172 110 39 124 81 l 124 800 b 46 969 124 892 110 933 l 46 972 m 771 972 b 583 671 746 868 674 743 l 578 671 b 600 972 597 756 607 867 l 771 972 "},"ľ":{"ha":399,"x_min":0,"x_max":0,"o":"m 301 151 b 372 3 301 60 308 38 l 372 0 l 31 0 l 31 3 b 101 151 94 38 101 60 l 101 888 b 18 1038 101 975 83 1007 l 18 1040 l 301 1040 m 572 1040 b 385 739 547 936 475 811 l 379 739 b 401 1040 399 824 408 935 l 572 1040 "},"Ŀ":{"ha":874,"x_min":0,"x_max":0,"o":"m 410 972 l 410 969 b 332 800 346 933 332 892 l 332 36 l 517 36 b 851 297 690 36 761 129 l 854 297 l 806 0 l 46 0 l 46 3 b 124 172 110 39 124 81 l 124 800 b 46 969 124 892 110 933 l 46 972 m 613 538 b 732 654 613 603 664 654 b 851 538 799 654 851 603 b 732 424 851 474 799 424 b 613 538 664 424 613 474 "},"ŀ":{"ha":601,"x_min":0,"x_max":0,"o":"m 301 151 b 372 3 301 60 308 38 l 372 0 l 31 0 l 31 3 b 101 151 94 38 101 60 l 101 888 b 18 1038 101 975 83 1007 l 18 1040 l 301 1040 m 381 518 b 500 635 381 583 432 635 b 619 518 567 635 619 583 b 500 404 619 454 567 404 b 381 518 432 404 381 454 "},"Ł":{"ha":874,"x_min":0,"x_max":0,"o":"m 46 0 l 46 3 b 124 172 110 39 124 81 l 124 421 l 46 390 l 46 432 l 124 463 l 124 800 b 46 969 124 892 110 933 l 46 972 l 410 972 l 410 969 b 332 800 346 933 332 892 l 332 532 l 536 614 l 536 572 l 332 492 l 332 36 l 517 36 b 851 297 690 36 761 129 l 854 297 l 806 0 "},"ł":{"ha":417,"x_min":0,"x_max":0,"o":"m 38 0 l 38 3 b 108 151 101 38 108 60 l 108 528 l 13 478 l 13 519 l 108 571 l 108 888 b 25 1038 108 975 90 1007 l 25 1040 l 308 1040 l 308 653 l 406 704 l 406 663 l 308 611 l 308 151 b 379 3 308 60 315 38 l 379 0 "},"Ń":{"ha":1011,"x_min":0,"x_max":0,"o":"m 708 1285 b 432 1029 651 1185 564 1101 l 426 1029 b 499 1285 475 1110 492 1196 m 999 969 b 894 767 928 933 894 871 l 894 -7 l 856 -7 l 165 856 l 165 211 b 276 3 165 101 200 36 l 276 0 l 19 0 l 19 3 b 124 206 89 39 124 101 l 124 800 b 46 969 124 892 110 933 l 46 972 l 344 972 l 853 332 l 853 761 b 742 969 853 871 818 936 l 742 972 l 999 972 l 999 969 "},"ń":{"ha":863,"x_min":0,"x_max":0,"o":"m 628 1040 b 353 765 572 935 483 844 l 347 765 b 424 1040 396 853 418 946 m 306 683 l 306 497 b 549 697 342 624 431 697 b 767 456 690 697 767 600 l 767 151 b 838 3 767 60 775 38 l 838 0 l 497 0 l 497 3 b 567 151 560 38 567 60 l 567 456 b 453 597 567 533 535 597 b 306 383 367 597 306 521 l 306 151 b 376 3 306 60 314 38 l 376 0 l 36 0 l 36 3 b 106 151 99 38 106 60 l 106 529 b 28 681 106 618 93 646 l 28 683 "},"Ņ":{"ha":1011,"x_min":0,"x_max":0,"o":"m 999 969 b 894 767 928 933 894 871 l 894 -7 l 856 -7 l 165 856 l 165 211 b 276 3 165 101 200 36 l 276 0 l 19 0 l 19 3 b 124 206 89 39 124 101 l 124 800 b 46 969 124 892 110 933 l 46 972 l 344 972 l 853 332 l 853 761 b 742 969 853 871 818 936 l 742 972 l 999 972 l 999 969 m 632 -192 b 403 -371 632 -300 543 -368 l 403 -350 b 561 -235 507 -340 557 -301 b 493 -256 547 -247 521 -256 b 401 -161 440 -256 401 -212 b 507 -61 401 -104 447 -61 b 632 -192 581 -61 632 -114 "},"ņ":{"ha":863,"x_min":0,"x_max":0,"o":"m 306 683 l 306 497 b 549 697 342 624 431 697 b 767 456 690 697 767 600 l 767 151 b 838 3 767 60 775 38 l 838 0 l 497 0 l 497 3 b 567 151 560 38 567 60 l 567 456 b 453 597 567 533 535 597 b 306 383 367 597 306 521 l 306 151 b 376 3 306 60 314 38 l 376 0 l 36 0 l 36 3 b 106 151 99 38 106 60 l 106 529 b 28 681 106 618 93 646 l 28 683 m 561 -192 b 332 -371 561 -300 472 -368 l 332 -350 b 490 -235 436 -340 486 -301 b 422 -256 476 -247 450 -256 b 331 -161 369 -256 331 -212 b 436 -61 331 -104 376 -61 b 561 -192 510 -61 561 -114 "},"Ň":{"ha":1011,"x_min":0,"x_max":0,"o":"m 301 1321 b 524 1206 386 1290 468 1247 b 746 1321 579 1247 661 1290 l 760 1321 b 526 1021 671 1236 569 1113 l 521 1021 b 288 1321 478 1113 376 1236 l 301 1321 m 999 969 b 894 767 928 933 894 871 l 894 -7 l 856 -7 l 165 856 l 165 211 b 276 3 165 101 200 36 l 276 0 l 19 0 l 19 3 b 124 206 89 39 124 101 l 124 800 b 46 969 124 892 110 933 l 46 972 l 344 972 l 853 332 l 853 761 b 742 969 853 871 818 936 l 742 972 l 999 972 l 999 969 "},"ň":{"ha":863,"x_min":0,"x_max":0,"o":"m 225 1064 b 447 940 310 1033 392 983 b 669 1064 503 983 585 1033 l 683 1064 b 450 751 594 976 493 849 l 444 751 b 211 1064 401 849 300 976 l 225 1064 m 306 683 l 306 497 b 549 697 342 624 431 697 b 767 456 690 697 767 600 l 767 151 b 838 3 767 60 775 38 l 838 0 l 497 0 l 497 3 b 567 151 560 38 567 60 l 567 456 b 453 597 567 533 535 597 b 306 383 367 597 306 521 l 306 151 b 376 3 306 60 314 38 l 376 0 l 36 0 l 36 3 b 106 151 99 38 106 60 l 106 529 b 28 681 106 618 93 646 l 28 683 "},"Ŋ":{"ha":1011,"x_min":0,"x_max":0,"o":"m 853 -3 l 165 856 l 165 211 b 276 3 165 101 200 36 l 276 0 l 19 0 l 19 3 b 124 206 89 39 124 101 l 124 800 b 46 969 124 892 110 933 l 46 972 l 344 972 l 853 332 l 853 761 b 742 969 853 871 818 936 l 742 972 l 999 972 l 999 969 b 894 767 928 933 894 871 l 894 -72 b 706 -321 894 -233 832 -321 b 503 -176 588 -321 503 -265 b 618 -75 503 -118 553 -75 b 704 -103 653 -75 686 -86 b 642 -190 667 -111 642 -140 b 722 -283 642 -247 671 -283 b 853 -79 804 -283 853 -221 "},"ŋ":{"ha":860,"x_min":0,"x_max":0,"o":"m 469 -321 b 254 -185 350 -321 254 -275 b 368 -87 254 -126 303 -87 b 454 -114 403 -87 436 -99 b 392 -204 417 -124 392 -153 b 474 -299 392 -262 418 -299 b 567 -132 543 -299 567 -240 l 567 456 b 453 597 567 533 535 597 b 306 383 367 597 306 521 l 306 151 b 376 3 306 60 314 38 l 376 0 l 36 0 l 36 3 b 106 151 99 38 106 60 l 106 529 b 28 681 106 618 93 646 l 28 683 l 306 683 l 306 497 b 549 697 342 624 431 697 b 767 456 690 697 767 600 l 767 -50 b 469 -321 767 -242 635 -321 "},"Ō":{"ha":1064,"x_min":0,"x_max":0,"o":"m 326 1086 l 326 1138 l 738 1138 l 738 1086 m 1022 486 b 532 -14 1022 194 808 -14 b 42 486 256 -14 42 194 b 532 986 42 778 256 986 b 1022 486 808 986 1022 778 m 792 486 b 532 957 792 776 714 957 b 272 486 350 957 272 776 b 532 15 272 196 350 15 b 792 486 714 15 792 196 "},"ō":{"ha":799,"x_min":0,"x_max":0,"o":"m 193 831 l 193 882 l 604 882 l 604 831 m 399 -14 b 33 342 194 -14 33 131 b 399 697 33 553 194 697 b 765 342 604 697 765 553 b 399 -14 765 131 604 -14 m 399 11 b 550 342 501 11 550 138 b 399 671 550 546 501 671 b 249 342 297 671 249 546 b 399 11 249 138 297 11 "},"Ŏ":{"ha":1064,"x_min":0,"x_max":0,"o":"m 743 1289 b 533 1035 742 1135 658 1035 b 322 1289 407 1035 322 1135 l 331 1289 b 533 1168 343 1204 447 1168 b 735 1289 617 1168 721 1204 l 743 1289 m 1022 486 b 532 -14 1022 194 808 -14 b 42 486 256 -14 42 194 b 532 986 42 778 256 986 b 1022 486 808 986 1022 778 m 792 486 b 532 957 792 776 714 957 b 272 486 350 957 272 776 b 532 15 272 196 350 15 b 792 486 714 15 792 196 "},"ŏ":{"ha":799,"x_min":0,"x_max":0,"o":"m 608 1044 b 399 778 608 883 524 778 b 189 1044 274 778 189 883 l 197 1044 b 399 913 210 950 314 913 b 600 1044 483 913 588 950 l 608 1044 m 399 -14 b 33 342 194 -14 33 131 b 399 697 33 553 194 697 b 765 342 604 697 765 553 b 399 -14 765 131 604 -14 m 399 11 b 550 342 501 11 550 138 b 399 671 550 546 501 671 b 249 342 297 671 249 546 b 399 11 249 138 297 11 "},"Ő":{"ha":1064,"x_min":0,"x_max":0,"o":"m 650 1285 b 385 1029 593 1185 517 1101 l 378 1029 b 451 1285 428 1110 444 1196 m 896 1285 b 631 1029 839 1185 763 1101 l 625 1029 b 697 1285 674 1110 690 1196 m 1022 486 b 532 -14 1022 194 808 -14 b 42 486 256 -14 42 194 b 532 986 42 778 256 986 b 1022 486 808 986 1022 778 m 792 486 b 532 957 792 776 714 957 b 272 486 350 957 272 776 b 532 15 272 196 350 15 b 792 486 714 15 792 196 "},"ő":{"ha":799,"x_min":0,"x_max":0,"o":"m 506 1040 b 242 765 450 935 372 844 l 235 765 b 315 1040 285 853 310 946 m 738 1040 b 474 765 682 935 604 844 l 467 765 b 547 1040 517 853 542 946 m 399 -14 b 33 342 194 -14 33 131 b 399 697 33 553 194 697 b 765 342 604 697 765 553 b 399 -14 765 131 604 -14 m 399 11 b 550 342 501 11 550 138 b 399 671 550 546 501 671 b 249 342 297 671 249 546 b 399 11 249 138 297 11 "},"Œ":{"ha":1504,"x_min":0,"x_max":0,"o":"m 719 936 l 621 936 b 263 479 407 936 263 790 b 633 36 263 196 407 36 l 719 36 m 1428 0 l 621 0 b 38 479 279 0 38 158 b 600 972 38 815 285 972 l 1303 972 b 1389 983 1342 972 1371 975 l 1436 725 l 1433 725 b 1114 936 1356 861 1282 936 l 929 936 l 929 518 l 1081 518 b 1279 675 1193 518 1235 546 l 1282 675 l 1282 335 l 1279 335 b 1081 479 1235 463 1193 479 l 929 479 l 929 36 l 1139 36 b 1469 272 1313 36 1393 131 l 1472 272 "},"œ":{"ha":1239,"x_min":0,"x_max":0,"o":"m 1203 218 b 894 -14 1168 71 1050 -14 b 650 99 799 -14 707 31 b 399 -14 590 32 500 -14 b 33 342 194 -14 33 131 b 399 697 33 553 194 697 b 653 581 501 697 594 650 b 893 697 713 650 800 697 b 1206 371 1108 697 1206 557 l 747 371 b 981 81 747 194 839 81 b 1194 222 1074 81 1153 125 l 1203 218 m 550 342 b 399 671 550 546 501 671 b 249 342 297 671 249 546 b 399 11 249 138 297 11 b 550 342 501 11 550 138 m 1008 400 b 893 671 1008 550 992 671 b 749 400 811 671 754 564 "},"Ŕ":{"ha":1017,"x_min":0,"x_max":0,"o":"m 682 1285 b 406 1029 625 1185 538 1101 l 400 1029 b 472 1285 449 1110 465 1196 m 332 490 l 469 490 b 688 710 604 490 688 560 b 469 936 688 853 611 936 l 332 936 m 546 972 b 910 714 751 972 910 901 b 590 465 910 544 751 468 b 847 285 736 456 810 394 l 883 174 b 1033 3 917 74 951 39 l 1033 0 l 740 0 b 667 150 710 32 688 86 l 621 303 b 446 453 593 388 556 453 l 332 453 l 332 172 b 410 3 332 81 346 39 l 410 0 l 46 0 l 46 3 b 124 172 110 39 124 81 l 124 800 b 46 969 124 892 110 933 l 46 972 "},"ŕ":{"ha":678,"x_min":0,"x_max":0,"o":"m 543 1040 b 268 765 488 935 399 844 l 263 765 b 339 1040 311 853 333 946 m 494 442 b 538 507 521 451 538 476 b 456 581 538 553 508 581 b 306 344 376 581 306 483 l 306 151 b 418 3 306 60 342 32 l 418 0 l 36 0 l 36 3 b 106 151 99 38 106 60 l 106 529 b 28 681 106 618 93 646 l 28 683 l 306 683 l 306 456 b 528 697 339 583 404 697 b 669 565 613 697 669 642 b 543 426 669 474 606 426 b 494 442 521 426 503 433 "},"Ŗ":{"ha":1017,"x_min":0,"x_max":0,"o":"m 332 490 l 469 490 b 688 710 604 490 688 560 b 469 936 688 853 611 936 l 332 936 m 546 972 b 910 714 751 972 910 901 b 590 465 910 544 751 468 b 847 285 736 456 810 394 l 883 174 b 1033 3 917 74 951 39 l 1033 0 l 740 0 b 667 150 710 32 688 86 l 621 303 b 446 453 593 388 556 453 l 332 453 l 332 172 b 410 3 332 81 346 39 l 410 0 l 46 0 l 46 3 b 124 172 110 39 124 81 l 124 800 b 46 969 124 892 110 933 l 46 972 m 617 -192 b 388 -371 617 -300 528 -368 l 388 -350 b 546 -235 492 -340 542 -301 b 478 -256 532 -247 506 -256 b 386 -161 425 -256 386 -212 b 492 -61 386 -104 432 -61 b 617 -192 565 -61 617 -114 "},"ŗ":{"ha":678,"x_min":0,"x_max":0,"o":"m 494 442 b 538 507 521 451 538 476 b 456 581 538 553 508 581 b 306 344 376 581 306 483 l 306 151 b 418 3 306 60 342 32 l 418 0 l 36 0 l 36 3 b 106 151 99 38 106 60 l 106 529 b 28 681 106 618 93 646 l 28 683 l 306 683 l 306 456 b 528 697 339 583 404 697 b 669 565 613 697 669 642 b 543 426 669 474 606 426 b 494 442 521 426 503 433 m 322 -192 b 93 -371 322 -300 233 -368 l 93 -350 b 251 -235 197 -340 247 -301 b 183 -256 238 -247 211 -256 b 92 -161 131 -256 92 -212 b 197 -61 92 -104 138 -61 b 322 -192 271 -61 322 -114 "},"Ř":{"ha":1017,"x_min":0,"x_max":0,"o":"m 275 1321 b 497 1206 360 1290 442 1247 b 719 1321 553 1247 635 1290 l 733 1321 b 500 1021 644 1236 543 1113 l 494 1021 b 261 1321 451 1113 350 1236 l 275 1321 m 332 490 l 469 490 b 688 710 604 490 688 560 b 469 936 688 853 611 936 l 332 936 m 546 972 b 910 714 751 972 910 901 b 590 465 910 544 751 468 b 847 285 736 456 810 394 l 883 174 b 1033 3 917 74 951 39 l 1033 0 l 740 0 b 667 150 710 32 688 86 l 621 303 b 446 453 593 388 556 453 l 332 453 l 332 172 b 410 3 332 81 346 39 l 410 0 l 46 0 l 46 3 b 124 172 110 39 124 81 l 124 800 b 46 969 124 892 110 933 l 46 972 "},"ř":{"ha":678,"x_min":0,"x_max":0,"o":"m 140 1064 b 363 940 225 1033 307 983 b 585 1064 418 983 500 1033 l 599 1064 b 365 751 510 976 408 849 l 360 751 b 126 1064 317 849 215 976 l 140 1064 m 494 442 b 538 507 521 451 538 476 b 456 581 538 553 508 581 b 306 344 376 581 306 483 l 306 151 b 418 3 306 60 342 32 l 418 0 l 36 0 l 36 3 b 106 151 99 38 106 60 l 106 529 b 28 681 106 618 93 646 l 28 683 l 306 683 l 306 456 b 528 697 339 583 404 697 b 669 565 613 697 669 642 b 543 426 669 474 606 426 b 494 442 521 426 503 433 "},"Ś":{"ha":808,"x_min":0,"x_max":0,"o":"m 586 1285 b 310 1029 529 1185 442 1101 l 304 1029 b 376 1285 353 1110 369 1196 m 390 957 b 211 789 293 957 211 899 b 429 596 211 671 313 631 b 764 279 585 550 764 503 b 407 -14 764 85 594 -14 b 160 31 294 -14 217 31 b 65 -14 121 31 94 11 l 44 301 l 47 301 b 406 15 133 125 268 15 b 607 197 524 15 607 81 b 338 410 607 333 474 367 b 54 701 197 453 54 508 b 390 986 54 875 197 986 b 621 943 497 986 569 943 b 703 986 660 943 682 967 l 708 706 l 706 706 b 390 957 629 850 536 957 "},"ś":{"ha":650,"x_min":0,"x_max":0,"o":"m 507 1040 b 232 765 451 935 363 844 l 226 765 b 303 1040 275 853 297 946 m 296 671 b 182 572 224 671 182 629 b 351 446 182 507 218 483 b 604 207 533 394 604 332 b 335 -14 604 67 486 -14 b 129 18 239 -14 176 18 b 63 -14 97 18 81 3 l 47 243 l 50 243 b 335 11 121 96 210 11 b 465 126 408 11 465 51 b 288 254 465 201 399 224 b 54 492 122 301 54 369 b 296 697 54 618 163 697 b 481 663 382 697 432 663 b 556 697 510 663 531 676 l 556 471 l 553 471 b 296 671 496 588 399 671 "},"Ŝ":{"ha":808,"x_min":0,"x_max":0,"o":"m 624 1018 b 401 1133 539 1049 457 1092 b 179 1018 346 1092 264 1049 l 165 1018 b 399 1318 254 1103 356 1226 l 404 1318 b 638 1018 447 1226 549 1103 l 624 1018 m 390 957 b 211 789 293 957 211 899 b 429 596 211 671 313 631 b 764 279 585 550 764 503 b 407 -14 764 85 594 -14 b 160 31 294 -14 217 31 b 65 -14 121 31 94 11 l 44 301 l 47 301 b 406 15 133 125 268 15 b 607 197 524 15 607 81 b 338 410 607 333 474 367 b 54 701 197 453 54 508 b 390 986 54 875 197 986 b 621 943 497 986 569 943 b 703 986 660 943 682 967 l 708 706 l 706 706 b 390 957 629 850 536 957 "},"ŝ":{"ha":650,"x_min":0,"x_max":0,"o":"m 549 751 b 326 876 464 783 382 832 b 104 751 271 832 189 783 l 90 751 b 324 1064 179 839 281 968 l 329 1064 b 563 751 372 968 474 839 l 549 751 m 296 671 b 182 572 224 671 182 629 b 351 446 182 507 218 483 b 604 207 533 394 604 332 b 335 -14 604 67 486 -14 b 129 18 239 -14 176 18 b 63 -14 97 18 81 3 l 47 243 l 50 243 b 335 11 121 96 210 11 b 465 126 408 11 465 51 b 288 254 465 201 399 224 b 54 492 122 301 54 369 b 296 697 54 618 163 697 b 481 663 382 697 432 663 b 556 697 510 663 531 676 l 556 471 l 553 471 b 296 671 496 588 399 671 "},"Ş":{"ha":808,"x_min":0,"x_max":0,"o":"m 363 -310 b 197 -214 278 -310 217 -264 l 208 -203 b 311 -262 233 -243 269 -262 b 385 -186 356 -262 385 -233 b 272 -106 385 -126 342 -108 l 329 -7 b 160 31 257 6 203 31 b 65 -14 121 31 94 11 l 44 301 l 47 301 b 406 15 133 125 268 15 b 607 197 524 15 607 81 b 338 410 607 333 474 367 b 54 701 197 453 54 508 b 390 986 54 875 197 986 b 621 943 497 986 569 943 b 703 986 660 943 682 967 l 708 706 l 706 706 b 390 957 629 850 536 957 b 211 789 293 957 211 899 b 429 596 211 671 313 631 b 764 279 585 550 764 503 b 407 -14 764 85 594 -14 b 353 -10 388 -14 369 -12 l 315 -78 b 522 -192 433 -74 522 -111 b 363 -310 522 -268 447 -310 "},"ş":{"ha":650,"x_min":0,"x_max":0,"o":"m 288 -310 b 122 -214 203 -310 142 -264 l 133 -203 b 236 -262 158 -243 194 -262 b 310 -186 281 -262 310 -233 b 197 -106 310 -126 267 -108 l 254 -7 b 129 18 201 3 161 18 b 63 -14 97 18 81 3 l 47 243 l 50 243 b 335 11 121 96 210 11 b 465 126 408 11 465 51 b 288 254 465 201 399 224 b 54 492 122 301 54 369 b 296 697 54 618 163 697 b 481 663 382 697 432 663 b 556 697 510 663 531 676 l 556 471 l 553 471 b 296 671 496 588 399 671 b 182 572 224 671 182 629 b 351 446 182 507 218 483 b 604 207 533 394 604 332 b 335 -14 604 67 486 -14 b 278 -10 314 -14 294 -12 l 240 -78 b 447 -192 358 -74 447 -111 b 288 -310 447 -268 372 -310 "},"Š":{"ha":808,"x_min":0,"x_max":0,"o":"m 179 1321 b 401 1206 264 1290 346 1247 b 624 1321 457 1247 539 1290 l 638 1321 b 404 1021 549 1236 447 1113 l 399 1021 b 165 1321 356 1113 254 1236 l 179 1321 m 390 957 b 211 789 293 957 211 899 b 429 596 211 671 313 631 b 764 279 585 550 764 503 b 407 -14 764 85 594 -14 b 160 31 294 -14 217 31 b 65 -14 121 31 94 11 l 44 301 l 47 301 b 406 15 133 125 268 15 b 607 197 524 15 607 81 b 338 410 607 333 474 367 b 54 701 197 453 54 508 b 390 986 54 875 197 986 b 621 943 497 986 569 943 b 703 986 660 943 682 967 l 708 706 l 706 706 b 390 957 629 850 536 957 "},"š":{"ha":650,"x_min":0,"x_max":0,"o":"m 104 1064 b 326 940 189 1033 271 983 b 549 1064 382 983 464 1033 l 563 1064 b 329 751 474 976 372 849 l 324 751 b 90 1064 281 849 179 976 l 104 1064 m 296 671 b 182 572 224 671 182 629 b 351 446 182 507 218 483 b 604 207 533 394 604 332 b 335 -14 604 67 486 -14 b 129 18 239 -14 176 18 b 63 -14 97 18 81 3 l 47 243 l 50 243 b 335 11 121 96 210 11 b 465 126 408 11 465 51 b 288 254 465 201 399 224 b 54 492 122 301 54 369 b 296 697 54 618 163 697 b 481 663 382 697 432 663 b 556 697 510 663 531 676 l 556 471 l 553 471 b 296 671 496 588 399 671 "},"Ţ":{"ha":1036,"x_min":0,"x_max":0,"o":"m 533 -310 b 368 -214 449 -310 388 -264 l 379 -203 b 482 -262 404 -243 440 -262 b 556 -186 526 -262 556 -233 b 443 -106 556 -126 513 -108 l 503 0 l 332 0 l 332 3 b 413 165 396 39 413 74 l 413 936 l 332 936 b 22 672 181 936 129 849 l 19 672 l 67 983 b 151 972 85 975 114 972 l 883 972 b 969 983 922 972 951 975 l 1017 672 l 1014 672 b 703 936 907 849 854 936 l 622 936 l 622 165 b 704 3 622 74 640 39 l 704 0 l 529 0 l 486 -78 b 693 -192 604 -74 693 -111 b 533 -310 693 -268 618 -310 "},"ţ":{"ha":539,"x_min":0,"x_max":0,"o":"m 303 -310 b 138 -214 218 -310 157 -264 l 149 -203 b 251 -262 174 -243 210 -262 b 325 -186 296 -262 325 -233 b 213 -106 325 -126 282 -108 l 265 -12 b 92 208 161 -1 90 71 l 93 647 l 10 647 l 10 660 b 278 924 142 688 240 785 l 292 924 l 292 683 l 503 683 l 496 647 l 292 647 l 292 207 b 379 86 292 128 321 86 b 507 242 444 86 489 142 l 521 238 b 296 -14 506 104 447 -14 l 290 -14 l 256 -78 b 463 -192 374 -74 463 -111 b 303 -310 463 -268 388 -310 "},"Ť":{"ha":1036,"x_min":0,"x_max":0,"o":"m 296 1321 b 518 1206 381 1290 463 1247 b 740 1321 574 1247 656 1290 l 754 1321 b 521 1021 665 1236 564 1113 l 515 1021 b 282 1321 472 1113 371 1236 l 296 1321 m 883 972 b 969 983 922 972 951 975 l 1017 672 l 1014 672 b 703 936 907 849 854 936 l 622 936 l 622 165 b 704 3 622 74 640 39 l 704 0 l 332 0 l 332 3 b 413 165 396 39 413 74 l 413 936 l 332 936 b 22 672 181 936 129 849 l 19 672 l 67 983 b 151 972 85 975 114 972 "},"ť":{"ha":539,"x_min":0,"x_max":0,"o":"m 563 1051 b 375 750 538 947 465 822 l 369 750 b 392 1051 389 835 399 946 l 563 1051 m 521 238 b 296 -14 506 104 447 -14 b 92 208 175 -14 90 58 l 93 647 l 10 647 l 10 660 b 278 924 142 688 240 785 l 292 924 l 292 683 l 503 683 l 496 647 l 292 647 l 292 207 b 379 86 292 128 321 86 b 507 242 444 86 489 142 "},"Ŧ":{"ha":1036,"x_min":0,"x_max":0,"o":"m 704 0 l 332 0 l 332 3 b 413 165 396 39 413 74 l 413 479 l 247 479 l 247 519 l 413 519 l 413 936 l 332 936 b 22 672 181 936 129 849 l 19 672 l 67 983 b 151 972 85 975 114 972 l 883 972 b 969 983 922 972 951 975 l 1017 672 l 1014 672 b 703 936 907 849 854 936 l 622 936 l 622 519 l 788 519 l 788 479 l 622 479 l 622 165 b 704 3 622 74 640 39 "},"ŧ":{"ha":553,"x_min":0,"x_max":0,"o":"m 539 238 b 313 -14 524 104 464 -14 b 108 208 192 -14 108 58 l 110 442 l 26 442 l 26 478 l 110 478 l 110 647 l 26 647 l 26 660 b 296 924 160 688 257 785 l 308 924 l 308 683 l 519 683 l 513 647 l 308 647 l 308 478 l 506 478 l 506 442 l 308 442 l 308 207 b 397 86 308 128 339 86 b 524 242 461 86 506 142 l 539 238 "},"Ũ":{"ha":1014,"x_min":0,"x_max":0,"o":"m 804 1279 b 643 1060 783 1143 725 1060 b 422 1138 557 1060 494 1138 b 303 1050 368 1138 328 1107 l 293 1050 b 454 1269 314 1186 372 1269 b 675 1192 540 1269 603 1192 b 794 1279 729 1192 769 1222 l 804 1279 m 899 375 b 519 -14 899 119 744 -14 b 107 378 269 -14 107 118 l 107 800 b 29 969 107 892 93 933 l 29 972 l 394 972 l 394 969 b 317 800 331 933 317 892 l 317 385 b 574 61 317 181 399 61 b 857 381 736 61 857 174 l 857 761 b 746 969 857 871 822 936 l 746 972 l 1003 972 l 1003 969 b 899 767 932 933 899 871 "},"ũ":{"ha":844,"x_min":0,"x_max":0,"o":"m 678 1015 b 517 796 657 879 599 796 b 296 874 431 796 368 874 b 176 786 242 874 201 843 l 167 786 b 328 1006 188 922 246 1006 b 549 928 414 1006 476 928 b 668 1015 603 928 643 958 l 678 1015 m 549 529 b 469 681 549 618 535 646 l 469 683 l 749 683 l 749 143 b 831 3 749 54 769 33 l 831 0 l 549 0 l 549 190 b 304 -14 515 60 424 -14 b 88 228 165 -14 88 83 l 88 529 b 10 681 88 618 75 646 l 10 683 l 288 683 l 288 229 b 400 88 288 156 321 88 b 549 300 483 88 549 163 "},"Ū":{"ha":1014,"x_min":0,"x_max":0,"o":"m 343 1086 l 343 1138 l 754 1138 l 754 1086 m 899 375 b 519 -14 899 119 744 -14 b 107 378 269 -14 107 118 l 107 800 b 29 969 107 892 93 933 l 29 972 l 394 972 l 394 969 b 317 800 331 933 317 892 l 317 385 b 574 61 317 181 399 61 b 857 381 736 61 857 174 l 857 761 b 746 969 857 871 822 936 l 746 972 l 1003 972 l 1003 969 b 899 767 932 933 899 871 "},"ū":{"ha":844,"x_min":0,"x_max":0,"o":"m 217 831 l 217 882 l 628 882 l 628 831 m 549 529 b 469 681 549 618 535 646 l 469 683 l 749 683 l 749 143 b 831 3 749 54 769 33 l 831 0 l 549 0 l 549 190 b 304 -14 515 60 424 -14 b 88 228 165 -14 88 83 l 88 529 b 10 681 88 618 75 646 l 10 683 l 288 683 l 288 229 b 400 88 288 156 321 88 b 549 300 483 88 549 163 "},"Ŭ":{"ha":1014,"x_min":0,"x_max":0,"o":"m 760 1289 b 550 1035 758 1135 675 1035 b 339 1289 424 1035 339 1135 l 347 1289 b 550 1168 360 1204 464 1168 b 751 1289 633 1168 738 1204 l 760 1289 m 899 375 b 519 -14 899 119 744 -14 b 107 378 269 -14 107 118 l 107 800 b 29 969 107 892 93 933 l 29 972 l 394 972 l 394 969 b 317 800 331 933 317 892 l 317 385 b 574 61 317 181 399 61 b 857 381 736 61 857 174 l 857 761 b 746 969 857 871 822 936 l 746 972 l 1003 972 l 1003 969 b 899 767 932 933 899 871 "},"ŭ":{"ha":844,"x_min":0,"x_max":0,"o":"m 632 1044 b 422 778 632 883 547 778 b 213 1044 297 778 213 883 l 221 1044 b 422 913 233 950 338 913 b 624 1044 507 913 611 950 l 632 1044 m 549 529 b 469 681 549 618 535 646 l 469 683 l 749 683 l 749 143 b 831 3 749 54 769 33 l 831 0 l 549 0 l 549 190 b 304 -14 515 60 424 -14 b 88 228 165 -14 88 83 l 88 529 b 10 681 88 618 75 646 l 10 683 l 288 683 l 288 229 b 400 88 288 156 321 88 b 549 300 483 88 549 163 "},"Ů":{"ha":1014,"x_min":0,"x_max":0,"o":"m 549 1318 b 693 1176 626 1318 693 1253 b 549 1033 693 1097 626 1033 b 404 1176 471 1033 404 1097 b 549 1318 404 1253 471 1318 m 549 1072 b 654 1176 606 1072 654 1118 b 549 1279 654 1232 606 1279 b 444 1176 492 1279 444 1232 b 549 1072 444 1118 492 1072 m 899 375 b 519 -14 899 119 744 -14 b 107 378 269 -14 107 118 l 107 800 b 29 969 107 892 93 933 l 29 972 l 394 972 l 394 969 b 317 800 331 933 317 892 l 317 385 b 574 61 317 181 399 61 b 857 381 736 61 857 174 l 857 761 b 746 969 857 871 822 936 l 746 972 l 1003 972 l 1003 969 b 899 767 932 933 899 871 "},"ů":{"ha":844,"x_min":0,"x_max":0,"o":"m 422 1054 b 567 913 500 1054 567 989 b 422 769 567 833 500 769 b 278 913 344 769 278 833 b 422 1054 278 989 344 1054 m 422 808 b 528 913 479 808 528 854 b 422 1015 528 968 479 1015 b 318 913 365 1015 318 968 b 422 808 318 854 365 808 m 549 529 b 469 681 549 618 535 646 l 469 683 l 749 683 l 749 143 b 831 3 749 54 769 33 l 831 0 l 549 0 l 549 190 b 304 -14 515 60 424 -14 b 88 228 165 -14 88 83 l 88 529 b 10 681 88 618 75 646 l 10 683 l 288 683 l 288 229 b 400 88 288 156 321 88 b 549 300 483 88 549 163 "},"Ű":{"ha":1014,"x_min":0,"x_max":0,"o":"m 667 1285 b 401 1029 610 1185 533 1101 l 394 1029 b 468 1285 444 1110 461 1196 m 913 1285 b 647 1029 856 1185 779 1101 l 642 1029 b 714 1285 690 1110 707 1196 m 899 375 b 519 -14 899 119 744 -14 b 107 378 269 -14 107 118 l 107 800 b 29 969 107 892 93 933 l 29 972 l 394 972 l 394 969 b 317 800 331 933 317 892 l 317 385 b 574 61 317 181 399 61 b 857 381 736 61 857 174 l 857 761 b 746 969 857 871 822 936 l 746 972 l 1003 972 l 1003 969 b 899 767 932 933 899 871 "},"ű":{"ha":844,"x_min":0,"x_max":0,"o":"m 513 1040 b 249 765 457 935 379 844 l 242 765 b 322 1040 292 853 317 946 m 744 1040 b 481 765 689 935 611 844 l 474 765 b 554 1040 524 853 549 946 m 549 529 b 469 681 549 618 535 646 l 469 683 l 749 683 l 749 143 b 831 3 749 54 769 33 l 831 0 l 549 0 l 549 190 b 304 -14 515 60 424 -14 b 88 228 165 -14 88 83 l 88 529 b 10 681 88 618 75 646 l 10 683 l 288 683 l 288 229 b 400 88 288 156 321 88 b 549 300 483 88 549 163 "},"Ų":{"ha":1014,"x_min":0,"x_max":0,"o":"m 579 -332 b 436 -207 503 -332 436 -285 b 625 -3 436 -115 526 -57 b 519 -14 592 -10 556 -14 b 107 378 269 -14 107 118 l 107 800 b 29 969 107 892 93 933 l 29 972 l 394 972 l 394 969 b 317 800 331 933 317 892 l 317 385 b 574 61 317 181 399 61 b 857 381 736 61 857 174 l 857 761 b 746 969 857 871 822 936 l 746 972 l 1003 972 l 1003 969 b 899 768 932 933 899 871 l 899 375 b 689 15 899 188 824 83 b 561 -164 593 -33 561 -110 b 647 -253 561 -222 596 -253 b 775 -182 699 -253 738 -233 l 779 -185 b 579 -332 747 -267 689 -332 "},"ų":{"ha":844,"x_min":0,"x_max":0,"o":"m 694 -185 b 494 -332 663 -267 606 -332 b 353 -207 418 -332 353 -285 b 549 1 353 -112 446 -56 l 549 190 b 304 -14 515 60 424 -14 b 88 228 165 -14 88 83 l 88 529 b 10 681 88 618 75 646 l 10 683 l 288 683 l 288 229 b 400 88 288 156 321 88 b 549 300 483 88 549 163 l 549 529 b 469 681 549 618 535 646 l 469 683 l 749 683 l 749 143 b 831 3 749 54 769 33 l 831 0 l 578 0 b 478 -164 507 -58 478 -112 b 563 -253 478 -222 511 -253 b 690 -182 614 -253 654 -233 l 694 -185 "},"Ŵ":{"ha":1343,"x_min":0,"x_max":0,"o":"m 904 1018 b 682 1133 819 1049 738 1092 b 460 1018 626 1092 544 1049 l 446 1018 b 679 1318 535 1103 636 1226 l 685 1318 b 918 1018 728 1226 829 1103 l 904 1018 m 678 625 l 432 -14 l 425 -14 l 96 817 b -6 969 61 904 38 939 l -6 972 l 354 972 l 354 969 b 297 892 318 950 297 926 b 315 813 297 868 303 843 l 514 297 l 657 681 l 606 817 b 504 969 571 904 547 939 l 504 972 l 858 972 l 858 969 b 801 892 824 950 801 926 b 819 813 801 868 808 843 l 1000 292 l 1186 793 b 1197 856 1193 814 1197 836 b 1125 969 1197 903 1174 943 l 1125 972 l 1354 972 l 1354 969 b 1236 803 1307 938 1268 886 l 922 -14 l 917 -14 "},"ŵ":{"ha":1072,"x_min":0,"x_max":0,"o":"m 771 751 b 549 876 686 783 604 832 b 326 751 493 832 411 783 l 313 751 b 546 1064 401 839 503 968 l 551 1064 b 785 751 594 968 696 839 l 771 751 m 550 443 l 342 -14 l 339 -14 l 92 533 b -10 681 53 621 36 643 l -10 683 l 307 683 l 307 681 b 272 618 279 663 272 647 b 293 538 272 594 282 565 l 424 242 l 533 485 l 513 533 b 411 681 472 622 457 643 l 411 683 l 728 683 l 728 681 b 686 617 696 663 686 644 b 707 536 686 596 697 567 l 817 247 l 932 529 b 944 590 940 550 944 571 b 879 681 944 631 924 664 l 879 683 l 1082 683 l 1082 681 b 975 531 1035 643 1015 622 l 743 -14 l 740 -14 "},"Ŷ":{"ha":951,"x_min":0,"x_max":0,"o":"m 729 1018 b 507 1133 644 1049 563 1092 b 285 1018 451 1092 369 1049 l 271 1018 b 504 1318 360 1103 461 1226 l 510 1318 b 743 1018 553 1226 654 1103 l 729 1018 m 772 810 b 793 878 786 833 793 856 b 731 969 793 914 774 947 l 731 972 l 957 972 l 957 969 b 824 817 900 931 864 883 l 574 407 l 574 165 b 654 3 574 74 590 39 l 654 0 l 292 0 l 292 3 b 374 165 356 39 374 74 l 374 407 l 118 825 b -6 969 78 892 49 929 l -6 972 l 374 972 l 374 969 b 322 890 339 946 322 925 b 343 826 322 872 328 851 l 560 460 "},"ŷ":{"ha":736,"x_min":0,"x_max":0,"o":"m 621 751 b 399 876 536 783 454 832 b 176 751 343 832 261 783 l 163 751 b 396 1064 251 839 353 968 l 401 1064 b 635 751 444 968 546 839 l 621 751 m 371 -24 l 94 533 b -10 681 50 622 36 642 l -10 683 l 321 683 l 321 681 b 281 618 289 663 281 646 b 303 536 281 596 289 565 l 461 203 l 596 524 b 610 590 606 547 610 569 b 546 681 610 632 588 664 l 546 683 l 746 683 l 746 681 b 638 524 697 644 676 615 l 354 -143 b 156 -321 303 -262 246 -321 b 18 -200 76 -321 18 -276 b 128 -89 18 -129 68 -89 b 172 -97 144 -89 157 -92 b 132 -162 144 -110 132 -131 b 207 -236 132 -206 163 -236 b 329 -118 260 -236 293 -199 "},"Ÿ":{"ha":951,"x_min":0,"x_max":0,"o":"m 368 1049 b 263 1156 308 1049 263 1097 b 368 1264 263 1214 308 1264 b 475 1156 428 1264 475 1214 b 368 1049 475 1097 428 1049 m 644 1049 b 538 1156 586 1049 538 1097 b 644 1264 538 1214 586 1264 b 751 1156 704 1264 751 1214 b 644 1049 751 1097 704 1049 m 772 810 b 793 878 786 833 793 856 b 731 969 793 914 774 947 l 731 972 l 957 972 l 957 969 b 824 817 900 931 864 883 l 574 407 l 574 165 b 654 3 574 74 590 39 l 654 0 l 292 0 l 292 3 b 374 165 356 39 374 74 l 374 407 l 118 825 b -6 969 78 892 49 929 l -6 972 l 374 972 l 374 969 b 322 890 339 946 322 925 b 343 826 322 872 328 851 l 560 460 "},"Ź":{"ha":943,"x_min":0,"x_max":0,"o":"m 663 1285 b 386 1029 606 1185 518 1101 l 381 1029 b 453 1285 429 1110 446 1196 m 38 0 l 38 3 l 633 936 l 382 936 b 72 692 221 936 158 838 l 69 692 l 117 983 b 201 972 135 975 164 972 l 886 972 l 886 969 l 299 36 l 564 36 b 897 306 732 36 789 111 l 900 306 l 857 0 "},"ź":{"ha":717,"x_min":0,"x_max":0,"o":"m 547 1040 b 272 765 492 935 403 844 l 267 765 b 343 1040 315 853 338 946 m 307 653 b 54 453 194 653 147 592 l 51 453 l 71 694 b 156 683 90 688 119 683 l 671 683 l 671 681 l 260 29 l 379 31 b 681 251 522 31 571 89 l 683 251 l 643 0 l 25 0 l 25 3 l 439 653 "},"Ż":{"ha":943,"x_min":0,"x_max":0,"o":"m 357 1160 b 476 1276 357 1225 408 1276 b 596 1160 543 1276 596 1225 b 476 1044 596 1096 543 1044 b 357 1160 408 1044 357 1096 m 38 0 l 38 3 l 633 936 l 382 936 b 72 692 221 936 158 838 l 69 692 l 117 983 b 201 972 135 975 164 972 l 886 972 l 886 969 l 299 36 l 564 36 b 897 306 732 36 789 111 l 900 306 l 857 0 "},"ż":{"ha":717,"x_min":0,"x_max":0,"o":"m 247 906 b 367 1022 247 971 299 1022 b 486 906 433 1022 486 971 b 367 792 486 842 433 792 b 247 906 299 792 247 842 m 307 653 b 54 453 194 653 147 592 l 51 453 l 71 694 b 156 683 90 688 119 683 l 671 683 l 671 681 l 260 29 l 379 31 b 681 251 522 31 571 89 l 683 251 l 643 0 l 25 0 l 25 3 l 439 653 "},"Ž":{"ha":943,"x_min":0,"x_max":0,"o":"m 254 1321 b 476 1206 339 1290 421 1247 b 699 1321 532 1247 614 1290 l 713 1321 b 479 1021 624 1236 522 1113 l 474 1021 b 240 1321 431 1113 329 1236 l 254 1321 m 38 0 l 38 3 l 633 936 l 382 936 b 72 692 221 936 158 838 l 69 692 l 117 983 b 201 972 135 975 164 972 l 886 972 l 886 969 l 299 36 l 564 36 b 897 306 732 36 789 111 l 900 306 l 857 0 "},"ž":{"ha":717,"x_min":0,"x_max":0,"o":"m 144 1064 b 367 940 229 1033 311 983 b 589 1064 422 983 504 1033 l 603 1064 b 369 751 514 976 413 849 l 364 751 b 131 1064 321 849 219 976 l 144 1064 m 307 653 b 54 453 194 653 147 592 l 51 453 l 71 694 b 156 683 90 688 119 683 l 671 683 l 671 681 l 260 29 l 379 31 b 681 251 522 31 571 89 l 683 251 l 643 0 l 25 0 l 25 3 l 439 653 "},"ƒ":{"ha":799,"x_min":0,"x_max":0,"o":"m 57 -279 b -154 -146 -64 -279 -154 -235 b -46 -49 -154 -87 -107 -49 b 42 -76 -11 -49 24 -61 b -25 -165 1 -81 -25 -110 b 57 -257 -25 -219 6 -257 b 154 -111 118 -257 143 -192 l 239 472 l 111 472 l 117 501 l 243 501 l 272 704 b 578 986 297 874 400 986 b 792 851 699 986 792 943 b 681 753 792 792 743 753 b 590 781 644 753 610 764 b 658 874 632 785 658 817 b 578 964 658 929 629 964 b 481 819 517 964 492 901 l 435 501 l 596 501 l 590 472 l 431 472 l 367 31 b 57 -279 338 -167 235 -279 "},"Ǽ":{"ha":1482,"x_min":0,"x_max":0,"o":"m 1156 1285 b 879 1029 1099 1185 1011 1101 l 874 1029 b 946 1285 922 1110 939 1196 m 351 407 l 697 407 l 697 931 m 233 0 l 0 0 l 0 3 b 133 154 51 33 81 75 l 593 847 b 607 892 603 864 607 878 b 533 969 607 921 583 940 l 533 972 l 1282 972 b 1367 983 1319 972 1349 975 l 1414 725 l 1411 725 b 1093 936 1335 861 1260 936 l 907 936 l 907 518 l 1060 518 b 1258 675 1172 518 1214 546 l 1261 675 l 1261 335 l 1258 335 b 1060 479 1214 463 1172 479 l 907 479 l 907 36 l 1118 36 b 1449 272 1290 36 1371 131 l 1451 272 l 1407 0 l 621 0 l 621 3 b 697 172 685 39 697 81 l 697 368 l 325 368 l 199 176 b 168 89 178 144 168 117 b 233 3 168 50 189 21 "},"ǽ":{"ha":1154,"x_min":0,"x_max":0,"o":"m 796 1040 b 521 765 740 935 651 844 l 515 765 b 592 1040 564 853 586 946 m 1119 218 b 810 -14 1085 71 965 -14 b 496 178 672 -14 551 54 b 242 -10 467 86 382 -10 b 39 164 132 -10 39 46 b 361 375 39 317 194 344 l 467 394 l 467 513 b 339 671 467 596 432 671 b 224 563 260 671 224 622 b 289 482 224 511 249 482 b 313 486 297 482 304 483 b 192 411 293 436 249 411 b 71 522 124 411 71 454 b 343 697 71 622 182 697 b 569 593 458 697 532 658 b 810 697 631 657 717 697 b 1122 371 1024 697 1122 557 l 664 371 b 897 81 664 194 754 81 b 1110 222 989 81 1068 125 l 1119 218 m 925 400 b 808 671 925 550 907 671 b 665 400 726 671 669 564 m 394 354 b 239 192 286 332 239 285 b 333 72 239 113 275 72 b 467 247 413 72 467 140 l 467 369 "},"Ǿ":{"ha":1064,"x_min":0,"x_max":0,"o":"m 718 1285 b 442 1029 661 1185 574 1101 l 436 1029 b 508 1285 485 1110 501 1196 m 272 486 b 294 253 272 397 279 319 l 761 753 b 532 957 722 882 649 957 b 272 486 350 957 272 776 m 532 15 b 792 486 714 15 792 196 b 771 714 792 572 785 649 l 306 214 b 532 15 343 88 417 15 m 532 -14 b 204 107 404 -14 290 31 l 90 -17 l 64 6 l 181 131 b 42 486 94 218 42 342 b 532 986 42 778 256 986 b 863 863 661 986 776 940 l 971 978 l 997 957 l 888 839 b 1022 486 971 751 1022 628 b 532 -14 1022 194 808 -14 "},"ǿ":{"ha":799,"x_min":0,"x_max":0,"o":"m 581 1040 b 306 765 525 935 436 844 l 300 765 b 376 1040 349 853 371 946 m 249 342 b 257 207 249 292 251 247 l 536 504 b 399 671 515 610 471 671 b 249 342 297 671 249 546 m 399 11 b 550 342 501 11 550 138 b 543 461 550 386 547 425 l 265 165 b 399 11 286 68 331 11 m 399 -14 b 167 61 310 -14 229 14 l 92 -18 l 65 4 l 140 83 b 33 342 74 146 33 236 b 399 697 33 553 194 697 b 642 614 493 697 576 667 l 717 694 l 742 672 l 665 592 b 765 342 728 529 765 443 b 399 -14 765 131 604 -14 "},"Ș":{"ha":808,"x_min":0,"x_max":0,"o":"m 390 957 b 211 789 293 957 211 899 b 429 596 211 671 313 631 b 764 279 585 550 764 503 b 407 -14 764 85 594 -14 b 160 31 294 -14 217 31 b 65 -14 121 31 94 11 l 44 301 l 47 301 b 406 15 133 125 268 15 b 607 197 524 15 607 81 b 338 410 607 333 474 367 b 54 701 197 453 54 508 b 390 986 54 875 197 986 b 621 943 497 986 569 943 b 703 986 660 943 682 967 l 708 706 l 706 706 b 390 957 629 850 536 957 m 521 -192 b 292 -371 521 -300 432 -368 l 292 -350 b 450 -235 396 -340 446 -301 b 382 -256 436 -247 410 -256 b 290 -161 329 -256 290 -212 b 396 -61 290 -104 336 -61 b 521 -192 469 -61 521 -114 "},"ș":{"ha":650,"x_min":0,"x_max":0,"o":"m 296 671 b 182 572 224 671 182 629 b 351 446 182 507 218 483 b 604 207 533 394 604 332 b 335 -14 604 67 486 -14 b 129 18 239 -14 176 18 b 63 -14 97 18 81 3 l 47 243 l 50 243 b 335 11 121 96 210 11 b 465 126 408 11 465 51 b 288 254 465 201 399 224 b 54 492 122 301 54 369 b 296 697 54 618 163 697 b 481 663 382 697 432 663 b 556 697 510 663 531 676 l 556 471 l 553 471 b 296 671 496 588 399 671 m 446 -192 b 217 -371 446 -300 357 -368 l 217 -350 b 375 -235 321 -340 371 -301 b 307 -256 361 -247 335 -256 b 215 -161 254 -256 215 -212 b 321 -61 215 -104 261 -61 b 446 -192 394 -61 446 -114 "},"Ț":{"ha":1036,"x_min":0,"x_max":0,"o":"m 883 972 b 969 983 922 972 951 975 l 1017 672 l 1014 672 b 703 936 907 849 854 936 l 622 936 l 622 165 b 704 3 622 74 640 39 l 704 0 l 332 0 l 332 3 b 413 165 396 39 413 74 l 413 936 l 332 936 b 22 672 181 936 129 849 l 19 672 l 67 983 b 151 972 85 975 114 972 m 638 -192 b 408 -371 638 -300 549 -368 l 408 -350 b 567 -235 513 -340 563 -301 b 499 -256 553 -247 526 -256 b 407 -161 446 -256 407 -212 b 513 -61 407 -104 453 -61 b 638 -192 586 -61 638 -114 "},"ț":{"ha":539,"x_min":0,"x_max":0,"o":"m 521 238 b 296 -14 506 104 447 -14 b 92 208 175 -14 90 58 l 93 647 l 10 647 l 10 660 b 278 924 142 688 240 785 l 292 924 l 292 683 l 503 683 l 496 647 l 292 647 l 292 207 b 379 86 292 128 321 86 b 507 242 444 86 489 142 m 385 -192 b 156 -371 385 -300 296 -368 l 156 -350 b 314 -235 260 -340 310 -301 b 246 -256 300 -247 274 -256 b 154 -161 193 -256 154 -212 b 260 -61 154 -104 200 -61 b 385 -192 333 -61 385 -114 "},"ȷ":{"ha":375,"x_min":0,"x_max":0,"o":"m 293 -50 b -4 -321 293 -242 160 -321 b -221 -185 -125 -321 -221 -275 b -106 -87 -221 -126 -171 -87 b -19 -114 -71 -87 -37 -99 b -83 -204 -57 -124 -83 -153 b 0 -299 -83 -262 -56 -299 b 93 -132 68 -299 93 -240 l 93 529 b 15 681 93 618 81 646 l 15 683 l 293 683 l 293 -50 "},"ʻ":{"ha":694,"x_min":0,"x_max":0,"o":"m 228 899 b 457 1076 228 1006 317 1075 l 457 1056 b 299 942 353 1046 303 1007 b 367 963 313 953 339 963 b 458 868 419 963 458 918 b 353 768 458 810 413 768 b 228 899 279 768 228 819 "},"ˆ":{"ha":694,"x_min":0,"x_max":0,"o":"m 569 751 b 347 876 485 783 403 832 b 125 751 292 832 210 783 l 111 751 b 344 1064 200 839 301 968 l 350 1064 b 583 751 393 968 494 839 l 569 751 "},"ˇ":{"ha":694,"x_min":0,"x_max":0,"o":"m 125 1064 b 347 940 210 1033 292 983 b 569 1064 403 983 485 1033 l 583 1064 b 350 751 494 976 393 849 l 344 751 b 111 1064 301 849 200 976 l 125 1064 "},"˘":{"ha":694,"x_min":0,"x_max":0,"o":"m 557 1044 b 347 778 557 883 472 778 b 138 1044 222 778 138 883 l 146 1044 b 347 913 158 950 263 913 b 549 1044 432 913 536 950 l 557 1044 "},"˙":{"ha":694,"x_min":0,"x_max":0,"o":"m 228 906 b 347 1022 228 971 279 1022 b 467 906 414 1022 467 971 b 347 792 467 842 414 792 b 228 906 279 792 228 842 "},"˚":{"ha":694,"x_min":0,"x_max":0,"o":"m 347 1054 b 492 913 425 1054 492 989 b 347 769 492 833 425 769 b 203 913 269 769 203 833 b 347 1054 203 989 269 1054 m 347 808 b 453 913 404 808 453 854 b 347 1015 453 968 404 1015 b 243 913 290 1015 243 968 b 347 808 243 854 290 808 "},"˛":{"ha":694,"x_min":0,"x_max":0,"o":"m 189 -207 b 431 26 189 -99 313 -39 l 436 17 b 314 -164 349 -47 314 -108 b 399 -253 314 -222 347 -253 b 526 -182 450 -253 490 -233 l 531 -185 b 331 -332 499 -267 442 -332 b 189 -207 254 -332 189 -285 "},"˜":{"ha":694,"x_min":0,"x_max":0,"o":"m 603 1015 b 442 796 582 879 524 796 b 221 874 356 796 293 874 b 101 786 167 874 126 843 l 92 786 b 253 1006 113 922 171 1006 b 474 928 339 1006 401 928 b 593 1015 528 928 568 958 l 603 1015 "},"˝":{"ha":694,"x_min":0,"x_max":0,"o":"m 367 1040 b 103 765 311 935 233 844 l 96 765 b 176 1040 146 853 171 946 m 599 1040 b 335 765 543 935 465 844 l 328 765 b 408 1040 378 853 403 946 "},"Ẁ":{"ha":1343,"x_min":0,"x_max":0,"o":"m 689 1285 b 761 1029 696 1196 711 1110 l 754 1029 b 479 1285 624 1101 535 1185 l 689 1285 m 678 625 l 432 -14 l 425 -14 l 96 817 b -6 969 61 904 38 939 l -6 972 l 354 972 l 354 969 b 297 892 318 950 297 926 b 315 813 297 868 303 843 l 514 297 l 657 681 l 606 817 b 504 969 571 904 547 939 l 504 972 l 858 972 l 858 969 b 801 892 824 950 801 926 b 819 813 801 868 808 843 l 1000 292 l 1186 793 b 1197 856 1193 814 1197 836 b 1125 969 1197 903 1174 943 l 1125 972 l 1354 972 l 1354 969 b 1236 803 1307 938 1268 886 l 922 -14 l 917 -14 "},"ẁ":{"ha":1072,"x_min":0,"x_max":0,"o":"m 546 1040 b 624 765 551 946 574 853 l 617 765 b 343 1040 486 844 399 935 l 546 1040 m 550 443 l 342 -14 l 339 -14 l 92 533 b -10 681 53 621 36 643 l -10 683 l 307 683 l 307 681 b 272 618 279 663 272 647 b 293 538 272 594 282 565 l 424 242 l 533 485 l 513 533 b 411 681 472 622 457 643 l 411 683 l 728 683 l 728 681 b 686 617 696 663 686 644 b 707 536 686 596 697 567 l 817 247 l 932 529 b 944 590 940 550 944 571 b 879 681 944 631 924 664 l 879 683 l 1082 683 l 1082 681 b 975 531 1035 643 1015 622 l 743 -14 l 740 -14 "},"Ẃ":{"ha":1343,"x_min":0,"x_max":0,"o":"m 867 1285 b 590 1029 810 1185 722 1101 l 585 1029 b 657 1285 633 1110 650 1196 m 678 625 l 432 -14 l 425 -14 l 96 817 b -6 969 61 904 38 939 l -6 972 l 354 972 l 354 969 b 297 892 318 950 297 926 b 315 813 297 868 303 843 l 514 297 l 657 681 l 606 817 b 504 969 571 904 547 939 l 504 972 l 858 972 l 858 969 b 801 892 824 950 801 926 b 819 813 801 868 808 843 l 1000 292 l 1186 793 b 1197 856 1193 814 1197 836 b 1125 969 1197 903 1174 943 l 1125 972 l 1354 972 l 1354 969 b 1236 803 1307 938 1268 886 l 922 -14 l 917 -14 "},"ẃ":{"ha":1072,"x_min":0,"x_max":0,"o":"m 729 1040 b 454 765 674 935 585 844 l 449 765 b 525 1040 497 853 519 946 m 550 443 l 342 -14 l 339 -14 l 92 533 b -10 681 53 621 36 643 l -10 683 l 307 683 l 307 681 b 272 618 279 663 272 647 b 293 538 272 594 282 565 l 424 242 l 533 485 l 513 533 b 411 681 472 622 457 643 l 411 683 l 728 683 l 728 681 b 686 617 696 663 686 644 b 707 536 686 596 697 567 l 817 247 l 932 529 b 944 590 940 550 944 571 b 879 681 944 631 924 664 l 879 683 l 1082 683 l 1082 681 b 975 531 1035 643 1015 622 l 743 -14 l 740 -14 "},"Ẅ":{"ha":1343,"x_min":0,"x_max":0,"o":"m 543 1049 b 438 1156 483 1049 438 1097 b 543 1264 438 1214 483 1264 b 650 1156 603 1264 650 1214 b 543 1049 650 1097 603 1049 m 819 1049 b 713 1156 761 1049 713 1097 b 819 1264 713 1214 761 1264 b 926 1156 879 1264 926 1214 b 819 1049 926 1097 879 1049 m 678 625 l 432 -14 l 425 -14 l 96 817 b -6 969 61 904 38 939 l -6 972 l 354 972 l 354 969 b 297 892 318 950 297 926 b 315 813 297 868 303 843 l 514 297 l 657 681 l 606 817 b 504 969 571 904 547 939 l 504 972 l 858 972 l 858 969 b 801 892 824 950 801 926 b 819 813 801 868 808 843 l 1000 292 l 1186 793 b 1197 856 1193 814 1197 836 b 1125 969 1197 903 1174 943 l 1125 972 l 1354 972 l 1354 969 b 1236 803 1307 938 1268 886 l 922 -14 l 917 -14 "},"ẅ":{"ha":1072,"x_min":0,"x_max":0,"o":"m 410 783 b 304 890 350 783 304 832 b 410 999 304 949 350 999 b 517 890 469 999 517 949 b 410 783 517 832 469 783 m 686 783 b 579 890 628 783 579 832 b 686 999 579 949 628 999 b 793 890 746 999 793 949 b 686 783 793 832 746 783 m 550 443 l 342 -14 l 339 -14 l 92 533 b -10 681 53 621 36 643 l -10 683 l 307 683 l 307 681 b 272 618 279 663 272 647 b 293 538 272 594 282 565 l 424 242 l 533 485 l 513 533 b 411 681 472 622 457 643 l 411 683 l 728 683 l 728 681 b 686 617 696 663 686 644 b 707 536 686 596 697 567 l 817 247 l 932 529 b 944 590 940 550 944 571 b 879 681 944 631 924 664 l 879 683 l 1082 683 l 1082 681 b 975 531 1035 643 1015 622 l 743 -14 l 740 -14 "},"Ỳ":{"ha":951,"x_min":0,"x_max":0,"o":"m 514 1285 b 586 1029 521 1196 536 1110 l 579 1029 b 304 1285 449 1101 360 1185 l 514 1285 m 772 810 b 793 878 786 833 793 856 b 731 969 793 914 774 947 l 731 972 l 957 972 l 957 969 b 824 817 900 931 864 883 l 574 407 l 574 165 b 654 3 574 74 590 39 l 654 0 l 292 0 l 292 3 b 374 165 356 39 374 74 l 374 407 l 118 825 b -6 969 78 892 49 929 l -6 972 l 374 972 l 374 969 b 322 890 339 946 322 925 b 343 826 322 872 328 851 l 560 460 "},"ỳ":{"ha":736,"x_min":0,"x_max":0,"o":"m 397 1040 b 475 765 403 946 425 853 l 468 765 b 194 1040 338 844 250 935 l 397 1040 m 371 -24 l 94 533 b -10 681 50 622 36 642 l -10 683 l 321 683 l 321 681 b 281 618 289 663 281 646 b 303 536 281 596 289 565 l 461 203 l 596 524 b 610 590 606 547 610 569 b 546 681 610 632 588 664 l 546 683 l 746 683 l 746 681 b 638 524 697 644 676 615 l 354 -143 b 156 -321 303 -262 246 -321 b 18 -200 76 -321 18 -276 b 128 -89 18 -129 68 -89 b 172 -97 144 -89 157 -92 b 132 -162 144 -110 132 -131 b 207 -236 132 -206 163 -236 b 329 -118 260 -236 293 -199 "}," ":{"ha":56,"x_min":0,"x_max":0,"o":""},"–":{"ha":685,"x_min":0,"x_max":0,"o":"m 50 418 l 633 418 l 633 363 l 50 363 "},"—":{"ha":1101,"x_min":0,"x_max":0,"o":"m 50 418 l 1050 418 l 1050 363 l 50 363 "},"‘":{"ha":317,"x_min":0,"x_max":0,"o":"m 101 800 b 178 829 117 818 143 829 b 276 729 232 829 276 789 b 160 619 276 664 226 619 b 28 774 81 619 28 682 b 297 1011 28 919 146 1010 l 297 989 b 101 800 186 979 93 919 "},"’":{"ha":317,"x_min":0,"x_max":0,"o":"m 215 831 b 139 801 200 813 174 801 b 40 901 85 801 40 842 b 157 1011 40 967 90 1011 b 289 857 236 1011 289 949 b 19 619 289 711 171 621 l 19 642 b 215 831 131 651 224 711 "},"‚":{"ha":317,"x_min":0,"x_max":0,"o":"m 215 35 b 139 6 200 17 174 6 b 40 106 85 6 40 46 b 157 215 40 171 90 215 b 289 61 236 215 289 153 b 19 -176 289 -85 171 -175 l 19 -154 b 215 35 131 -144 224 -85 "},"“":{"ha":615,"x_min":0,"x_max":0,"o":"m 400 800 b 476 829 415 818 442 829 b 575 729 531 829 575 789 b 458 619 575 664 525 619 b 326 774 379 619 326 682 b 596 1011 326 919 444 1010 l 596 989 b 400 800 485 979 392 919 m 101 800 b 178 829 117 818 143 829 b 276 729 232 829 276 789 b 160 619 276 664 226 619 b 28 774 81 619 28 682 b 297 1011 28 919 146 1010 l 297 989 b 101 800 186 979 93 919 "},"”":{"ha":615,"x_min":0,"x_max":0,"o":"m 514 832 b 438 803 499 814 472 803 b 339 903 383 803 339 843 b 456 1013 339 968 389 1013 b 588 858 535 1013 588 950 b 318 621 588 713 469 622 l 318 643 b 514 832 429 653 522 713 m 215 832 b 139 803 200 814 174 803 b 40 903 85 803 40 843 b 157 1013 40 968 90 1013 b 289 858 236 1013 289 950 b 19 621 289 713 171 622 l 19 643 b 215 832 131 653 224 713 "},"„":{"ha":615,"x_min":0,"x_max":0,"o":"m 514 35 b 438 6 499 17 472 6 b 339 106 383 6 339 46 b 456 215 339 171 389 215 b 588 61 535 215 588 153 b 318 -176 588 -85 469 -175 l 318 -154 b 514 35 429 -144 522 -85 m 215 35 b 139 6 200 17 174 6 b 40 106 85 6 40 46 b 157 215 40 171 90 215 b 289 61 236 215 289 153 b 19 -176 289 -85 171 -175 l 19 -154 b 215 35 131 -144 224 -85 "},"†":{"ha":589,"x_min":0,"x_max":0,"o":"m 363 767 b 300 289 363 767 304 513 l 289 289 b 226 767 285 513 226 767 b 183 811 222 788 207 807 b 103 739 171 768 140 739 b 47 794 72 739 47 760 b 101 857 47 825 71 849 b 136 822 106 829 119 822 b 197 833 157 822 172 833 b 285 785 225 833 269 810 b 213 993 278 860 253 933 b 294 1040 231 1021 261 1040 b 376 993 328 1040 358 1021 b 304 785 336 933 311 860 b 392 833 319 810 364 833 b 453 822 417 833 432 822 b 488 857 469 822 483 829 b 542 794 518 849 542 825 b 486 739 542 760 517 739 b 406 811 449 739 418 768 b 363 767 382 807 367 788 "},"‡":{"ha":589,"x_min":0,"x_max":0,"o":"m 290 647 b 178 868 276 750 208 850 b 103 794 165 825 140 794 b 47 850 72 794 47 814 b 101 911 47 879 71 904 b 136 876 106 885 119 876 b 197 889 157 876 172 889 b 286 844 225 889 271 871 b 213 992 279 910 253 950 b 294 1040 228 1021 261 1040 b 376 992 328 1040 361 1021 b 303 844 336 950 310 910 b 392 889 318 871 364 889 b 453 876 417 889 432 876 b 488 911 469 876 483 885 b 542 850 518 904 542 879 b 486 794 542 814 517 794 b 411 868 449 794 424 825 b 299 647 381 850 313 750 m 299 621 b 411 401 313 519 381 418 b 486 475 424 444 449 475 b 542 419 517 475 542 454 b 488 357 542 389 518 365 b 453 392 483 385 469 392 b 392 381 432 392 417 381 b 303 424 364 381 318 399 b 376 278 310 358 336 318 b 294 228 361 247 328 228 b 213 278 261 228 228 247 b 286 424 253 318 279 358 b 197 381 271 399 225 381 b 136 392 172 381 157 392 b 101 357 119 392 106 385 b 47 419 71 365 47 389 b 103 475 47 454 72 475 b 178 401 140 475 165 444 b 290 621 208 418 276 519 l 299 621 "},"•":{"ha":492,"x_min":0,"x_max":0,"o":"m 50 383 b 246 579 50 490 139 579 b 440 383 353 579 440 490 b 246 188 440 276 353 188 b 50 383 139 188 50 276 "},"…":{"ha":922,"x_min":0,"x_max":0,"o":"m 286 111 b 165 -11 286 43 233 -11 b 43 111 96 -11 43 43 b 165 233 43 179 96 233 b 286 111 233 233 286 179 m 582 111 b 461 -11 582 43 529 -11 b 339 111 392 -11 339 43 b 461 233 339 179 392 233 b 582 111 529 233 582 179 m 878 111 b 757 -11 878 43 825 -11 b 635 111 688 -11 635 43 b 757 233 635 179 688 233 b 878 111 825 233 878 179 "},"‰":{"ha":1407,"x_min":0,"x_max":0,"o":"m 158 0 l 692 935 b 518 872 658 906 596 872 b 419 889 482 872 451 878 b 457 772 442 856 457 815 b 242 558 457 654 358 558 b 28 772 125 558 28 654 b 242 986 28 890 125 986 b 519 901 356 986 386 901 b 733 999 621 901 671 939 l 749 986 l 217 0 m 242 583 b 321 772 304 583 321 660 b 242 961 321 885 304 961 b 163 772 181 961 163 885 b 242 583 163 660 181 583 m 1379 207 b 1165 -7 1379 88 1282 -7 b 951 207 1049 -7 951 88 b 1165 419 951 325 1049 419 b 1379 207 1282 419 1379 325 m 689 -7 b 474 207 572 -7 474 88 b 689 419 474 325 572 419 b 903 207 806 419 903 325 b 689 -7 903 88 806 -7 m 1165 17 b 1244 207 1228 17 1244 94 b 1165 396 1244 318 1228 396 b 1086 207 1103 396 1086 318 b 1165 17 1086 94 1103 17 m 689 17 b 768 207 750 17 768 94 b 689 396 768 318 750 396 b 610 207 626 396 610 318 b 689 17 610 94 626 17 "},"‹":{"ha":408,"x_min":0,"x_max":0,"o":"m 22 340 b 375 610 139 401 276 499 l 381 610 b 226 339 336 497 276 404 b 381 68 276 274 336 181 l 375 68 b 22 338 276 179 139 276 "},"›":{"ha":408,"x_min":0,"x_max":0,"o":"m 396 338 b 44 68 279 276 142 179 l 39 68 b 192 339 83 181 142 274 b 39 610 142 404 83 497 l 44 610 b 396 340 142 499 279 401 "},"⁄":{"ha":485,"x_min":0,"x_max":0,"o":"m 411 1040 l 457 1040 l 46 -171 l 0 -171 "},"€":{"ha":908,"x_min":0,"x_max":0,"o":"m 874 292 b 521 -14 839 85 700 -14 b 126 406 318 -14 150 142 l 40 406 l 40 435 l 125 435 b 124 469 124 446 124 457 b 126 539 124 493 125 517 l 40 539 l 40 568 l 131 568 b 576 986 165 821 339 986 b 856 789 724 986 856 915 b 726 663 856 708 800 663 b 617 725 679 663 633 686 b 635 724 622 724 628 724 b 721 824 685 724 721 761 b 576 961 721 903 675 961 b 335 568 432 961 349 801 l 621 568 l 610 539 l 333 539 b 332 496 332 525 332 511 b 335 435 332 475 333 454 l 578 435 l 567 406 l 338 406 b 603 90 361 200 468 90 b 865 292 725 90 814 144 l 874 292 "},"℗":{"ha":1125,"x_min":0,"x_max":0,"o":"m 1063 486 b 563 -14 1063 196 839 -14 b 63 486 286 -14 63 196 b 563 986 63 776 286 986 b 1063 486 839 986 1063 776 m 1035 486 b 563 958 1035 760 824 958 b 90 486 301 958 90 760 b 563 14 90 213 301 14 b 1035 486 824 14 1035 213 m 510 297 b 574 208 510 243 526 233 l 574 206 l 325 206 l 325 208 b 372 297 361 233 372 243 l 372 683 b 325 771 372 736 361 746 l 325 774 l 617 774 b 836 607 751 774 836 715 b 617 442 836 499 750 442 l 510 442 m 567 465 b 700 607 656 465 700 519 b 567 750 700 696 656 750 l 510 750 l 510 465 "},"™":{"ha":1204,"x_min":0,"x_max":0,"o":"m 457 972 b 493 976 475 972 485 974 l 511 828 l 507 828 b 381 947 474 888 443 947 l 340 947 l 340 617 b 382 549 340 576 353 568 l 382 546 l 178 546 l 178 549 b 219 617 207 568 219 576 l 219 947 l 178 947 b 53 828 117 947 85 888 l 49 828 l 67 976 b 103 972 75 974 85 972 m 950 972 l 1108 972 l 1108 969 b 1072 903 1079 950 1072 943 l 1072 615 b 1108 549 1072 575 1079 569 l 1108 546 l 919 546 l 919 549 b 951 615 947 569 951 575 l 951 914 l 786 540 l 783 540 l 621 914 l 621 615 b 658 549 621 575 629 569 l 658 546 l 551 546 l 551 549 b 589 615 581 569 589 575 l 589 899 b 551 969 589 939 581 950 l 551 972 l 722 972 l 838 715 "},"⅓":{"ha":563,"x_min":0,"x_max":0,"o":"m 222 917 b 154 964 222 946 208 953 l 154 972 l 338 972 l 338 625 b 404 578 338 596 350 589 l 404 569 l 156 569 l 156 578 b 222 625 210 589 222 596 l 222 917 m 535 497 l 535 475 l 28 475 l 28 497 m 271 15 b 329 110 308 15 329 58 b 251 210 329 176 304 210 l 251 221 b 318 315 303 224 318 260 b 272 389 318 357 304 389 b 224 333 242 389 224 364 b 254 283 224 304 235 283 b 267 286 260 283 263 285 l 269 285 b 210 257 261 269 242 257 b 143 319 169 257 143 282 b 272 408 143 378 201 408 b 428 310 360 408 428 374 b 317 219 428 253 379 225 b 443 111 388 214 443 179 b 271 -6 443 33 367 -6 b 121 93 192 -6 121 26 b 197 164 121 139 154 164 b 260 133 232 164 251 150 l 256 132 b 244 136 253 135 249 136 b 213 82 224 136 213 114 b 271 15 213 43 236 15 "},"⅔":{"ha":563,"x_min":0,"x_max":0,"o":"m 264 957 b 203 896 225 957 203 929 b 247 836 203 857 224 836 b 272 846 260 836 265 839 l 276 846 b 204 794 264 810 236 794 b 128 872 161 794 128 825 b 264 978 128 939 186 978 b 431 860 353 978 431 946 b 218 656 431 774 353 721 l 321 656 b 432 704 385 657 404 663 l 438 704 l 422 569 l 115 569 l 115 572 b 321 885 282 739 321 794 b 264 957 321 922 306 957 m 535 497 l 535 475 l 28 475 l 28 497 m 271 15 b 329 110 308 15 329 58 b 251 210 329 176 304 210 l 251 221 b 318 315 303 224 318 260 b 272 389 318 357 304 389 b 224 333 242 389 224 364 b 254 283 224 304 235 283 b 267 286 260 283 263 285 l 269 285 b 210 257 261 269 242 257 b 143 319 169 257 143 282 b 272 408 143 378 201 408 b 428 310 360 408 428 374 b 317 219 428 253 379 225 b 443 111 388 214 443 179 b 271 -6 443 33 367 -6 b 121 93 192 -6 121 26 b 197 164 121 139 154 164 b 260 133 232 164 251 150 l 256 132 b 244 136 253 135 249 136 b 213 82 224 136 213 114 b 271 15 213 43 236 15 "},"⅛":{"ha":563,"x_min":0,"x_max":0,"o":"m 231 917 b 163 964 231 946 217 953 l 163 972 l 346 972 l 346 625 b 413 578 346 596 358 589 l 413 569 l 164 569 l 164 578 b 231 625 218 589 231 596 l 231 917 m 535 497 l 535 475 l 28 475 l 28 497 m 338 253 b 450 124 414 226 450 183 b 289 -6 450 38 378 -6 b 125 93 197 -6 125 29 b 218 175 125 142 167 167 b 142 285 176 193 142 232 b 285 408 142 367 208 408 b 422 324 360 408 422 379 b 338 253 422 279 378 256 m 222 338 b 275 278 224 308 242 292 l 331 256 b 358 322 347 271 358 292 b 285 388 358 363 332 388 b 222 338 246 388 222 368 m 225 172 b 194 101 204 157 194 133 b 289 17 194 51 233 17 b 365 71 336 17 365 39 b 299 142 365 110 340 124 l 225 172 "},"⅜":{"ha":563,"x_min":0,"x_max":0,"o":"m 279 585 b 338 679 317 585 338 628 b 260 779 338 746 313 779 l 260 790 b 326 885 311 793 326 829 b 281 958 326 926 313 958 b 232 903 250 958 232 933 b 263 853 232 874 243 853 b 275 856 268 853 271 854 l 278 854 b 218 826 269 839 250 826 b 151 889 178 826 151 851 b 281 978 151 947 210 978 b 436 879 368 978 436 943 b 325 789 436 822 388 794 b 451 681 396 783 451 749 b 279 564 451 603 375 564 b 129 663 200 564 129 596 b 206 733 129 708 163 733 b 268 703 240 733 260 719 l 264 701 b 253 706 261 704 257 706 b 221 651 232 706 221 683 b 279 585 221 613 244 585 m 535 497 l 535 475 l 28 475 l 28 497 m 338 253 b 450 124 414 226 450 183 b 289 -6 450 38 378 -6 b 125 93 197 -6 125 29 b 218 175 125 142 167 167 b 142 285 176 193 142 232 b 285 408 142 367 208 408 b 422 324 360 408 422 379 b 338 253 422 279 378 256 m 222 338 b 275 278 224 308 242 292 l 331 256 b 358 322 347 271 358 292 b 285 388 358 363 332 388 b 222 338 246 388 222 368 m 225 172 b 194 101 204 157 194 133 b 289 17 194 51 233 17 b 365 71 336 17 365 39 b 299 142 365 110 340 124 l 225 172 "},"⅝":{"ha":563,"x_min":0,"x_max":0,"o":"m 446 707 b 272 564 446 611 364 564 b 129 660 196 564 129 594 b 203 731 129 706 161 731 b 264 699 236 731 257 714 l 260 699 b 249 701 257 700 254 701 b 217 647 229 701 217 682 b 272 585 217 611 236 585 b 333 694 315 585 333 636 b 257 799 333 751 310 799 b 183 764 228 799 201 783 l 179 764 l 206 978 b 333 968 247 972 300 968 b 432 994 379 968 408 971 l 433 994 b 329 878 433 924 413 878 b 215 899 294 878 242 888 l 204 799 b 304 833 224 817 254 833 b 446 707 389 833 446 782 m 535 497 l 535 475 l 28 475 l 28 497 m 338 253 b 450 124 414 226 450 183 b 289 -6 450 38 378 -6 b 125 93 197 -6 125 29 b 218 175 125 142 167 167 b 142 285 176 193 142 232 b 285 408 142 367 208 408 b 422 324 360 408 422 379 b 338 253 422 279 378 256 m 222 338 b 275 278 224 308 242 292 l 331 256 b 358 322 347 271 358 292 b 285 388 358 363 332 388 b 222 338 246 388 222 368 m 225 172 b 194 101 204 157 194 133 b 289 17 194 51 233 17 b 365 71 336 17 365 39 b 299 142 365 110 340 124 l 225 172 "},"⅞":{"ha":563,"x_min":0,"x_max":0,"o":"m 164 972 l 460 972 l 460 971 l 378 839 b 342 575 332 767 325 661 l 224 563 b 354 842 233 676 288 758 l 375 868 l 226 868 b 157 811 192 868 179 856 l 151 811 m 535 497 l 535 475 l 28 475 l 28 497 m 338 253 b 450 124 414 226 450 183 b 289 -6 450 38 378 -6 b 125 93 197 -6 125 29 b 218 175 125 142 167 167 b 142 285 176 193 142 232 b 285 408 142 367 208 408 b 422 324 360 408 422 379 b 338 253 422 279 378 256 m 222 338 b 275 278 224 308 242 292 l 331 256 b 358 322 347 271 358 292 b 285 388 358 363 332 388 b 222 338 246 388 222 368 m 225 172 b 194 101 204 157 194 133 b 289 17 194 51 233 17 b 365 71 336 17 365 39 b 299 142 365 110 340 124 l 225 172 "},"−":{"ha":665,"x_min":0,"x_max":0,"o":"m 61 467 l 604 467 l 604 428 l 61 428 "},"≈":{"ha":672,"x_min":0,"x_max":0,"o":"m 64 513 b 210 585 117 565 165 585 b 458 507 304 585 369 507 b 608 586 503 507 554 531 l 608 538 b 458 464 554 482 503 464 b 210 542 365 464 300 542 b 64 463 165 542 117 515 m 64 363 b 210 435 117 415 165 435 b 458 357 304 435 369 357 b 608 438 503 357 554 381 l 608 388 b 458 314 554 332 503 314 b 210 392 365 314 300 392 b 64 313 165 392 117 367 "},"≠":{"ha":672,"x_min":0,"x_max":0,"o":"m 275 342 l 161 201 l 113 201 l 226 342 l 64 342 l 64 379 l 257 379 l 369 518 l 64 518 l 64 556 l 400 556 l 511 693 l 560 693 l 449 556 l 608 556 l 608 518 l 418 518 l 306 379 l 608 379 l 608 342 "},"≤":{"ha":488,"x_min":0,"x_max":0,"o":"m 36 501 l 432 675 l 432 632 l 106 490 l 432 349 l 432 306 l 36 479 m 36 231 l 432 231 l 432 193 l 36 193 "},"≥":{"ha":488,"x_min":0,"x_max":0,"o":"m 451 479 l 56 306 l 56 349 l 382 490 l 56 632 l 56 675 l 451 501 m 451 193 l 56 193 l 56 231 l 451 231 "},"ﬀ":{"ha":904,"x_min":0,"x_max":0,"o":"m 554 683 l 554 747 b 556 783 554 760 554 772 b 474 813 521 783 490 796 b 538 903 510 822 538 853 b 439 1010 538 965 504 1010 b 306 818 346 1010 306 933 l 306 683 m 401 0 l 36 0 l 36 3 b 106 151 99 38 106 60 l 106 647 l 19 647 l 19 660 l 106 690 l 106 724 b 439 1032 106 926 247 1032 b 624 961 515 1032 586 1004 b 856 1049 678 1021 760 1049 b 1069 914 976 1049 1069 1006 b 958 813 1069 854 1021 813 b 876 844 922 813 893 824 b 936 936 911 854 936 879 b 856 1026 936 990 907 1026 b 754 858 776 1026 754 951 l 754 683 l 931 683 l 924 647 l 754 647 l 754 151 b 849 3 754 60 779 35 l 849 0 l 483 0 l 483 3 b 554 151 546 38 554 60 l 554 647 l 306 647 l 306 151 b 401 3 306 60 331 35 "},"ﬁ":{"ha":851,"x_min":0,"x_max":0,"o":"m 306 683 l 754 683 l 754 151 b 824 3 754 60 761 38 l 824 0 l 483 0 l 483 3 b 554 151 546 38 554 60 l 554 585 b 492 647 554 631 533 647 l 306 647 l 306 151 b 401 3 306 60 331 35 l 401 0 l 36 0 l 36 3 b 106 151 99 38 106 60 l 106 647 l 19 647 l 19 660 l 106 690 l 106 736 b 446 1049 106 939 258 1049 b 701 894 594 1049 701 993 b 578 788 701 831 650 788 b 482 821 533 788 503 801 b 550 921 524 832 550 867 b 446 1026 550 985 517 1026 b 306 824 354 1026 306 949 "},"ﬂ":{"ha":850,"x_min":0,"x_max":0,"o":"m 754 151 b 824 3 754 60 761 38 l 824 0 l 483 0 l 483 3 b 554 151 546 38 554 60 l 554 844 b 413 1026 554 935 515 1026 b 306 865 339 1026 306 954 l 306 683 l 461 683 l 454 647 l 306 647 l 306 151 b 401 3 306 60 331 35 l 401 0 l 36 0 l 36 3 b 106 151 99 38 106 60 l 106 647 l 19 647 l 19 660 l 106 690 l 106 747 b 407 1049 106 956 235 1049 b 599 961 497 1049 568 999 b 751 1046 654 978 704 1004 l 754 1046 "},"ﬃ":{"ha":1299,"x_min":0,"x_max":0,"o":"m 554 683 l 554 736 b 557 783 554 753 556 768 l 556 783 b 474 813 521 783 490 796 b 538 903 510 822 538 853 b 439 1010 538 965 504 1010 b 306 818 346 1010 306 933 l 306 683 m 401 0 l 36 0 l 36 3 b 106 151 99 38 106 60 l 106 647 l 19 647 l 19 660 l 106 690 l 106 724 b 439 1032 106 926 247 1032 b 633 949 522 1032 597 1000 b 893 1049 696 1014 789 1049 b 1149 894 1042 1049 1149 993 b 1025 788 1149 831 1097 788 b 929 821 982 788 950 801 b 997 921 971 832 997 867 b 893 1026 997 985 965 1026 b 754 824 803 1026 754 949 l 754 683 l 1201 683 l 1201 151 b 1272 3 1201 60 1210 38 l 1272 0 l 932 0 l 932 3 b 1001 151 994 38 1001 60 l 1001 585 b 939 647 1001 631 982 647 l 754 647 l 754 151 b 849 3 754 60 779 35 l 849 0 l 483 0 l 483 3 b 554 151 546 38 554 60 l 554 647 l 306 647 l 306 151 b 401 3 306 60 331 35 "},"ﬄ":{"ha":1299,"x_min":0,"x_max":0,"o":"m 554 683 l 554 747 b 556 783 554 760 554 772 b 474 813 521 783 490 796 b 538 903 510 822 538 853 b 439 1010 538 965 504 1010 b 306 818 346 1010 306 933 l 306 683 m 401 0 l 36 0 l 36 3 b 106 151 99 38 106 60 l 106 647 l 19 647 l 19 660 l 106 690 l 106 724 b 439 1032 106 926 247 1032 b 625 960 517 1032 586 1004 b 856 1049 679 1021 761 1049 b 1046 961 944 1049 1015 999 b 1199 1046 1101 978 1151 1004 l 1201 1046 l 1201 151 b 1272 3 1201 60 1210 38 l 1272 0 l 932 0 l 932 3 b 1001 151 994 38 1001 60 l 1001 844 b 860 1026 1001 935 964 1026 b 754 865 788 1026 754 954 l 754 683 l 910 683 l 903 647 l 754 647 l 754 151 b 849 3 754 60 779 35 l 849 0 l 483 0 l 483 3 b 554 151 546 38 554 60 l 554 647 l 306 647 l 306 151 b 401 3 306 60 331 35 "}}}
